<?xml version="1.0" standalone="no"?>
<!DOCTYPE svg PUBLIC "-//W3C//DTD SVG 1.1//EN" "http://www.w3.org/Graphics/SVG/1.1/DTD/svg11.dtd" >
<svg>
<metadata>
Created by FontForge 20110222 at Mon Jul  7 05:24:25 2014
 By deploy user
Copyright 2000, 2002, 2004 Adobe Systems Incorporated. All Rights Reserved. (Latin design U.S. Patent Des. 337,604; Arabic design U.S. Patent Des 529,537.)
</metadata>
<defs>
<font id="AdobeArabic-Italic" horiz-adv-x="0" >
  <font-face 
    font-family="Adobe Arabic"
    font-weight="400"
    font-style="italic"
    font-stretch="normal"
    units-per-em="2048"
    panose-1="2 4 5 3 5 2 1 9 2 3"
    ascent="1368"
    descent="-680"
    x-height="655"
    cap-height="950"
    bbox="-798 -1122 3599 1792"
    underline-thickness="50"
    underline-position="-50"
    slope="9"
    unicode-range="U+0020-FEFC"
  />
<missing-glyph horiz-adv-x="728" 
d="M728 0h-728v1020h728v-1020zM612 947h-495l247 -372zM655 138v743l-247 -371zM117 73h495l-248 371zM73 881v-743l247 372z" />
    <glyph glyph-name="f_i" unicode="fi" horiz-adv-x="800" 
d="M730 170l23 -33q-43 -53 -116.5 -103.5t-116.5 -50.5q-65 0 -29 147q12 50 25.5 107t30 127t25.5 108q15 69 4.5 84t-69.5 15h-185q-43 -250 -79 -409q-42 -189 -83.5 -284t-108.5 -162q-88 -92 -169 -92q-34 0 -61 17.5t-26 42.5q0 32 43 68q15 14 31 2q37 -35 87 -35
q37 0 63 28q45 42 99 361q60 363 77 463h-116l-6 16l44 42h90q46 213 163 316q110 95 221 95q77 0 113 -33t36 -66q0 -23 -15.5 -44t-39.5 -27q-50 -16 -59 17q-17 95 -90 95q-140 0 -202 -353h151q124 0 214 22q32 -16 9 -106q-27 -113 -93 -386q-6 -25 -7 -38.5t2 -19
t11 -5.5q11 0 46 23.5t63 50.5z" />
    <glyph glyph-name="f_l" unicode="fl" horiz-adv-x="794" 
d="M498 629l-30 -48l-146 -14q-71 -387 -82 -442q-35 -167 -76.5 -256.5t-109.5 -156.5q-88 -88 -168 -88q-31 0 -59 18.5t-27 42.5q0 18 12.5 37.5t30.5 31.5q15 11 29 0q43 -37 90 -37q35 0 63 30q43 43 96 362q23 138 74 461h-119l-6 14l44 45h93q33 195 148 302
q50 47 117.5 78t123.5 31q73 0 109 -36q72 36 90 36q19 0 9 -47q-108 -508 -175 -836q-5 -39 -3 -48t11 -13q13 0 50 25.5t62 54.5l22 -35q-48 -66 -120.5 -112t-111.5 -46q-61 0 -25 189q32 150 76.5 366.5t78.5 373.5q-15 24 -48.5 45.5t-75.5 21.5q-156 0 -213 -350h166z
" />
    <glyph glyph-name="uniFC31" unicode="&#xfed3;&#xfef0;" horiz-adv-x="1013" arabic-form="isolated" 
d="M396 949q39 66 64 102q69 -45 137 -107q-26 -58 -67 -98q-26 22 -134 103zM786 304q0 4 -1.5 9.5t-3.5 12.5t-3 12q-43 -11 -103 -11q-176 0 -238 100q-28 44 -28 113q0 84 44 140q49 62 112 62q113 0 208 -185q32 -61 55 -138t23 -131q0 -53 -26 -108q80 -23 104.5 -61
t24.5 -112q0 -35 -12 -73q-21 -57 -104 -119q-141 -107 -322 -107q-134 0 -231 67.5t-143 173t-46 233.5q0 115 25 202l43 -15q-12 -60 -12 -116q0 -104 38.5 -194.5t119 -150.5t188.5 -60q160 0 283 74q81 49 115 102q-4 28 -120 51t-247 23l-5 7l29 103q124 15 178.5 36.5
t54.5 59.5zM747 448q-81 171 -185 171q-42 0 -70.5 -25.5t-28.5 -56.5q0 -40 63 -66.5t140 -26.5q56 0 81 4z" />
    <glyph glyph-name="uniFC32" unicode="&#xfed3;&#xfef2;" horiz-adv-x="1013" arabic-form="isolated" 
d="M396 949q39 66 64 102q69 -45 137 -107q-26 -58 -67 -98q-26 22 -134 103zM786 -493q-32 -60 -61 -92q-67 56 -133 104q28 50 64 95q64 -46 130 -107zM596 -506q-34 -61 -62 -92q-70 58 -134 104q35 57 64 95q58 -40 132 -107zM786 304q0 4 -1.5 9.5t-3.5 12.5t-3 12
q-43 -11 -103 -11q-176 0 -238 100q-28 44 -28 113q0 84 44 140q49 62 112 62q113 0 208 -185q32 -61 55 -138t23 -131q0 -53 -26 -108q80 -23 104.5 -61t24.5 -112q0 -35 -12 -73q-21 -57 -104 -119q-141 -107 -322 -107q-134 0 -231 67.5t-143 173t-46 233.5q0 115 25 202
l43 -15q-12 -60 -12 -116q0 -104 38.5 -194.5t119 -150.5t188.5 -60q160 0 283 74q81 49 115 102q-4 28 -120 51t-247 23l-5 7l29 103q124 15 178.5 36.5t54.5 59.5zM747 448q-81 171 -185 171q-42 0 -70.5 -25.5t-28.5 -56.5q0 -40 63 -66.5t140 -26.5q56 0 81 4z" />
    <glyph glyph-name="uniFC43" unicode="&#xfedf;&#xfef0;" horiz-adv-x="1003" arabic-form="isolated" 
d="M674 1029l8 -5q11 -91 117 -229q-24 -27 -57 -54q7 -37 30 -150t35.5 -190t12.5 -125q0 -85 -32 -163q95 -21 129 -60.5t34 -117.5q0 -47 -22 -105q-173 -202 -414 -202q-124 0 -219.5 64.5t-143.5 166t-48 220.5q0 105 34 225l40 -15q-17 -96 -17 -145q0 -146 97 -261
t240 -115q168 0 280 75q87 59 112 99q-4 27 -105.5 50.5t-223.5 32.5l-8 9l31 104q136 21 168 73q-17 164 -113 571q-3 16 -17 63.5t-14 72.5q0 28 19 56q19 27 47 55z" />
    <glyph glyph-name="uniFC44" unicode="&#xfedf;&#xfef2;" horiz-adv-x="1003" arabic-form="isolated" 
d="M777 -553q-32 -61 -62 -92q-76 63 -133 104q33 57 64 95q54 -37 131 -107zM586 -566q-35 -64 -61 -92q-53 44 -133 104q31 56 64 95q64 -46 130 -107zM674 1029l8 -5q11 -91 117 -229q-24 -27 -57 -54q7 -37 30 -150t35.5 -190t12.5 -125q0 -85 -32 -163
q95 -21 129 -60.5t34 -117.5q0 -47 -22 -105q-173 -202 -414 -202q-124 0 -219.5 64.5t-143.5 166t-48 220.5q0 105 34 225l40 -15q-17 -96 -17 -145q0 -146 97 -261t240 -115q168 0 280 75q87 59 112 99q-4 27 -105.5 50.5t-223.5 32.5l-8 9l31 104q136 21 168 73
q-17 164 -113 571q-3 16 -17 63.5t-14 72.5q0 28 19 56q19 27 47 55z" />
    <glyph glyph-name="uniFC64" unicode="&#xfe8c;&#xfeae;" horiz-adv-x="910" arabic-form="final" 
d="M644 479h10q5 -15 53 -156q47 -136 112 -173q42 -22 84 -22h13l21 -128h-18q-89 0 -141.5 47t-102.5 169l-41 102h-5q-16 -48 -48 -77.5t-77 -29.5h-7q42 -110 42 -189q0 -64 -36 -135t-85.5 -111.5t-90.5 -40.5q-60 0 -121 19t-149 60l10 32q56 -25 99 -25
q152 0 249 142q60 82 60 130v11q-15 29 -44 62.5t-46 50t-62 57.5l12 128h9q65 -50 84 -63q36 -22 87 -22q37 0 66 27q13 11 22.5 31.5t21 53t19.5 50.5zM746 699v-3q-10 -35 -28 -68q-141 -23 -246 -75l-2 3l17 42q15 24 41 33l-1 3q-41 12 -66.5 37t-25.5 60q0 41 33 78
q52 57 110 57q32 0 52 -17t20 -40q0 -27 -23 -57h-2q-18 27 -29 34.5t-35 7.5q-29 0 -48.5 -11t-19.5 -23q0 -27 44.5 -46t106.5 -19q34 0 102 4z" />
    <glyph glyph-name="uniFC67" unicode="&#xfe8c;&#xfee6;" horiz-adv-x="1120" arabic-form="final" 
d="M235 640q36 61 66 102q63 -42 136 -107q-25 -57 -68 -98q-48 39 -134 103zM853 489h10q3 -9 10 -28.5t19 -54.5t24 -71q49 -144 112 -180q56 -27 84 -27h14l21 -128h-16q-88 0 -142 51t-104 174l-43 103h-5q-33 -101 -124 -104q28 -51 47 -126t19 -140q0 -44 -10 -84
q-30 -59 -89 -107q-97 -68 -212 -68q-111 0 -193 55t-122.5 144.5t-40.5 200.5q0 81 19 152l37 -13q-7 -65 -7 -94q0 -130 80.5 -220t198.5 -90q117 0 195 56q86 60 86 113q0 39 -37 111q-15 30 -43 62.5t-49.5 52.5t-60.5 55l15 130l10 1q50 -41 84 -64q33 -21 84 -21
q41 0 66 24q13 11 22.5 31.5t21 53t19.5 50.5zM971 699v-3q-10 -35 -28 -68q-141 -23 -246 -75l-2 3l17 42q15 24 41 33l-1 3q-41 12 -66.5 37t-25.5 60q0 41 33 78q52 57 110 57q32 0 52 -17t20 -40q0 -27 -23 -57h-2q-18 27 -29 34.5t-35 7.5q-29 0 -48.5 -11t-19.5 -23
q0 -27 44.5 -46t106.5 -19q34 0 102 4z" />
    <glyph glyph-name="uniFC6A" unicode="&#xfe92;&#xfeae;" horiz-adv-x="910" arabic-form="final" 
d="M644 479h10q5 -15 53 -156q47 -136 112 -173q42 -22 84 -22h13l21 -128h-18q-89 0 -141.5 47t-102.5 169l-41 102h-5q-16 -48 -48 -77.5t-77 -29.5h-7q42 -110 42 -189q0 -64 -36 -135t-85.5 -111.5t-90.5 -40.5q-60 0 -121 19t-149 60l10 32q56 -25 99 -25
q152 0 249 142q60 82 60 130v11q-15 29 -44 62.5t-46 50t-62 57.5l12 128h9q65 -50 84 -63q36 -22 87 -22q37 0 66 27q13 11 22.5 31.5t21 53t19.5 50.5zM658 -301q25 44 65 102q57 -36 138 -107q-30 -60 -68 -98q-39 32 -135 103z" />
    <glyph glyph-name="uniFC70" unicode="&#xfe98;&#xfeae;" horiz-adv-x="910" arabic-form="final" 
d="M644 479h10q5 -15 53 -156q47 -136 112 -173q42 -22 84 -22h13l21 -128h-18q-89 0 -141.5 47t-102.5 169l-41 102h-5q-16 -48 -48 -77.5t-77 -29.5h-7q42 -110 42 -189q0 -64 -36 -135t-85.5 -111.5t-90.5 -40.5q-60 0 -121 19t-149 60l10 32q56 -25 99 -25
q152 0 249 142q60 82 60 130v11q-15 29 -44 62.5t-46 50t-62 57.5l12 128h9q65 -50 84 -63q36 -22 87 -22q37 0 66 27q13 11 22.5 31.5t21 53t19.5 50.5zM577 679q-34 -61 -61 -92q-59 49 -134 104q24 42 64 95q64 -45 131 -107zM768 692q-35 -64 -62 -92q-63 52 -132 104
q31 56 64 95q58 -41 130 -107z" />
    <glyph glyph-name="uniFC86" unicode="&#xfee0;&#xfef0;" horiz-adv-x="1240" arabic-form="final" 
d="M889 1043l11 -6q59 -284 114 -646q25 -145 93 -218q54 -45 125 -45h14l21 -128h-18q-83 0 -146 40t-96.5 100t-47.5 136h-5q-10 -107 -122 -179l2 -3q117 -26 117 -159q0 -47 -22 -105q-173 -202 -414 -202q-124 0 -219.5 64.5t-143.5 166t-48 220.5q0 105 34 225l40 -15
q-17 -96 -17 -145q0 -146 97 -261t240 -115q166 0 280 75q86 57 112 99q-4 27 -104 50t-223 32l-6 9l35 110q163 24 255 86q41 33 56.5 61.5t15.5 76.5q0 44 -11.5 121t-24 140.5t-34.5 170t-31 150.5q38 60 71 94z" />
    <glyph glyph-name="uniFC87" unicode="&#xfee0;&#xfef2;" horiz-adv-x="1240" arabic-form="final" 
d="M787 -553q-32 -61 -62 -92q-76 63 -133 104q33 57 64 95q54 -37 131 -107zM596 -566q-35 -64 -61 -92q-53 44 -133 104q31 56 64 95q64 -46 130 -107zM889 1043l11 -6q59 -284 114 -646q25 -145 93 -218q54 -45 125 -45h14l21 -128h-18q-83 0 -146 40t-96.5 100
t-47.5 136h-5q-10 -107 -122 -179l2 -3q117 -26 117 -159q0 -47 -22 -105q-173 -202 -414 -202q-124 0 -219.5 64.5t-143.5 166t-48 220.5q0 105 34 225l40 -15q-17 -96 -17 -145q0 -146 97 -261t240 -115q166 0 280 75q86 57 112 99q-4 27 -104 50t-223 32l-6 9l35 110
q163 24 255 86q41 33 56.5 61.5t15.5 76.5q0 44 -11.5 121t-24 140.5t-34.5 170t-31 150.5q38 60 71 94z" />
    <glyph glyph-name="uniFCCC" unicode="&#xfedf;&#xfee4;" horiz-adv-x="689" arabic-form="initial" 
d="M259 87l-5 -1q-47 -46 -95 -66t-118 -20h-14q-43 0 -61.5 23.5t-18.5 49.5q0 55 60 55h9q124 0 215 71q-62 247 -109 550q-2 19 -18 85.5t-16 92.5q0 36 20 61q15 24 47 52l11 -6q1 -5 1 -14q2 -25 3 -28q16 -86 109 -204l-65 -51q56 -362 93 -487l5 -2q56 35 123 35
q66 0 123 -55q33 -32 52 -80.5t19 -97.5q0 -70 -39 -111t-91 -41q-69 0 -132.5 51t-107.5 138zM343 143q27 -57 81 -95.5t104 -38.5q28 0 46 18q-8 49 -52 93q-43 45 -101 45q-47 0 -78 -22z" />
    <glyph glyph-name="uniFCFB" unicode="&#xfeb3;&#xfef0;" horiz-adv-x="1587" arabic-form="isolated" 
d="M1053 128q47 0 84 29q6 5 10.5 10.5t7.5 10t6 14t5 15.5t4.5 20.5t3.5 23t4 30.5t5 35l55 35l6 -4q-2 -11 -2 -38q0 -85 36.5 -130t89.5 -45q47 0 47 38q0 36 -50 169q33 49 75 90l7 -3q5 -20 16.5 -61t16 -59t9 -44.5t4.5 -48.5q0 -56 -16 -102q-51 -110 -132 -110
q-65 0 -138 83h-8q-31 -42 -64.5 -64t-84.5 -22q-67 0 -122 57.5t-67 130.5q-6 31 -38.5 52.5t-70.5 21.5q-63 0 -120 -47t-57 -93q0 -32 46 -53t132 -37q70 -12 104.5 -28.5t52.5 -49.5q24 -48 24 -77q0 -31 -17 -93q-23 -49 -120 -106q-144 -82 -282 -82
q-173 0 -286.5 116.5t-113.5 316.5q0 100 28 197l45 -19q-18 -57 -18 -119q0 -160 98 -261.5t246 -101.5q91 0 189 39q128 53 168 109q-3 18 -139 43q-102 13 -161 55t-59 130q0 45 16.5 99t46.5 91q82 102 189 102q56 0 84 -32t53 -99q24 -62 66.5 -98t85.5 -36z" />
    <glyph glyph-name="uniFCFC" unicode="&#xfeb3;&#xfef2;" horiz-adv-x="1587" arabic-form="isolated" 
d="M791 -573q-34 -62 -63 -92q-76 63 -133 104q33 57 64 95q51 -35 132 -107zM599 -586q-35 -64 -61 -92q-53 44 -133 104q28 50 64 95q65 -46 130 -107zM1053 128q47 0 84 29q6 5 10.5 10.5t7.5 10t6 14t5 15.5t4.5 20.5t3.5 23t4 30.5t5 35l55 35l6 -4q-2 -11 -2 -38
q0 -85 36.5 -130t89.5 -45q47 0 47 38q0 36 -50 169q33 49 75 90l7 -3q5 -20 16.5 -61t16 -59t9 -44.5t4.5 -48.5q0 -56 -16 -102q-51 -110 -132 -110q-65 0 -138 83h-8q-31 -42 -64.5 -64t-84.5 -22q-67 0 -122 57.5t-67 130.5q-6 31 -38.5 52.5t-70.5 21.5q-63 0 -120 -47
t-57 -93q0 -32 46 -53t132 -37q70 -12 104.5 -28.5t52.5 -49.5q24 -48 24 -77q0 -31 -17 -93q-23 -49 -120 -106q-144 -82 -282 -82q-173 0 -286.5 116.5t-113.5 316.5q0 100 28 197l45 -19q-18 -57 -18 -119q0 -160 98 -261.5t246 -101.5q91 0 189 39q128 53 168 109
q-3 18 -139 43q-102 13 -161 55t-59 130q0 45 16.5 99t46.5 91q82 102 189 102q56 0 84 -32t53 -99q24 -62 66.5 -98t85.5 -36z" />
    <glyph glyph-name="uniFCFD" unicode="&#xfeb7;&#xfef0;" horiz-adv-x="1587" arabic-form="isolated" 
d="M1161 802q-32 -60 -61 -92q-67 56 -133 104q28 50 64 95q60 -42 130 -107zM1142 589q-34 -62 -63 -92q-76 63 -133 104q33 57 64 95q52 -35 132 -107zM1332 602q-34 -61 -61 -92q-59 49 -134 104q24 42 64 95q64 -45 131 -107zM1053 128q47 0 84 29q6 5 10.5 10.5t7.5 10
t6 14t5 15.5t4.5 20.5t3.5 23t4 30.5t5 35l55 35l6 -4q-2 -11 -2 -38q0 -85 36.5 -130t89.5 -45q47 0 47 38q0 36 -50 169q33 49 75 90l7 -3q5 -20 16.5 -61t16 -59t9 -44.5t4.5 -48.5q0 -56 -16 -102q-51 -110 -132 -110q-65 0 -138 83h-8q-31 -42 -64.5 -64t-84.5 -22
q-67 0 -122 57.5t-67 130.5q-6 31 -38.5 52.5t-70.5 21.5q-63 0 -120 -47t-57 -93q0 -32 46 -53t132 -37q70 -12 104.5 -28.5t52.5 -49.5q24 -48 24 -77q0 -31 -17 -93q-23 -49 -120 -106q-144 -82 -282 -82q-173 0 -286.5 116.5t-113.5 316.5q0 100 28 197l45 -19
q-18 -57 -18 -119q0 -160 98 -261.5t246 -101.5q91 0 189 39q128 53 168 109q-3 18 -139 43q-102 13 -161 55t-59 130q0 45 16.5 99t46.5 91q82 102 189 102q56 0 84 -32t53 -99q24 -62 66.5 -98t85.5 -36z" />
    <glyph glyph-name="uniFCFE" unicode="&#xfeb7;&#xfef2;" horiz-adv-x="1587" arabic-form="isolated" 
d="M791 -573q-34 -62 -63 -92q-76 63 -133 104q33 57 64 95q51 -35 132 -107zM599 -586q-35 -64 -61 -92q-53 44 -133 104q28 50 64 95q65 -46 130 -107zM1191 802q-32 -60 -61 -92q-67 56 -133 104q28 50 64 95q60 -42 130 -107zM1172 589q-34 -62 -63 -92q-76 63 -133 104
q33 57 64 95q52 -35 132 -107zM1362 602q-34 -61 -61 -92q-59 49 -134 104q24 42 64 95q64 -45 131 -107zM1053 128q47 0 84 29q6 5 10.5 10.5t7.5 10t6 14t5 15.5t4.5 20.5t3.5 23t4 30.5t5 35l55 35l6 -4q-2 -11 -2 -38q0 -85 36.5 -130t89.5 -45q47 0 47 38q0 36 -50 169
q33 49 75 90l7 -3q5 -20 16.5 -61t16 -59t9 -44.5t4.5 -48.5q0 -56 -16 -102q-51 -110 -132 -110q-65 0 -138 83h-8q-31 -42 -64.5 -64t-84.5 -22q-67 0 -122 57.5t-67 130.5q-6 31 -38.5 52.5t-70.5 21.5q-63 0 -120 -47t-57 -93q0 -32 46 -53t132 -37q70 -12 104.5 -28.5
t52.5 -49.5q24 -48 24 -77q0 -31 -17 -93q-23 -49 -120 -106q-144 -82 -282 -82q-173 0 -286.5 116.5t-113.5 316.5q0 100 28 197l45 -19q-18 -57 -18 -119q0 -160 98 -261.5t246 -101.5q91 0 189 39q128 53 168 109q-3 18 -139 43q-102 13 -161 55t-59 130q0 45 16.5 99
t46.5 91q82 102 189 102q56 0 84 -32t53 -99q24 -62 66.5 -98t85.5 -36z" />
    <glyph glyph-name="uniFD05" unicode="&#xfebb;&#xfef0;" horiz-adv-x="1765" arabic-form="isolated" 
d="M1080 149q65 -21 186 -21q143 0 255 57q36 19 53 34.5t17 34.5q0 35 -56 95t-139 60q-86 0 -170 -71.5t-146 -188.5zM1026 174q82 163 167 251q105 109 223 109q67 0 119.5 -31.5t83.5 -78.5q46 -73 46 -148q0 -27 -7 -64q-21 -126 -179 -181q-86 -31 -239 -31
q-106 0 -182 26l-38 -106l-14 3q-2 18 -4 54q-2 30 -2 45q0 5 0.5 15.5t0.5 15.5q-28 11 -68 49.5t-65 87.5q-42 72 -117 72q-63 0 -119.5 -47t-56.5 -93q0 -32 46 -53t132 -37q70 -12 104.5 -28.5t52.5 -49.5q24 -48 24 -77q0 -31 -17 -93q-23 -49 -120 -106
q-144 -82 -282 -82q-173 0 -286.5 116.5t-113.5 316.5q0 100 28 197l45 -19q-18 -57 -18 -120q0 -160 98 -261t246 -101q91 0 189 39q128 53 168 109q-3 20 -139 43q-104 15 -162 56.5t-58 128.5q0 45 16.5 99t46.5 91q83 103 189 103q38 0 67.5 -20t45.5 -51
q27 -50 67 -88.5t82 -60.5z" />
    <glyph glyph-name="uniFD06" unicode="&#xfebb;&#xfef2;" horiz-adv-x="1765" arabic-form="isolated" 
d="M791 -573q-34 -62 -63 -92q-76 63 -133 104q33 57 64 95q51 -35 132 -107zM599 -586q-35 -64 -61 -92q-53 44 -133 104q28 50 64 95q65 -46 130 -107zM1080 149q65 -21 186 -21q143 0 255 57q36 19 53 34.5t17 34.5q0 35 -56 95t-139 60q-86 0 -170 -71.5t-146 -188.5z
M1026 174q82 163 167 251q105 109 223 109q67 0 119.5 -31.5t83.5 -78.5q46 -73 46 -148q0 -27 -7 -64q-21 -126 -179 -181q-86 -31 -239 -31q-106 0 -182 26l-38 -106l-14 3q-2 18 -4 54q-2 30 -2 45q0 5 0.5 15.5t0.5 15.5q-28 11 -68 49.5t-65 87.5q-42 72 -117 72
q-63 0 -119.5 -47t-56.5 -93q0 -32 46 -53t132 -37q70 -12 104.5 -28.5t52.5 -49.5q24 -48 24 -77q0 -31 -17 -93q-23 -49 -120 -106q-144 -82 -282 -82q-173 0 -286.5 116.5t-113.5 316.5q0 100 28 197l45 -19q-18 -57 -18 -120q0 -160 98 -261t246 -101q91 0 189 39
q128 53 168 109q-3 20 -139 43q-104 15 -162 56.5t-58 128.5q0 45 16.5 99t46.5 91q83 103 189 103q38 0 67.5 -20t45.5 -51q27 -50 67 -88.5t82 -60.5z" />
    <glyph glyph-name="uniFD07" unicode="&#xfebf;&#xfef0;" horiz-adv-x="1765" arabic-form="isolated" 
d="M1060 769q39 67 65 102q69 -46 136 -107q-24 -55 -66 -98q-15 12 -135 103zM1080 149q65 -21 186 -21q143 0 255 57q36 19 53 34.5t17 34.5q0 35 -56 95t-139 60q-86 0 -170 -71.5t-146 -188.5zM1026 174q82 163 167 251q105 109 223 109q67 0 119.5 -31.5t83.5 -78.5
q46 -73 46 -148q0 -27 -7 -64q-21 -126 -179 -181q-86 -31 -239 -31q-106 0 -182 26l-38 -106l-14 3q-2 18 -4 54q-2 30 -2 45q0 5 0.5 15.5t0.5 15.5q-28 11 -68 49.5t-65 87.5q-42 72 -117 72q-63 0 -119.5 -47t-56.5 -93q0 -32 46 -53t132 -37q70 -12 104.5 -28.5
t52.5 -49.5q24 -48 24 -77q0 -31 -17 -93q-23 -49 -120 -106q-144 -82 -282 -82q-173 0 -286.5 116.5t-113.5 316.5q0 100 28 197l45 -19q-18 -57 -18 -120q0 -160 98 -261t246 -101q91 0 189 39q128 53 168 109q-3 20 -139 43q-104 15 -162 56.5t-58 128.5q0 45 16.5 99
t46.5 91q83 103 189 103q38 0 67.5 -20t45.5 -51q27 -50 67 -88.5t82 -60.5z" />
    <glyph glyph-name="uniFD08" unicode="&#xfebf;&#xfef2;" horiz-adv-x="1765" arabic-form="isolated" 
d="M791 -573q-34 -62 -63 -92q-76 63 -133 104q33 57 64 95q51 -35 132 -107zM599 -586q-35 -64 -61 -92q-53 44 -133 104q28 50 64 95q65 -46 130 -107zM1070 769q39 67 65 102q69 -46 136 -107q-24 -55 -66 -98q-15 12 -135 103zM1080 149q65 -21 186 -21q143 0 255 57
q36 19 53 34.5t17 34.5q0 35 -56 95t-139 60q-86 0 -170 -71.5t-146 -188.5zM1026 174q82 163 167 251q105 109 223 109q67 0 119.5 -31.5t83.5 -78.5q46 -73 46 -148q0 -27 -7 -64q-21 -126 -179 -181q-86 -31 -239 -31q-106 0 -182 26l-38 -106l-14 3q-2 18 -4 54
q-2 30 -2 45q0 5 0.5 15.5t0.5 15.5q-28 11 -68 49.5t-65 87.5q-42 72 -117 72q-63 0 -119.5 -47t-56.5 -93q0 -32 46 -53t132 -37q70 -12 104.5 -28.5t52.5 -49.5q24 -48 24 -77q0 -31 -17 -93q-23 -49 -120 -106q-144 -82 -282 -82q-173 0 -286.5 116.5t-113.5 316.5
q0 100 28 197l45 -19q-18 -57 -18 -120q0 -160 98 -261t246 -101q91 0 189 39q128 53 168 109q-3 20 -139 43q-104 15 -162 56.5t-58 128.5q0 45 16.5 99t46.5 91q83 103 189 103q38 0 67.5 -20t45.5 -51q27 -50 67 -88.5t82 -60.5z" />
    <glyph glyph-name="uniFD0D" unicode="&#xfeb7;&#xfeae;" horiz-adv-x="1490" arabic-form="isolated" 
d="M1071 802q-32 -60 -61 -92q-67 56 -133 104q28 50 64 95q60 -42 130 -107zM1052 589q-34 -62 -63 -92q-76 63 -133 104q33 57 64 95q52 -35 132 -107zM1242 602q-34 -61 -61 -92q-59 49 -134 104q24 42 64 95q64 -45 131 -107zM956 128q47 0 84 29q6 5 10.5 10.5t7.5 10
t6 14t5 15.5t4.5 20.5t3.5 23t4 30.5t5 35l55 35l6 -4q-2 -24 -2 -37q0 -52 13.5 -89t35 -54.5t40.5 -25t37 -7.5q47 0 47 38q0 34 -50 169q33 49 75 90l7 -3q5 -18 14 -50.5t13 -48t9.5 -38.5t7.5 -40.5t2 -35.5q0 -56 -16 -102q-51 -110 -132 -110q-65 0 -138 83h-8
q-62 -86 -143 -86q-73 0 -128 52.5t-69 138.5q-165 -55 -218 -84q20 -41 24 -74q1 -10 7 -49.5t8.5 -65t2.5 -49.5q0 -80 -51 -151q-90 -123 -203 -123q-101 0 -254 97l10 28q62 -26 129 -26q134 0 237 112q76 83 76 147q0 21 -15.5 46t-29 39.5t-49.5 49.5q0 55 12 121
q170 76 353 118l4 -7q-2 -11 -2 -27q0 -66 48 -115.5t105 -49.5z" />
    <glyph glyph-name="uniFD0E" unicode="&#xfeb3;&#xfeae;" horiz-adv-x="1490" arabic-form="isolated" 
d="M956 128q47 0 84 29q6 5 10.5 10.5t7.5 10t6 14t5 15.5t4.5 20.5t3.5 23t4 30.5t5 35l55 35l6 -4q-2 -24 -2 -37q0 -52 13.5 -89t35 -54.5t40.5 -25t37 -7.5q47 0 47 38q0 34 -50 169q33 49 75 90l7 -3q5 -18 14 -50.5t13 -48t9.5 -38.5t7.5 -40.5t2 -35.5
q0 -56 -16 -102q-51 -110 -132 -110q-65 0 -138 83h-8q-62 -86 -143 -86q-73 0 -128 52.5t-69 138.5q-165 -55 -218 -84q20 -41 24 -74q1 -10 7 -49.5t8.5 -65t2.5 -49.5q0 -80 -51 -151q-90 -123 -203 -123q-101 0 -254 97l10 28q62 -26 129 -26q134 0 237 112
q76 83 76 147q0 21 -15.5 46t-29 39.5t-49.5 49.5q0 55 12 121q170 76 353 118l4 -7q-2 -11 -2 -27q0 -66 48 -115.5t105 -49.5z" />
    <glyph glyph-name="uniFD0F" unicode="&#xfebb;&#xfeae;" horiz-adv-x="1690" arabic-form="isolated" 
d="M951 174q82 163 167 251q105 109 223 109q67 0 119.5 -31.5t83.5 -78.5q46 -73 46 -148q0 -27 -7 -64q-21 -126 -179 -181q-86 -31 -240 -31q-124 0 -199 33q-33 -59 -63 -136l-23 12q10 96 24 156q-94 63 -118 153q-149 -50 -232 -94q20 -41 24 -73q1 -11 7 -48.5
t8.5 -63t2.5 -50.5q0 -89 -59 -168q-93 -123 -203 -123q-102 0 -255 97l11 28q62 -26 127 -26q136 0 238 113q82 90 82 165q0 21 -15 45t-28 38t-48 48q2 65 12 121q155 69 341 134q36 -134 153 -187zM1006 149q65 -21 186 -21q143 0 255 57q37 19 53.5 34t16.5 34
q0 13 -13 37t-35.5 51.5t-62 47.5t-84.5 20q-86 0 -170 -71.5t-146 -188.5z" />
    <glyph glyph-name="uniFD10" unicode="&#xfebf;&#xfeae;" horiz-adv-x="1690" arabic-form="isolated" 
d="M1000 769q39 67 65 102q69 -46 136 -107q-24 -55 -66 -98q-15 12 -135 103zM951 174q82 163 167 251q105 109 223 109q67 0 119.5 -31.5t83.5 -78.5q46 -73 46 -148q0 -27 -7 -64q-21 -126 -179 -181q-86 -31 -240 -31q-124 0 -199 33q-33 -59 -63 -136l-23 12
q10 96 24 156q-94 63 -118 153q-149 -50 -232 -94q20 -41 24 -73q1 -11 7 -48.5t8.5 -63t2.5 -50.5q0 -89 -59 -168q-93 -123 -203 -123q-102 0 -255 97l11 28q62 -26 127 -26q136 0 238 113q82 90 82 165q0 21 -15 45t-28 38t-48 48q2 65 12 121q155 69 341 134
q36 -134 153 -187zM1006 149q65 -21 186 -21q143 0 255 57q37 19 53.5 34t16.5 34q0 13 -13 37t-35.5 51.5t-62 47.5t-84.5 20q-86 0 -170 -71.5t-146 -188.5z" />
    <glyph glyph-name="uniFD17" unicode="&#xfeb4;&#xfef0;" horiz-adv-x="1697" arabic-form="final" 
d="M764 393q56 0 84 -32t53 -99q24 -62 66.5 -98t85.5 -36q49 0 82 28q37 38 49 154l64 36l8 -4q-8 -112 -8 -123q0 -91 67 -91q35 0 66 22q33 24 43 96q0 1 2.5 27t3.5 52l69 51l4 -3q-6 -54 -6 -89q0 -82 44.5 -119t139.5 -37h22l21 -128h-25q-164 0 -221 94h-6
q-66 -94 -156 -94q-91 0 -123 83h-4q-29 -42 -58.5 -62.5t-80.5 -20.5q-67 0 -122 57.5t-67 130.5q-6 31 -38.5 52.5t-70.5 21.5q-64 0 -120.5 -46.5t-56.5 -94.5q0 -58 178 -89q70 -12 104.5 -28.5t52.5 -49.5q24 -48 24 -77q0 -31 -17 -93q-23 -49 -120 -106
q-144 -82 -282 -82q-173 0 -286.5 116.5t-113.5 316.5q0 100 28 197l45 -19q-18 -57 -18 -120q0 -160 98 -261t246 -101q91 0 189 39q128 53 168 109q-3 18 -139 43q-102 13 -161 55t-59 130q0 45 16.5 99t46.5 91q82 102 189 102z" />
    <glyph glyph-name="uniFD18" unicode="&#xfeb4;&#xfef2;" horiz-adv-x="1697" arabic-form="final" 
d="M791 -573q-34 -62 -63 -92q-76 63 -133 104q33 57 64 95q51 -35 132 -107zM599 -586q-35 -64 -61 -92q-53 44 -133 104q28 50 64 95q65 -46 130 -107zM764 393q56 0 84 -32t53 -99q24 -62 66.5 -98t85.5 -36q49 0 82 28q37 38 49 154l64 36l8 -4q-8 -112 -8 -123
q0 -91 67 -91q35 0 66 22q33 24 43 96q0 1 2.5 27t3.5 52l69 51l4 -3q-6 -54 -6 -89q0 -82 44.5 -119t139.5 -37h22l21 -128h-25q-164 0 -221 94h-6q-66 -94 -156 -94q-91 0 -123 83h-4q-29 -42 -58.5 -62.5t-80.5 -20.5q-67 0 -122 57.5t-67 130.5q-6 31 -38.5 52.5
t-70.5 21.5q-64 0 -120.5 -46.5t-56.5 -94.5q0 -58 178 -89q70 -12 104.5 -28.5t52.5 -49.5q24 -48 24 -77q0 -31 -17 -93q-23 -49 -120 -106q-144 -82 -282 -82q-173 0 -286.5 116.5t-113.5 316.5q0 100 28 197l45 -19q-18 -57 -18 -120q0 -160 98 -261t246 -101
q91 0 189 39q128 53 168 109q-3 18 -139 43q-102 13 -161 55t-59 130q0 45 16.5 99t46.5 91q82 102 189 102z" />
    <glyph glyph-name="uniFD19" unicode="&#xfeb8;&#xfef0;" horiz-adv-x="1697" arabic-form="final" 
d="M1191 802q-32 -60 -61 -92q-67 56 -133 104q28 50 64 95q60 -42 130 -107zM1172 589q-34 -62 -63 -92q-76 63 -133 104q33 57 64 95q52 -35 132 -107zM1362 602q-34 -61 -61 -92q-59 49 -134 104q24 42 64 95q64 -45 131 -107zM764 393q56 0 84 -32t53 -99
q24 -62 66.5 -98t85.5 -36q49 0 82 28q37 38 49 154l64 36l8 -4q-8 -112 -8 -123q0 -91 67 -91q35 0 66 22q33 24 43 96q0 1 2.5 27t3.5 52l69 51l4 -3q-6 -54 -6 -89q0 -82 44.5 -119t139.5 -37h22l21 -128h-25q-164 0 -221 94h-6q-66 -94 -156 -94q-91 0 -123 83h-4
q-29 -42 -58.5 -62.5t-80.5 -20.5q-67 0 -122 57.5t-67 130.5q-6 31 -38.5 52.5t-70.5 21.5q-64 0 -120.5 -46.5t-56.5 -94.5q0 -58 178 -89q70 -12 104.5 -28.5t52.5 -49.5q24 -48 24 -77q0 -31 -17 -93q-23 -49 -120 -106q-144 -82 -282 -82q-173 0 -286.5 116.5
t-113.5 316.5q0 100 28 197l45 -19q-18 -57 -18 -120q0 -160 98 -261t246 -101q91 0 189 39q128 53 168 109q-3 18 -139 43q-102 13 -161 55t-59 130q0 45 16.5 99t46.5 91q82 102 189 102z" />
    <glyph glyph-name="uniFD1A" unicode="&#xfeb8;&#xfef2;" horiz-adv-x="1697" arabic-form="final" 
d="M791 -573q-34 -62 -63 -92q-76 63 -133 104q33 57 64 95q51 -35 132 -107zM599 -586q-35 -64 -61 -92q-53 44 -133 104q28 50 64 95q65 -46 130 -107zM1191 802q-32 -60 -61 -92q-67 56 -133 104q28 50 64 95q60 -42 130 -107zM1172 589q-34 -62 -63 -92q-76 63 -133 104
q33 57 64 95q52 -35 132 -107zM1362 602q-34 -61 -61 -92q-59 49 -134 104q24 42 64 95q64 -45 131 -107zM764 393q56 0 84 -32t53 -99q24 -62 66.5 -98t85.5 -36q49 0 82 28q37 38 49 154l64 36l8 -4q-8 -112 -8 -123q0 -91 67 -91q35 0 66 22q33 24 43 96q0 1 2.5 27
t3.5 52l69 51l4 -3q-6 -54 -6 -89q0 -82 44.5 -119t139.5 -37h22l21 -128h-25q-164 0 -221 94h-6q-66 -94 -156 -94q-91 0 -123 83h-4q-29 -42 -58.5 -62.5t-80.5 -20.5q-67 0 -122 57.5t-67 130.5q-6 31 -38.5 52.5t-70.5 21.5q-64 0 -120.5 -46.5t-56.5 -94.5
q0 -58 178 -89q70 -12 104.5 -28.5t52.5 -49.5q24 -48 24 -77q0 -31 -17 -93q-23 -49 -120 -106q-144 -82 -282 -82q-173 0 -286.5 116.5t-113.5 316.5q0 100 28 197l45 -19q-18 -57 -18 -120q0 -160 98 -261t246 -101q91 0 189 39q128 53 168 109q-3 18 -139 43
q-102 13 -161 55t-59 130q0 45 16.5 99t46.5 91q82 102 189 102z" />
    <glyph glyph-name="uniFD21" unicode="&#xfebc;&#xfef0;" horiz-adv-x="1762" arabic-form="final" 
d="M515 -404q-173 0 -286.5 116.5t-113.5 316.5q0 100 28 197l45 -19q-18 -57 -18 -120q0 -160 98 -261t246 -101q91 0 189 39q128 53 168 109q-3 20 -139 43q-104 15 -162 56.5t-58 128.5q0 45 16.5 99t46.5 91q83 103 189 103q38 0 67.5 -20t45.5 -51q27 -50 67 -88.5
t82 -60.5q29 58 46 89t49.5 77.5t67.5 82.5q101 103 208 103q114 0 188.5 -78t74.5 -182q0 -68 -25 -138h133l21 -128h-26q-152 0 -305 35q-107 -35 -227 -35q-101 0 -173 26l-38 -106l-14 3q-2 18 -4 54q-2 30 -2 45q0 5 0.5 15.5t0.5 15.5q-28 11 -68 49.5t-65 87.5
q-42 72 -117 72q-64 0 -120 -47t-56 -94q0 -58 178 -89q70 -12 104.5 -28.5t52.5 -49.5q24 -48 24 -77q0 -31 -17 -93q-23 -49 -120 -106q-144 -82 -282 -82zM1084 151q71 -23 184 -23q71 0 141.5 13.5t110.5 31.5q71 31 71 71q0 39 -62 96t-148 57q-85 0 -157 -63
t-140 -183z" />
    <glyph glyph-name="uniFD22" unicode="&#xfebc;&#xfef2;" horiz-adv-x="1762" arabic-form="final" 
d="M791 -573q-34 -62 -63 -92q-76 63 -133 104q33 57 64 95q51 -35 132 -107zM599 -586q-35 -64 -61 -92q-53 44 -133 104q28 50 64 95q65 -46 130 -107zM515 -404q-173 0 -286.5 116.5t-113.5 316.5q0 100 28 197l45 -19q-18 -57 -18 -120q0 -160 98 -261t246 -101
q91 0 189 39q128 53 168 109q-3 20 -139 43q-104 15 -162 56.5t-58 128.5q0 45 16.5 99t46.5 91q83 103 189 103q38 0 67.5 -20t45.5 -51q27 -50 67 -88.5t82 -60.5q29 58 46 89t49.5 77.5t67.5 82.5q101 103 208 103q114 0 188.5 -78t74.5 -182q0 -68 -25 -138h133l21 -128
h-26q-152 0 -305 35q-107 -35 -227 -35q-101 0 -173 26l-38 -106l-14 3q-2 18 -4 54q-2 30 -2 45q0 5 0.5 15.5t0.5 15.5q-28 11 -68 49.5t-65 87.5q-42 72 -117 72q-64 0 -120 -47t-56 -94q0 -58 178 -89q70 -12 104.5 -28.5t52.5 -49.5q24 -48 24 -77q0 -31 -17 -93
q-23 -49 -120 -106q-144 -82 -282 -82zM1084 151q71 -23 184 -23q71 0 141.5 13.5t110.5 31.5q71 31 71 71q0 39 -62 96t-148 57q-85 0 -157 -63t-140 -183z" />
    <glyph glyph-name="uniFD23" unicode="&#xfec0;&#xfef0;" horiz-adv-x="1762" arabic-form="final" 
d="M1050 769q39 67 65 102q69 -46 136 -107q-24 -55 -66 -98q-15 12 -135 103zM515 -404q-173 0 -286.5 116.5t-113.5 316.5q0 100 28 197l45 -19q-18 -57 -18 -120q0 -160 98 -261t246 -101q91 0 189 39q128 53 168 109q-3 20 -139 43q-104 15 -162 56.5t-58 128.5
q0 45 16.5 99t46.5 91q83 103 189 103q38 0 67.5 -20t45.5 -51q27 -50 67 -88.5t82 -60.5q29 58 46 89t49.5 77.5t67.5 82.5q101 103 208 103q114 0 188.5 -78t74.5 -182q0 -68 -25 -138h133l21 -128h-26q-152 0 -305 35q-107 -35 -227 -35q-101 0 -173 26l-38 -106l-14 3
q-2 18 -4 54q-2 30 -2 45q0 5 0.5 15.5t0.5 15.5q-28 11 -68 49.5t-65 87.5q-42 72 -117 72q-64 0 -120 -47t-56 -94q0 -58 178 -89q70 -12 104.5 -28.5t52.5 -49.5q24 -48 24 -77q0 -31 -17 -93q-23 -49 -120 -106q-144 -82 -282 -82zM1084 151q71 -23 184 -23
q71 0 141.5 13.5t110.5 31.5q71 31 71 71q0 39 -62 96t-148 57q-85 0 -157 -63t-140 -183z" />
    <glyph glyph-name="uniFD24" unicode="&#xfec0;&#xfef2;" horiz-adv-x="1762" arabic-form="final" 
d="M791 -573q-34 -62 -63 -92q-76 63 -133 104q33 57 64 95q51 -35 132 -107zM599 -586q-35 -64 -61 -92q-53 44 -133 104q28 50 64 95q65 -46 130 -107zM1060 769q39 67 65 102q69 -46 136 -107q-24 -55 -66 -98q-15 12 -135 103zM515 -404q-173 0 -286.5 116.5
t-113.5 316.5q0 100 28 197l45 -19q-18 -57 -18 -120q0 -160 98 -261t246 -101q91 0 189 39q128 53 168 109q-3 20 -139 43q-104 15 -162 56.5t-58 128.5q0 45 16.5 99t46.5 91q83 103 189 103q38 0 67.5 -20t45.5 -51q27 -50 67 -88.5t82 -60.5q29 58 46 89t49.5 77.5
t67.5 82.5q101 103 208 103q114 0 188.5 -78t74.5 -182q0 -68 -25 -138h133l21 -128h-26q-152 0 -305 35q-107 -35 -227 -35q-101 0 -173 26l-38 -106l-14 3q-2 18 -4 54q-2 30 -2 45q0 5 0.5 15.5t0.5 15.5q-28 11 -68 49.5t-65 87.5q-42 72 -117 72q-64 0 -120 -47
t-56 -94q0 -58 178 -89q70 -12 104.5 -28.5t52.5 -49.5q24 -48 24 -77q0 -31 -17 -93q-23 -49 -120 -106q-144 -82 -282 -82zM1084 151q71 -23 184 -23q71 0 141.5 13.5t110.5 31.5q71 31 71 71q0 39 -62 96t-148 57q-85 0 -157 -63t-140 -183z" />
    <glyph glyph-name="uniFD29" unicode="&#xfeb8;&#xfeae;" horiz-adv-x="1601" arabic-form="final" 
d="M1101 802q-32 -60 -61 -92q-67 56 -133 104q28 50 64 95q60 -42 130 -107zM1082 589q-34 -62 -63 -92q-76 63 -133 104q33 57 64 95q52 -35 132 -107zM1272 602q-34 -61 -61 -92q-59 49 -134 104q24 42 64 95q64 -45 131 -107zM448 209q170 76 353 118l4 -7
q-2 -11 -2 -28q0 -65 47.5 -114.5t105.5 -49.5q49 0 79 26q38 30 55 153l63 35l4 -4q-1 -26 -3.5 -65t-2.5 -53q0 -37 15 -64.5t53 -27.5q35 0 66 22q33 24 43 96q0 1 2.5 27t3.5 52l69 51l4 -3q-6 -54 -6 -89q0 -82 44.5 -119t139.5 -37h22l21 -128h-25q-164 0 -221 94h-6
q-66 -94 -156 -94q-88 0 -122 83h-5q-48 -83 -136 -83q-72 0 -126.5 52.5t-68.5 138.5q-165 -55 -218 -84q20 -41 24 -74q1 -10 7 -49.5t8.5 -65t2.5 -49.5q0 -80 -51 -151q-90 -123 -203 -123q-101 0 -254 97l10 28q62 -26 129 -26q134 0 237 113q76 83 76 146
q0 21 -15.5 46t-29 39.5t-49.5 49.5q0 55 12 121z" />
    <glyph glyph-name="uniFD2A" unicode="&#xfeb4;&#xfeae;" horiz-adv-x="1601" arabic-form="final" 
d="M448 209q170 76 353 118l4 -7q-2 -11 -2 -28q0 -65 47.5 -114.5t105.5 -49.5q49 0 79 26q38 30 55 153l63 35l4 -4q-1 -26 -3.5 -65t-2.5 -53q0 -37 15 -64.5t53 -27.5q35 0 66 22q33 24 43 96q0 1 2.5 27t3.5 52l69 51l4 -3q-6 -54 -6 -89q0 -82 44.5 -119t139.5 -37h22
l21 -128h-25q-164 0 -221 94h-6q-66 -94 -156 -94q-88 0 -122 83h-5q-48 -83 -136 -83q-72 0 -126.5 52.5t-68.5 138.5q-165 -55 -218 -84q20 -41 24 -74q1 -10 7 -49.5t8.5 -65t2.5 -49.5q0 -80 -51 -151q-90 -123 -203 -123q-101 0 -254 97l10 28q62 -26 129 -26
q134 0 237 113q76 83 76 146q0 21 -15.5 46t-29 39.5t-49.5 49.5q0 55 12 121z" />
    <glyph glyph-name="uniFD2B" unicode="&#xfebc;&#xfeae;" horiz-adv-x="1689" arabic-form="final" 
d="M553 124q20 -41 24 -73q2 -17 7 -49.5t8 -59.5t3 -52q0 -85 -58 -170q-99 -122 -204 -122q-102 0 -255 97l11 28q62 -26 127 -26q126 0 240 111q80 100 80 168q0 19 -12.5 40.5t-25.5 35.5t-41 42l-12 12q2 65 12 121q155 69 341 134q36 -134 153 -187q42 82 78 139.5
t87 109.5q101 103 208 103q114 0 188.5 -78t74.5 -182q0 -68 -25 -138h133l21 -128h-26q-152 0 -305 35q-107 -35 -224 -35q-121 0 -196 33q-33 -59 -63 -136l-23 12q10 96 24 156q-94 63 -118 153q-149 -50 -232 -94zM1009 149q65 -21 182 -21q72 0 144 13.5t112 31.5
q71 31 71 71t-62.5 96.5t-147.5 56.5q-158 0 -299 -248z" />
    <glyph glyph-name="uniFD2C" unicode="&#xfec0;&#xfeae;" horiz-adv-x="1689" arabic-form="final" 
d="M990 769q39 67 65 102q69 -46 136 -107q-24 -55 -66 -98q-15 12 -135 103zM553 124q20 -41 24 -73q2 -17 7 -49.5t8 -59.5t3 -52q0 -85 -58 -170q-99 -122 -204 -122q-102 0 -255 97l11 28q62 -26 127 -26q126 0 240 111q80 100 80 168q0 19 -12.5 40.5t-25.5 35.5
t-41 42l-12 12q2 65 12 121q155 69 341 134q36 -134 153 -187q42 82 78 139.5t87 109.5q101 103 208 103q114 0 188.5 -78t74.5 -182q0 -68 -25 -138h133l21 -128h-26q-152 0 -305 35q-107 -35 -224 -35q-121 0 -196 33q-33 -59 -63 -136l-23 12q10 96 24 156
q-94 63 -118 153q-149 -50 -232 -94zM1009 149q65 -21 182 -21q72 0 144 13.5t112 31.5q71 31 71 71t-62.5 96.5t-147.5 56.5q-158 0 -299 -248z" />
    <glyph glyph-name="uniFEF5" unicode="&#xfedf;&#xfe82;" horiz-adv-x="905" arabic-form="isolated" 
d="M619 1029l8 -5q0 -9 1 -14v-7q10 -68 113 -203q-30 -32 -53 -49q6 -33 21 -114t24.5 -131.5t17.5 -111t8 -92.5q0 -49 -9 -105q-22 -117 -84 -169q-46 -38 -112 -61.5t-127 -23.5q-102 0 -253 46l-1 11q291 40 427 130q-7 27 -42.5 74.5t-103.5 129.5q-30 38 -268 320
q-127 151 -127 190q0 32 30 92l5 1q46 -52 190 -175l-23 -57q33 -42 104 -130t115 -144.5t78 -103.5q54 -75 70 -174l8 -1q54 45 54 131q0 25 -5 62t-16 88t-20 89t-25 104t-22 93q-42 164 -43 195v9q0 23 11 42q11 20 49 64zM309 1149l6 -5q-14 -67 -18 -75
q-48 -48 -130 -48q-33 0 -99.5 8.5t-89.5 8.5q-9 0 -17 -15t-21 -49q-3 -9 -5 -13h-7l-43 61q-2 8 -2 25q0 86 75 86q33 0 105.5 -15t111.5 -15q50 0 83 14q27 11 51 32z" />
    <glyph glyph-name="uniFEF6" unicode="&#xfee0;&#xfe82;" horiz-adv-x="923" arabic-form="final" 
d="M308 1159l5 -5q-15 -70 -17 -75q-50 -48 -131 -48q-33 0 -99 8.5t-89 8.5q-15 0 -43 -77h-7l-44 61q-2 16 -2 25q0 37 17.5 61.5t58.5 24.5q33 0 105 -15t111 -15q50 0 83 14q26 11 52 32zM613 1032l9 -3q55 -287 102 -586q26 -161 61 -223q21 -38 59 -65t77 -27h8
l21 -128h-19q-36 0 -74.5 16.5t-74.5 49t-64 87t-39 123.5l-7 1q-19 -178 -176 -258q-99 -40 -198 -40l-111 10l-5 7q210 84 351 187q-44 136 -365 489q-17 19 -47 52t-44 48.5t-26 36.5t-12 37q0 32 13 82h4q67 -59 211 -142l-25 -59q111 -125 199 -242q100 -136 112 -214
q1 -11 3 -31.5t4 -31.5l3 -1q37 43 58 86q18 39 18 89q0 56 -26 217q-2 13 -68 348q34 54 68 85z" />
    <glyph glyph-name="uniFEF7" unicode="&#xfedf;&#xfe84;" horiz-adv-x="813" arabic-form="isolated" 
d="M527 1029l8 -5q0 -9 1 -14v-7q10 -68 113 -203q-30 -32 -53 -49q6 -33 21 -114t24.5 -131.5t17.5 -111t8 -92.5q0 -49 -9 -105q-22 -117 -84 -169q-46 -38 -112 -61.5t-127 -23.5q-102 0 -253 46l-1 11q291 40 427 130q-7 27 -42.5 74.5t-103.5 129.5q-30 38 -268 320
q-127 151 -127 190q0 32 30 92l5 1q46 -52 190 -175l-23 -57q33 -42 104 -130t115 -144.5t78 -103.5q54 -75 70 -174l8 -1q54 45 54 131q0 25 -5 62t-16 88t-20 89t-25 104t-22 93q-42 164 -43 195v9q0 23 11 42q11 20 49 64zM181 1116v-3q-10 -35 -28 -68
q-141 -23 -246 -75l-2 3l17 42q15 24 41 33l-1 3q-41 12 -66.5 37t-25.5 60q0 41 33 78q52 57 110 57q32 0 52 -17t20 -40q0 -27 -23 -57h-2q-18 27 -29 34.5t-35 7.5q-29 0 -48.5 -11t-19.5 -23q0 -27 44.5 -46t106.5 -19q34 0 102 4z" />
    <glyph glyph-name="uniFEF8" unicode="&#xfee0;&#xfe84;" horiz-adv-x="855" arabic-form="final" 
d="M545 1032l9 -3q55 -287 102 -586q26 -161 61 -223q21 -38 59 -65t77 -27h8l21 -128h-19q-36 0 -74.5 16.5t-74.5 49t-64 87t-39 123.5l-7 1q-19 -178 -176 -258q-99 -40 -198 -40l-111 10l-5 7q210 84 351 187q-44 136 -365 489q-15 18 -38.5 43t-36.5 39.5t-27 32
t-20 32t-6 27.5q0 32 13 82h4q66 -58 210 -142l-25 -59q111 -125 199 -242q100 -136 112 -214q1 -11 3 -31.5t4 -31.5l3 -1q37 43 58 86q18 39 18 89q0 56 -26 217q-2 13 -68 348q34 54 68 85zM177 1119v-3q-10 -35 -28 -68q-141 -23 -246 -75l-2 3l17 42q15 24 41 33l-1 3
q-41 12 -66.5 37t-25.5 60q0 41 33 78q52 57 110 57q32 0 52 -17t20 -40q0 -27 -23 -57h-2q-18 27 -29 34.5t-35 7.5q-29 0 -48.5 -11t-19.5 -23q0 -27 44.5 -46t106.5 -19q34 0 102 4z" />
    <glyph glyph-name="uniFEF9" unicode="&#xfedf;&#xfe88;" horiz-adv-x="813" arabic-form="isolated" 
d="M527 1029l8 -5q0 -9 1 -14v-7q10 -68 113 -203q-30 -32 -53 -49q6 -33 21 -114t24.5 -131.5t17.5 -111t8 -92.5q0 -49 -9 -105q-22 -117 -84 -169q-46 -38 -112 -61.5t-127 -23.5q-102 0 -253 46l-1 11q291 40 427 130q-7 27 -42.5 74.5t-103.5 129.5q-30 38 -268 320
q-127 151 -127 190q0 32 30 92l5 1q46 -52 190 -175l-23 -57q33 -42 104 -130t115 -144.5t78 -103.5q54 -75 70 -174l8 -1q54 45 54 131q0 25 -5 62t-16 88t-20 89t-25 104t-22 93q-42 164 -43 195v9q0 23 11 42q11 20 49 64zM462 -291v-3q-10 -35 -28 -68
q-141 -23 -246 -75l-2 3l17 42q15 24 41 33l-1 3q-41 12 -66.5 37t-25.5 60q0 41 33 78q52 57 110 57q32 0 52 -17t20 -40q0 -27 -23 -57h-2q-18 27 -29 34.5t-35 7.5q-29 0 -48.5 -11t-19.5 -23q0 -27 44.5 -46t106.5 -19q34 0 102 4z" />
    <glyph glyph-name="uniFEFA" unicode="&#xfee0;&#xfe88;" horiz-adv-x="849" arabic-form="final" 
d="M539 1032l9 -3q55 -287 102 -586q26 -161 61 -223q21 -38 59 -65t77 -27h8l21 -128h-19q-36 0 -74.5 16.5t-74.5 49t-64 87t-39 123.5l-7 1q-19 -178 -176 -258q-99 -40 -198 -40l-111 10l-5 7q210 84 351 187q-44 136 -365 489q-15 18 -38.5 43t-36.5 39.5t-27 32
t-20 32t-6 27.5q0 32 13 82h4q66 -58 210 -142l-25 -59q111 -125 199 -242q100 -136 112 -214q1 -11 3 -31.5t4 -31.5l3 -1q37 43 58 86q18 39 18 89q0 56 -26 217q-2 13 -68 348q34 54 68 85zM504 -246v-3q-10 -35 -28 -68q-141 -23 -246 -75l-2 3l17 42q15 24 41 33l-1 3
q-41 12 -66.5 37t-25.5 60q0 41 33 78q52 57 110 57q32 0 52 -17t20 -40q0 -27 -23 -57h-2q-18 27 -29 34.5t-35 7.5q-29 0 -48.5 -11t-19.5 -23q0 -27 44.5 -46t106.5 -19q34 0 102 4z" />
    <glyph glyph-name="uniFEFB" unicode="&#xfedf;&#xfe8e;" horiz-adv-x="813" arabic-form="isolated" 
d="M527 1029l8 -5q0 -9 1 -14v-7q10 -68 113 -203q-30 -32 -53 -49q6 -33 21 -114t24.5 -131.5t17.5 -111t8 -92.5q0 -49 -9 -105q-22 -117 -84 -169q-46 -38 -112 -61.5t-127 -23.5q-102 0 -253 46l-1 11q291 40 427 130q-7 27 -42.5 74.5t-103.5 129.5q-30 38 -268 320
q-127 151 -127 190q0 32 30 92l5 1q46 -52 190 -175l-23 -57q33 -42 104 -130t115 -144.5t78 -103.5q54 -75 70 -174l8 -1q54 45 54 131q0 25 -5 62t-16 88t-20 89t-25 104t-22 93q-42 164 -43 195v9q0 23 11 42q11 20 49 64z" />
    <glyph glyph-name="uniFEFC" unicode="&#xfee0;&#xfe8e;" horiz-adv-x="849" arabic-form="final" 
d="M539 1032l9 -3q55 -287 102 -586q26 -161 61 -223q21 -38 59 -65t77 -27h8l21 -128h-19q-36 0 -74.5 16.5t-74.5 49t-64 87t-39 123.5l-7 1q-19 -178 -176 -258q-99 -40 -198 -40l-111 10l-5 7q210 84 351 187q-44 136 -365 489q-15 18 -38.5 43t-36.5 39.5t-27 32
t-20 32t-6 27.5q0 32 13 82h4q66 -58 210 -142l-25 -59q111 -125 199 -242q100 -136 112 -214q1 -11 3 -31.5t4 -31.5l3 -1q37 43 58 86q18 39 18 89q0 56 -26 217q-2 13 -68 348q34 54 68 85z" />
    <glyph glyph-name="uni06260645.init" unicode="&#xfe8b;&#xfee4;" horiz-adv-x="811" 
d="M7 128h9q72 0 125 18.5t104 69.5v5q0 162 91 260q90 95 197 95q72 0 112 -39t40 -102q0 -32 -7 -60l-7 -1q-51 75 -136 75q-65 0 -128 -39q-85 -65 -94 -150l3 -3q50 24 98 24q81 0 139 -53q70 -67 70 -169q0 -35 -10 -64q-38 -98 -125 -98q-78 0 -150 70q-62 60 -73 128
h-5q-79 -95 -223 -95h-10q-43 0 -61.5 23.5t-18.5 49.5q0 55 60 55zM632 789v-3q-10 -35 -28 -68q-141 -23 -246 -75l-2 3l17 42q15 24 41 33l-1 3q-41 12 -66.5 37t-25.5 60q0 41 33 78q52 57 110 57q32 0 52 -17t20 -40q0 -27 -23 -57h-2q-18 27 -29 34.5t-35 7.5
q-29 0 -48.5 -11t-19.5 -23q0 -27 44.5 -46t106.5 -19q34 0 102 4zM328 148q22 -57 74 -96.5t105 -39.5q51 0 59 28q-8 53 -56 90t-109 37q-42 0 -73 -19z" />
    <glyph glyph-name="uni06260649" unicode="&#xfe8b;&#xfef0;" horiz-adv-x="999" 
d="M657 653h7q54 -84 79 -127t46.5 -100.5t21.5 -106.5q0 -59 -31 -126q105 -24 137 -71q28 -41 28 -105q0 -48 -22 -107q-174 -202 -415 -202q-94 0 -172.5 37.5t-129.5 100.5t-79.5 144.5t-28.5 169.5q0 105 32 224l42 -15q-17 -83 -17 -145q0 -95 41 -180.5t119 -140.5
t175 -55q167 0 282 75q88 60 110 99q-4 27 -104.5 50.5t-223.5 32.5l-7 9l31 104q136 21 168 73q-40 98 -145 251q25 57 56 111zM738 849v-3q-10 -35 -28 -68q-141 -23 -246 -75l-2 3l17 42q15 24 41 33l-1 3q-41 12 -66.5 37t-25.5 60q0 41 33 78q52 57 110 57q32 0 52 -17
t20 -40q0 -27 -23 -57h-2q-18 27 -29 34.5t-35 7.5q-29 0 -48.5 -11t-19.5 -23q0 -27 44.5 -46t106.5 -19q34 0 102 4z" />
    <glyph glyph-name="uni0626064A" unicode="&#xfe8b;&#xfef2;" horiz-adv-x="999" 
d="M783 -493q-32 -60 -61 -92q-67 56 -133 104q28 50 64 95q65 -46 130 -107zM593 -506q-34 -61 -62 -92q-70 58 -134 104q35 57 64 95q58 -40 132 -107zM738 849v-3q-10 -35 -28 -68q-141 -23 -246 -75l-2 3l17 42q15 24 41 33l-1 3q-41 12 -66.5 37t-25.5 60q0 41 33 78
q52 57 110 57q32 0 52 -17t20 -40q0 -27 -23 -57h-2q-18 27 -29 34.5t-35 7.5q-29 0 -48.5 -11t-19.5 -23q0 -27 44.5 -46t106.5 -19q34 0 102 4zM657 653h7q54 -84 79 -127t46.5 -100.5t21.5 -106.5q0 -59 -31 -126q105 -24 137 -71q28 -41 28 -105q0 -48 -22 -107
q-174 -202 -415 -202q-94 0 -172.5 37.5t-129.5 100.5t-79.5 144.5t-28.5 169.5q0 105 32 224l42 -15q-17 -83 -17 -145q0 -95 41 -180.5t119 -140.5t175 -55q167 0 282 75q88 60 110 99q-4 27 -104.5 50.5t-223.5 32.5l-7 9l31 104q136 21 168 73q-40 98 -145 251
q25 57 56 111z" />
    <glyph glyph-name="uni06280645.init" unicode="&#xfe91;&#xfee4;" horiz-adv-x="810" 
d="M7 128h9q72 0 125 18.5t104 69.5v5q0 162 91 260q90 95 197 95q72 0 112 -39t40 -102q0 -32 -7 -60l-7 -1q-51 75 -136 75q-65 0 -128 -39q-85 -65 -94 -150l3 -3q50 24 98 24q81 0 139 -53q70 -67 70 -169q0 -35 -10 -64q-38 -98 -125 -98q-78 0 -150 70q-62 60 -73 128
h-5q-79 -95 -223 -95h-10q-43 0 -61.5 23.5t-18.5 49.5q0 55 60 55zM328 148q22 -57 74 -96.5t105 -39.5q51 0 59 28q-8 53 -56 90t-109 37q-42 0 -73 -19zM573 -331q45 74 66 102q69 -46 136 -107q-25 -57 -68 -98q-48 39 -134 103z" />
    <glyph glyph-name="uni06280646.fina" unicode="&#xfe92;&#xfee6;" horiz-adv-x="1120" 
d="M235 640q36 61 66 102q63 -42 136 -107q-25 -57 -68 -98q-48 39 -134 103zM893 -301q25 44 65 102q57 -36 138 -107q-30 -60 -68 -98q-39 32 -135 103zM853 489h10q3 -9 10 -28.5t19 -54.5t24 -71q49 -144 112 -180q56 -27 84 -27h14l21 -128h-16q-88 0 -142 51t-104 174
l-43 103h-5q-33 -101 -124 -104q28 -51 47 -126t19 -140q0 -44 -10 -84q-30 -59 -89 -107q-97 -68 -212 -68q-111 0 -193 55t-122.5 144.5t-40.5 200.5q0 81 19 152l37 -13q-7 -65 -7 -94q0 -130 80.5 -220t198.5 -90q117 0 195 56q86 60 86 113q0 39 -37 111
q-15 30 -43 62.5t-49.5 52.5t-60.5 55l15 130l10 1q50 -41 84 -64q33 -21 84 -21q41 0 66 24q13 11 22.5 31.5t21 53t19.5 50.5z" />
    <glyph glyph-name="uni06280649" unicode="&#xfe91;&#xfef0;" horiz-adv-x="999" 
d="M775 -431q39 67 65 102q69 -46 136 -107q-26 -58 -67 -98q-21 17 -134 103zM657 653h7q54 -84 79 -127t46.5 -100.5t21.5 -106.5q0 -59 -31 -126q105 -24 137 -71q28 -41 28 -105q0 -48 -22 -107q-174 -202 -415 -202q-94 0 -172.5 37.5t-129.5 100.5t-79.5 144.5
t-28.5 169.5q0 105 32 224l42 -15q-17 -83 -17 -145q0 -95 41 -180.5t119 -140.5t175 -55q167 0 282 75q88 60 110 99q-4 27 -104.5 50.5t-223.5 32.5l-7 9l31 104q136 21 168 73q-40 98 -145 251q25 57 56 111z" />
    <glyph glyph-name="uni0628064A" unicode="&#xfe91;&#xfef2;" horiz-adv-x="1011" 
d="M735 -503q-30 -57 -61 -92q-70 58 -134 104q24 42 64 95q64 -45 131 -107zM545 -516q-34 -62 -63 -92q-76 63 -133 104q33 57 64 95q51 -35 132 -107zM837 -381q46 75 65 102q69 -45 137 -107q-24 -54 -68 -98q-26 22 -134 103zM657 653h7q54 -84 79 -127t46.5 -100.5
t21.5 -106.5q0 -59 -31 -126q105 -24 137 -71q28 -41 28 -105q0 -48 -22 -107q-174 -202 -415 -202q-94 0 -172.5 37.5t-129.5 100.5t-79.5 144.5t-28.5 169.5q0 105 32 224l42 -15q-17 -83 -17 -145q0 -95 41 -180.5t119 -140.5t175 -55q167 0 282 75q88 60 110 99
q-4 27 -104.5 50.5t-223.5 32.5l-7 9l31 104q136 21 168 73q-40 98 -145 251q25 57 56 111z" />
    <glyph glyph-name="uni062A0645.init" unicode="&#xfe97;&#xfee4;" horiz-adv-x="820" 
d="M7 128h9q72 0 125 18.5t104 69.5v5q0 162 91 260q90 95 197 95q72 0 112 -39t40 -102q0 -32 -7 -60l-7 -1q-51 75 -136 75q-65 0 -128 -39q-85 -65 -94 -150l3 -3q50 24 98 24q81 0 139 -53q70 -67 70 -169q0 -35 -10 -64q-38 -98 -125 -98q-78 0 -150 70q-62 60 -73 128
h-5q-79 -95 -223 -95h-10q-43 0 -61.5 23.5t-18.5 49.5q0 55 60 55zM328 148q22 -57 74 -96.5t105 -39.5q51 0 59 28q-8 53 -56 90t-109 37q-42 0 -73 -19zM455 759q-34 -61 -62 -92q-70 58 -134 104q33 57 64 95q58 -40 132 -107zM645 772q-32 -60 -61 -92q-70 58 -134 104
q28 49 64 95q64 -45 131 -107z" />
    <glyph glyph-name="uni062A0646.fina" unicode="&#xfe98;&#xfee6;" horiz-adv-x="1120" 
d="M235 640q36 61 66 102q63 -42 136 -107q-25 -57 -68 -98q-48 39 -134 103zM982 702q-34 -61 -62 -92q-83 67 -134 104q33 57 64 95q58 -40 132 -107zM790 689q-35 -64 -61 -92q-53 44 -133 104q28 50 64 95q64 -46 130 -107zM853 489h10q3 -9 10 -28.5t19 -54.5t24 -71
q49 -144 112 -180q56 -27 84 -27h14l21 -128h-16q-88 0 -142 51t-104 174l-43 103h-5q-33 -101 -124 -104q28 -51 47 -126t19 -140q0 -44 -10 -84q-30 -59 -89 -107q-97 -68 -212 -68q-111 0 -193 55t-122.5 144.5t-40.5 200.5q0 81 19 152l37 -13q-7 -65 -7 -94
q0 -130 80.5 -220t198.5 -90q117 0 195 56q86 60 86 113q0 39 -37 111q-15 30 -43 62.5t-49.5 52.5t-60.5 55l15 130l10 1q50 -41 84 -64q33 -21 84 -21q41 0 66 24q13 11 22.5 31.5t21 53t19.5 50.5z" />
    <glyph glyph-name="uni062A0649" unicode="&#xfe97;&#xfef0;" horiz-adv-x="1004" 
d="M760 842q-35 -64 -61 -92q-53 44 -133 104q31 56 64 95q64 -46 130 -107zM569 829q-32 -60 -61 -92q-70 58 -134 104q28 49 64 95q64 -45 131 -107zM657 653h7q54 -84 79 -127t46.5 -100.5t21.5 -106.5q0 -59 -31 -126q105 -24 137 -71q28 -41 28 -105q0 -48 -22 -107
q-174 -202 -415 -202q-94 0 -172.5 37.5t-129.5 100.5t-79.5 144.5t-28.5 169.5q0 105 32 224l42 -15q-17 -83 -17 -145q0 -95 41 -180.5t119 -140.5t175 -55q167 0 282 75q88 60 110 99q-4 27 -104.5 50.5t-223.5 32.5l-7 9l31 104q136 21 168 73q-40 98 -145 251
q25 57 56 111z" />
    <glyph glyph-name="uni062A064A" unicode="&#xfe97;&#xfef2;" horiz-adv-x="1004" 
d="M783 -493q-32 -60 -61 -92q-67 56 -133 104q28 50 64 95q65 -46 130 -107zM593 -506q-34 -61 -62 -92q-70 58 -134 104q35 57 64 95q58 -40 132 -107zM760 842q-35 -64 -61 -92q-53 44 -133 104q31 56 64 95q64 -46 130 -107zM569 829q-32 -60 -61 -92q-70 58 -134 104
q28 49 64 95q64 -45 131 -107zM657 653h7q54 -84 79 -127t46.5 -100.5t21.5 -106.5q0 -59 -31 -126q105 -24 137 -71q28 -41 28 -105q0 -48 -22 -107q-174 -202 -415 -202q-94 0 -172.5 37.5t-129.5 100.5t-79.5 144.5t-28.5 169.5q0 105 32 224l42 -15q-17 -83 -17 -145
q0 -95 41 -180.5t119 -140.5t175 -55q167 0 282 75q88 60 110 99q-4 27 -104.5 50.5t-223.5 32.5l-7 9l31 104q136 21 168 73q-40 98 -145 251q25 57 56 111z" />
    <glyph glyph-name="uni062B0631.fina" unicode="&#xfe9c;&#xfeae;" horiz-adv-x="910" 
d="M644 479h10q5 -15 53 -156q47 -136 112 -173q42 -22 84 -22h13l21 -128h-18q-89 0 -141.5 47t-102.5 169l-41 102h-5q-16 -48 -48 -77.5t-77 -29.5h-7q42 -110 42 -189q0 -64 -36 -135t-85.5 -111.5t-90.5 -40.5q-60 0 -121 19t-149 60l10 32q56 -25 99 -25
q152 0 249 142q60 82 60 130v11q-15 29 -44 62.5t-46 50t-62 57.5l12 128h9q65 -50 84 -63q36 -22 87 -22q37 0 66 27q13 11 22.5 31.5t21 53t19.5 50.5zM598 892q-34 -61 -62 -92q-70 58 -134 104q30 52 65 95q58 -40 131 -107zM577 679q-34 -61 -61 -92q-59 49 -134 104
q24 42 64 95q64 -45 131 -107zM768 692q-35 -64 -62 -92q-63 52 -132 104q31 56 64 95q58 -41 130 -107z" />
    <glyph glyph-name="uni062B0645.init" unicode="&#xfe9b;&#xfee4;" horiz-adv-x="820" 
d="M7 128h9q72 0 125 18.5t104 69.5v5q0 162 91 260q90 95 197 95q72 0 112 -39t40 -102q0 -32 -7 -60l-7 -1q-51 75 -136 75q-65 0 -128 -39q-85 -65 -94 -150l3 -3q50 24 98 24q81 0 139 -53q70 -67 70 -169q0 -35 -10 -64q-38 -98 -125 -98q-78 0 -150 70q-62 60 -73 128
h-5q-79 -95 -223 -95h-10q-43 0 -61.5 23.5t-18.5 49.5q0 55 60 55zM328 148q22 -57 74 -96.5t105 -39.5q51 0 59 28q-8 53 -56 90t-109 37q-42 0 -73 -19zM478 952q-30 -58 -62 -92q-76 63 -133 104q28 50 64 95q54 -37 131 -107zM648 752q-32 -60 -61 -92q-70 58 -134 104
q28 49 64 95q60 -41 131 -107zM458 739q-34 -61 -62 -92q-67 56 -133 104q28 50 64 95q58 -40 131 -107z" />
    <glyph glyph-name="uni062B0646.fina" unicode="&#xfe9c;&#xfee6;" horiz-adv-x="1120" 
d="M235 640q36 61 66 102q63 -42 136 -107q-25 -57 -68 -98q-48 39 -134 103zM790 689q-35 -64 -61 -92q-53 44 -133 104q28 50 64 95q64 -46 130 -107zM811 902q-35 -64 -62 -92q-67 56 -133 104q33 57 64 95q58 -40 131 -107zM982 702q-34 -61 -62 -92q-83 67 -134 104
q33 57 64 95q58 -40 132 -107zM853 489h10q3 -9 10 -28.5t19 -54.5t24 -71q49 -144 112 -180q56 -27 84 -27h14l21 -128h-16q-88 0 -142 51t-104 174l-43 103h-5q-33 -101 -124 -104q28 -51 47 -126t19 -140q0 -44 -10 -84q-30 -59 -89 -107q-97 -68 -212 -68
q-111 0 -193 55t-122.5 144.5t-40.5 200.5q0 81 19 152l37 -13q-7 -65 -7 -94q0 -130 80.5 -220t198.5 -90q117 0 195 56q86 60 86 113q0 39 -37 111q-15 30 -43 62.5t-49.5 52.5t-60.5 55l15 130l10 1q50 -41 84 -64q33 -21 84 -21q41 0 66 24q13 11 22.5 31.5t21 53
t19.5 50.5z" />
    <glyph glyph-name="uni062B0649" unicode="&#xfe9b;&#xfef0;" horiz-adv-x="1004" 
d="M571 819q-30 -58 -62 -92q-76 63 -133 104q28 50 64 95q54 -37 131 -107zM591 1032q-32 -60 -61 -92q-67 56 -133 104q28 50 64 95q65 -46 130 -107zM762 832q-34 -61 -61 -92q-59 49 -134 104q24 42 64 95q64 -45 131 -107zM657 653h7q54 -84 79 -127t46.5 -100.5
t21.5 -106.5q0 -59 -31 -126q105 -24 137 -71q28 -41 28 -105q0 -48 -22 -107q-174 -202 -415 -202q-94 0 -172.5 37.5t-129.5 100.5t-79.5 144.5t-28.5 169.5q0 105 32 224l42 -15q-17 -83 -17 -145q0 -95 41 -180.5t119 -140.5t175 -55q167 0 282 75q88 60 110 99
q-4 27 -104.5 50.5t-223.5 32.5l-7 9l31 104q136 21 168 73q-40 98 -145 251q25 57 56 111z" />
    <glyph glyph-name="uni062B064A" unicode="&#xfe9b;&#xfef2;" horiz-adv-x="1004" 
d="M783 -493q-32 -60 -61 -92q-67 56 -133 104q28 50 64 95q65 -46 130 -107zM593 -506q-34 -61 -62 -92q-70 58 -134 104q35 57 64 95q58 -40 132 -107zM571 819q-30 -58 -62 -92q-76 63 -133 104q28 50 64 95q54 -37 131 -107zM591 1032q-32 -60 -61 -92q-67 56 -133 104
q28 50 64 95q65 -46 130 -107zM762 832q-34 -61 -61 -92q-59 49 -134 104q24 42 64 95q64 -45 131 -107zM657 653h7q54 -84 79 -127t46.5 -100.5t21.5 -106.5q0 -59 -31 -126q105 -24 137 -71q28 -41 28 -105q0 -48 -22 -107q-174 -202 -415 -202q-94 0 -172.5 37.5
t-129.5 100.5t-79.5 144.5t-28.5 169.5q0 105 32 224l42 -15q-17 -83 -17 -145q0 -95 41 -180.5t119 -140.5t175 -55q167 0 282 75q88 60 110 99q-4 27 -104.5 50.5t-223.5 32.5l-7 9l31 104q136 21 168 73q-40 98 -145 251q25 57 56 111z" />
    <glyph glyph-name="uni06430649" unicode="&#xfedb;&#xfef0;" horiz-adv-x="1116" 
d="M832 244q0 30 -90 135q-124 135 -331 288q-51 36 -51 105q0 24 11 51q12 30 68 61q126 70 507 200l7 -8q-15 -41 -55 -123q-78 -21 -154 -49q-140 -52 -308 -131v-3l174 -61l-15 -51q112 -100 170 -162.5t90.5 -127t32.5 -133.5q0 -79 -53 -129v-4q131 -33 131 -167
q0 -47 -20 -100q-93 -107 -206.5 -155.5t-224.5 -48.5q-124 0 -219 63.5t-143.5 164t-48.5 219.5q0 106 33 229l41 -17q-18 -90 -18 -146q0 -146 97.5 -260.5t240.5 -114.5q153 0 281 74q111 65 131 102q-3 23 -118 47.5t-236 31.5l-9 10l29 104q115 17 185.5 47.5
t70.5 58.5z" />
    <glyph glyph-name="uni06430649.fina" unicode="&#xfedc;&#xfef0;" horiz-adv-x="1343" 
d="M883 261q-3 30 -82 121.5t-233 224.5q-49 41 -74 68q-17 45 -17 77q0 31 15 64q7 20 30 37q113 81 578 234l5 -6q-23 -65 -58 -123q-75 -19 -217 -74q-204 -81 -283 -127v-3q58 -34 166 -78l-21 -50q158 -125 430 -396q104 -102 210 -102h17l21 -128h-20q-84 0 -147.5 40
t-138.5 122q-80 88 -123 128l-4 -1q2 -30 2 -43q0 -106 -82 -153l1 -5q60 -18 84 -54.5t24 -100.5q0 -45 -20 -98q-93 -107 -206.5 -155.5t-224.5 -48.5q-124 0 -219 64t-143.5 165t-48.5 220q0 104 33 227l41 -17q-18 -90 -18 -146q0 -146 97.5 -260.5t240.5 -114.5
q153 0 281 74q112 66 131 100q-4 28 -105.5 51.5t-218.5 27.5l-8 10l28 106q77 12 139.5 31t100.5 43t37 49z" />
    <glyph glyph-name="uni0643064A" unicode="&#xfedb;&#xfef2;" horiz-adv-x="1116" 
d="M787 -553q-32 -61 -62 -92q-76 63 -133 104q33 57 64 95q54 -37 131 -107zM596 -566q-35 -64 -61 -92q-53 44 -133 104q31 56 64 95q64 -46 130 -107zM832 244q0 30 -90 135q-124 135 -331 288q-51 36 -51 105q0 24 11 51q12 30 68 61q126 70 507 200l7 -8
q-15 -41 -55 -123q-78 -21 -154 -49q-140 -52 -308 -131v-3l174 -61l-15 -51q112 -100 170 -162.5t90.5 -127t32.5 -133.5q0 -79 -53 -129v-4q131 -33 131 -167q0 -47 -20 -100q-93 -107 -206.5 -155.5t-224.5 -48.5q-124 0 -219 63.5t-143.5 164t-48.5 219.5q0 106 33 229
l41 -17q-18 -90 -18 -146q0 -146 97.5 -260.5t240.5 -114.5q153 0 281 74q111 65 131 102q-3 23 -118 47.5t-236 31.5l-9 10l29 104q115 17 185.5 47.5t70.5 58.5z" />
    <glyph glyph-name="uni0643064A.fina" unicode="&#xfedc;&#xfef2;" horiz-adv-x="1343" 
d="M787 -553q-32 -61 -62 -92q-76 63 -133 104q33 57 64 95q54 -37 131 -107zM596 -566q-35 -64 -61 -92q-53 44 -133 104q31 56 64 95q64 -46 130 -107zM883 261q-3 30 -82 121.5t-233 224.5q-49 41 -74 68q-17 45 -17 77q0 31 15 64q7 20 30 37q113 81 578 234l5 -6
q-23 -65 -58 -123q-75 -19 -217 -74q-204 -81 -283 -127v-3q58 -34 166 -78l-21 -50q158 -125 430 -396q104 -102 210 -102h17l21 -128h-20q-84 0 -147.5 40t-138.5 122q-80 88 -123 128l-4 -1q2 -30 2 -43q0 -106 -82 -153l1 -5q60 -18 84 -54.5t24 -100.5q0 -45 -20 -98
q-93 -107 -206.5 -155.5t-224.5 -48.5q-124 0 -219 64t-143.5 165t-48.5 220q0 104 33 227l41 -17q-18 -90 -18 -146q0 -146 97.5 -260.5t240.5 -114.5q153 0 281 74q112 66 131 100q-4 28 -105.5 51.5t-218.5 27.5l-8 10l28 106q77 12 139.5 31t100.5 43t37 49z" />
    <glyph glyph-name="uni06440671" unicode="&#xfedf;&#xfb51;" horiz-adv-x="892" 
d="M606 1029l8 -5q0 -9 1 -14v-7q10 -68 113 -203q-30 -32 -53 -49q6 -33 21 -114t24.5 -131.5t17.5 -111t8 -92.5q0 -49 -9 -105q-22 -117 -84 -169q-46 -38 -112 -61.5t-127 -23.5q-102 0 -253 46l-1 11q291 40 427 130q-7 27 -42.5 74.5t-103.5 129.5q-30 38 -268 320
q-127 151 -127 190q0 32 30 92l5 1q46 -52 190 -175l-23 -57q33 -42 104 -130t115 -144.5t78 -103.5q54 -75 70 -174l8 -1q54 45 54 131q0 25 -5 62t-16 88t-20 89t-25 104t-22 93q-42 164 -43 195v9q0 23 11 42q11 20 49 64zM-99 995l-6 3l-7 73q22 63 49 63q15 0 41 -12
q68 130 146 130q41 0 73 -30q19 -18 32 -47t13 -58q0 -45 -25 -74q-35 -38 -94 -38q-45 0 -85.5 11.5t-63 22.5t-25.5 11q-14 0 -48 -55zM10 1105q53 -24 107 -24q32 0 60 12.5t26 31.5q-11 25 -33 41.5t-47 17.5q-62 0 -113 -79z" />
    <glyph glyph-name="uni06440671.fina" unicode="&#xfee0;&#xfb51;" horiz-adv-x="918" 
d="M-99 995l-6 3l-7 73q22 63 49 63q15 0 41 -12q68 130 146 130q41 0 73 -30q19 -18 32 -47t13 -58q0 -45 -25 -74q-35 -38 -94 -38q-45 0 -85.5 11.5t-63 22.5t-25.5 11q-14 0 -48 -55zM10 1105q53 -24 107 -24q32 0 60 12.5t26 31.5q-11 25 -33 41.5t-47 17.5
q-62 0 -113 -79zM608 1032l9 -3q55 -287 102 -586q26 -161 61 -223q21 -38 59 -65t77 -27h8l21 -128h-19q-36 0 -74.5 16.5t-74.5 49t-64 87t-39 123.5l-7 1q-19 -178 -176 -258q-99 -40 -198 -40l-111 10l-5 7q210 84 351 187q-44 136 -365 489q-17 19 -47 52t-44 48.5
t-26 36.5t-12 37q0 32 13 82h4q67 -59 211 -142l-25 -59q111 -125 199 -242q100 -136 112 -214q2 -11 4 -31.5t3 -31.5l3 -1q37 43 58 86q18 39 18 89q0 56 -26 217q-2 13 -68 348q34 54 68 85z" />
    <glyph glyph-name="uni06440645" unicode="&#xfedf;&#xfee2;" horiz-adv-x="804" 
d="M319 246q-64 -25 -107.5 -64.5t-43.5 -75.5q0 -52 62.5 -188.5t125.5 -270t64 -175.5q0 -2 1 -7t1 -9v-20q0 -54 -5 -88h-17q-11 51 -60.5 153.5t-101.5 198.5t-94.5 198t-42.5 157q0 65 15 114q46 143 181 191q-52 235 -86 431q-3 16 -24.5 88.5t-21.5 105.5q0 27 17 50
q16 25 48 52l11 -6v-10l2.5 -17.5t1.5 -14.5q10 -53 116 -183l-67 -48q39 -256 82 -428q44 12 102 12q106 0 178 -65.5t72 -168.5q0 -73 -42.5 -121.5t-102.5 -48.5q-45 0 -85.5 18t-68 45t-50.5 63.5t-36.5 67.5t-23.5 64zM402 268q21 -69 78.5 -115t118.5 -46q42 0 70 26
q-6 46 -41 80t-76.5 48t-81.5 14q-44 0 -68 -7z" />
    <glyph glyph-name="uni06450627.fina" unicode="&#xfee4;&#xfe8e;" horiz-adv-x="1059" 
d="M350 128q46 0 86 23q10 6 19 14t16.5 19.5t12.5 19.5t11.5 24t9.5 24t10 29t10 29q36 100 67 153h10q118 -129 226 -227q119 -108 225 -108h12l21 -128h-12q-63 0 -114.5 25t-105.5 79l-3 -1q6 -39 6 -75q0 -70 -28.5 -109t-67.5 -39q-72 0 -143 63t-101 152h-5
q-51 -95 -155 -95q-92 0 -161 58q-49 43 -69 99.5t-40 179.5q-30 193 -119 601q47 64 77 93l9 -4q50 -218 130 -724l9 -57q11 -80 91 -107q33 -11 66 -11zM597 327h-5q-29 -76 -29 -114q0 -68 58 -134t128 -66q17 0 30.5 16t13.5 41q0 28 -10 49t-40 54q-19 23 -43 48.5
t-54.5 56t-48.5 49.5z" />
    <glyph glyph-name="uni06450622.fina" unicode="&#xfee4;&#xfe82;" horiz-adv-x="1131" 
d="M298 1219l6 -5q-15 -70 -17 -75q-51 -48 -131 -48q-33 0 -99.5 8.5t-88.5 8.5q-10 0 -18 -15.5t-21 -48.5q-3 -9 -5 -13h-7l-43 61q-2 16 -2 25q0 86 75 86q32 0 105 -15t112 -15q50 0 83 14q27 11 51 32zM422 128q46 0 86 23q10 6 19 14t16.5 19.5t12.5 19.5t11.5 24
t9.5 24t10 29t10 29q36 100 67 153h10q118 -129 226 -227q119 -108 225 -108h12l21 -128h-12q-63 0 -114.5 25t-105.5 79l-3 -1q6 -39 6 -75q0 -70 -28.5 -109t-67.5 -39q-72 0 -143 63t-101 152h-5q-51 -95 -155 -95q-92 0 -161 58q-49 43 -69 99.5t-40 179.5
q-30 193 -119 601q47 64 77 93l9 -4q50 -218 130 -724l9 -57q11 -80 91 -107q33 -11 66 -11zM669 327h-5q-29 -76 -29 -114q0 -68 58 -134t128 -66q17 0 30.5 16t13.5 41q0 28 -10 49t-40 54q-19 23 -43 48.5t-54.5 56t-48.5 49.5z" />
    <glyph glyph-name="uni06450623.fina" unicode="&#xfee4;&#xfe84;" horiz-adv-x="1103" 
d="M186 1169v-3q-10 -35 -28 -68q-141 -23 -246 -75l-2 3l17 42q15 24 41 33l-1 3q-41 12 -66.5 37t-25.5 60q0 41 33 78q52 57 110 57q32 0 52 -17t20 -40q0 -27 -23 -57h-2q-18 27 -29 34.5t-35 7.5q-29 0 -48.5 -11t-19.5 -23q0 -27 44.5 -46t106.5 -19q34 0 102 4z
M394 128q46 0 86 23q10 6 19 14t16.5 19.5t12.5 19.5t11.5 24t9.5 24t10 29t10 29q36 100 67 153h10q118 -129 226 -227q119 -108 225 -108h12l21 -128h-12q-63 0 -114.5 25t-105.5 79l-3 -1q6 -39 6 -75q0 -70 -28.5 -109t-67.5 -39q-72 0 -143 63t-101 152h-5
q-51 -95 -155 -95q-92 0 -161 58q-49 43 -69 99.5t-40 179.5q-30 193 -119 601q47 64 77 93l9 -4q50 -218 130 -724l9 -57q11 -80 91 -107q33 -11 66 -11zM641 327h-5q-29 -76 -29 -114q0 -68 58 -134t128 -66q17 0 30.5 16t13.5 41q0 28 -10 49t-40 54q-19 23 -43 48.5
t-54.5 56t-48.5 49.5z" />
    <glyph glyph-name="uni06450625.fina" unicode="&#xfee4;&#xfe88;" horiz-adv-x="1059" 
d="M420 -221v-3q-10 -35 -28 -68q-141 -23 -246 -75l-2 3l17 42q15 24 41 33l-1 3q-41 12 -66.5 37t-25.5 60q0 41 33 78q52 57 110 57q32 0 52 -17t20 -40q0 -27 -23 -57h-2q-18 27 -29 34.5t-35 7.5q-29 0 -48.5 -11t-19.5 -23q0 -27 44.5 -46t106.5 -19q34 0 102 4z
M350 128q46 0 86 23q10 6 19 14t16.5 19.5t12.5 19.5t11.5 24t9.5 24t10 29t10 29q36 100 67 153h10q118 -129 226 -227q119 -108 225 -108h12l21 -128h-12q-63 0 -114.5 25t-105.5 79l-3 -1q6 -39 6 -75q0 -70 -28.5 -109t-67.5 -39q-72 0 -143 63t-101 152h-5
q-51 -95 -155 -95q-92 0 -161 58q-49 43 -69 99.5t-40 179.5q-30 193 -119 601q47 64 77 93l9 -4q50 -218 130 -724l9 -57q11 -80 91 -107q33 -11 66 -11zM597 327h-5q-29 -76 -29 -114q0 -68 58 -134t128 -66q17 0 30.5 16t13.5 41q0 28 -10 49t-40 54q-19 23 -43 48.5
t-54.5 56t-48.5 49.5z" />
    <glyph glyph-name="uni06460631" unicode="&#xfee8;&#xfeae;" horiz-adv-x="910" 
d="M644 479h10q5 -15 53 -156q47 -136 112 -173q42 -22 84 -22h13l21 -128h-18q-89 0 -141.5 47t-102.5 169l-41 102h-5q-16 -48 -48 -77.5t-77 -29.5h-7q42 -110 42 -189q0 -64 -36 -135t-85.5 -111.5t-90.5 -40.5q-60 0 -121 19t-149 60l10 32q56 -25 99 -25
q152 0 249 142q60 82 60 130v11q-15 29 -44 62.5t-46 50t-62 57.5l12 128h9q65 -50 84 -63q36 -22 87 -22q37 0 66 27q13 11 22.5 31.5t21 53t19.5 50.5zM469 710q34 58 65 102q63 -41 137 -107q-28 -59 -67 -98q-15 12 -135 103z" />
    <glyph glyph-name="uni06460645.init" unicode="&#xfee7;&#xfee4;" horiz-adv-x="810" 
d="M7 128h9q72 0 125 18.5t104 69.5v5q0 162 91 260q90 95 197 95q72 0 112 -39t40 -102q0 -32 -7 -60l-7 -1q-51 75 -136 75q-65 0 -128 -39q-85 -65 -94 -150l3 -3q50 24 98 24q81 0 139 -53q70 -67 70 -169q0 -35 -10 -64q-38 -98 -125 -98q-78 0 -150 70q-62 60 -73 128
h-5q-79 -95 -223 -95h-10q-43 0 -61.5 23.5t-18.5 49.5q0 55 60 55zM328 148q22 -57 74 -96.5t105 -39.5q51 0 59 28q-8 53 -56 90t-109 37q-42 0 -73 -19zM345 800q46 75 65 102q69 -45 137 -107q-24 -54 -68 -98q-26 22 -134 103z" />
    <glyph glyph-name="uni06460649" unicode="&#xfee7;&#xfef0;" horiz-adv-x="999" 
d="M470 870q34 58 65 102q67 -45 137 -107q-28 -59 -68 -98q-48 39 -134 103zM657 653h7q54 -84 79 -127t46.5 -100.5t21.5 -106.5q0 -59 -31 -126q105 -24 137 -71q28 -41 28 -105q0 -48 -22 -107q-174 -202 -415 -202q-94 0 -172.5 37.5t-129.5 100.5t-79.5 144.5
t-28.5 169.5q0 105 32 224l42 -15q-17 -83 -17 -145q0 -95 41 -180.5t119 -140.5t175 -55q167 0 282 75q88 60 110 99q-4 27 -104.5 50.5t-223.5 32.5l-7 9l31 104q136 21 168 73q-40 98 -145 251q25 57 56 111z" />
    <glyph glyph-name="uni0646064A" unicode="&#xfee7;&#xfef2;" horiz-adv-x="999" 
d="M470 870q34 58 65 102q67 -45 137 -107q-28 -59 -68 -98q-48 39 -134 103zM783 -493q-32 -60 -61 -92q-67 56 -133 104q28 50 64 95q65 -46 130 -107zM593 -506q-34 -61 -62 -92q-70 58 -134 104q35 57 64 95q58 -40 132 -107zM657 653h7q54 -84 79 -127t46.5 -100.5
t21.5 -106.5q0 -59 -31 -126q105 -24 137 -71q28 -41 28 -105q0 -48 -22 -107q-174 -202 -415 -202q-94 0 -172.5 37.5t-129.5 100.5t-79.5 144.5t-28.5 169.5q0 105 32 224l42 -15q-17 -83 -17 -145q0 -95 41 -180.5t119 -140.5t175 -55q167 0 282 75q88 60 110 99
q-4 27 -104.5 50.5t-223.5 32.5l-7 9l31 104q136 21 168 73q-40 98 -145 251q25 57 56 111z" />
    <glyph glyph-name="uni064A0631.fina" unicode="&#xfef4;&#xfeae;" horiz-adv-x="910" 
d="M644 479h10q5 -15 53 -156q47 -136 112 -173q42 -22 84 -22h13l21 -128h-18q-89 0 -141.5 47t-102.5 169l-41 102h-5q-16 -48 -48 -77.5t-77 -29.5h-7q42 -110 42 -189q0 -64 -36 -135t-85.5 -111.5t-90.5 -40.5q-60 0 -121 19t-149 60l10 32q56 -25 99 -25
q152 0 249 142q60 82 60 130v11q-15 29 -44 62.5t-46 50t-62 57.5l12 128h9q65 -50 84 -63q36 -22 87 -22q37 0 66 27q13 11 22.5 31.5t21 53t19.5 50.5zM931 -324q-30 -58 -62 -92q-76 63 -133 104q33 57 64 95q54 -37 131 -107zM740 -337q-35 -64 -61 -92q-68 55 -133 104
q31 56 64 95q64 -46 130 -107z" />
    <glyph glyph-name="uni064A0645.init" unicode="&#xfef3;&#xfee4;" horiz-adv-x="819" 
d="M7 128h9q72 0 125 18.5t104 69.5v5q0 162 91 260q90 95 197 95q72 0 112 -39t40 -102q0 -32 -7 -60l-7 -1q-51 75 -136 75q-65 0 -128 -39q-85 -65 -94 -150l3 -3q50 24 98 24q81 0 139 -53q70 -67 70 -169q0 -35 -10 -64q-38 -98 -125 -98q-78 0 -150 70q-62 60 -73 128
h-5q-79 -95 -223 -95h-10q-43 0 -61.5 23.5t-18.5 49.5q0 55 60 55zM328 148q22 -57 74 -96.5t105 -39.5q51 0 59 28q-8 53 -56 90t-109 37q-42 0 -73 -19zM815 -344q-34 -62 -63 -92q-76 63 -133 104q33 57 64 95q51 -35 132 -107zM623 -357q-35 -64 -61 -92
q-53 44 -133 104q28 50 64 95q65 -46 130 -107z" />
    <glyph glyph-name="uni064A0646.fina" unicode="&#xfef4;&#xfee6;" horiz-adv-x="1120" 
d="M1153 -334q-34 -61 -62 -92q-70 58 -134 104q28 49 64 95q58 -40 132 -107zM962 -347q-34 -61 -61 -92q-72 59 -134 104q31 56 64 95q58 -40 131 -107zM234 640q36 61 66 102q63 -42 136 -107q-25 -57 -68 -98q-48 39 -134 103zM853 489h10q3 -9 10 -28.5t19 -54.5
t24 -71q49 -144 112 -180q56 -27 84 -27h14l21 -128h-16q-88 0 -142 51t-104 174l-43 103h-5q-33 -101 -124 -104q28 -51 47 -126t19 -140q0 -44 -10 -84q-30 -59 -89 -107q-97 -68 -212 -68q-111 0 -193 55t-122.5 144.5t-40.5 200.5q0 81 19 152l37 -13q-7 -65 -7 -94
q0 -130 80.5 -220t198.5 -90q117 0 195 56q86 60 86 113q0 39 -37 111q-15 30 -43 62.5t-49.5 52.5t-60.5 55l15 130l10 1q50 -41 84 -64q33 -21 84 -21q41 0 66 24q13 11 22.5 31.5t21 53t19.5 50.5z" />
    <glyph glyph-name="T_h" unicode="Th" horiz-adv-x="1556" 
d="M1490 163l18 -38q-61 -65 -124 -103.5t-99 -38.5q-61 0 -28 142l79 340q22 93 -13 93q-44 0 -143 -91t-156 -183q-29 -113 -58 -274q-54 -9 -118 -27l-10 11q105 469 185 889q-135 13 -261 13h-95l-144 -704q-8 -36 -11 -56.5t0 -38.5t9 -26t25 -15t39 -9.5t59 -5.5
l-9 -41h-422l8 41q36 3 54.5 5.5t37.5 9.5t27.5 14.5t18 26.5t14.5 38.5t13 56.5l154 704h-96q-97 0 -136 -9.5t-62 -35.5q-39 -45 -77 -133h-47q42 135 72 268h32q11 -25 24 -30.5t46 -5.5h588q94 0 122 5t37 22l4 27q93 39 115 39q11 0 12.5 -11t-4.5 -40
q-44 -195 -130 -605h3q67 84 139.5 144t129.5 91q59 33 102 33q25 0 39 -12t20 -49.5t-11 -105.5l-78 -339q-7 -31 -6 -41t9 -10q11 0 42.5 19t60.5 46z" />
    <glyph glyph-name="f_b" unicode="fb" horiz-adv-x="1142" 
d="M500 629l-28 -46l-150 -15q-9 -49 -23 -130.5t-26.5 -149t-29.5 -142.5q-38 -181 -80 -276t-109 -161q-85 -86 -163 -86q-32 0 -61.5 19.5t-29.5 44.5q0 16 13 35t31 33q15 13 28 0q18 -17 45 -28t48 -11q36 0 58 29q44 49 96 361q47 288 78 464h-123l-4 14l44 45h94
q44 205 150 306q45 43 108.5 74t110.5 31q76 0 121 -38q76 38 103 38q19 0 7 -48q-68 -280 -123 -543h3q88 101 174 153.5t142 52.5q52 0 81 -45t29 -121q0 -120 -63 -240.5t-161 -185.5q-121 -80 -230 -80q-41 0 -75 18t-52 47q-35 54 -9 189q94 454 143 666
q-23 34 -57.5 55t-72.5 21q-69 0 -119.5 -80.5t-83.5 -269.5h166zM929 567h-1q-43 0 -111 -53t-147 -159q-10 -28 -26 -115q-18 -101 10 -143.5t82 -42.5q39 0 78 22q65 38 115 150t50 239q0 51 -14 76.5t-36 25.5z" />
    <glyph glyph-name="f_f_b" unicode="ffb" horiz-adv-x="1540" 
d="M894 629l-30 -49l-146 -12q-34 -206 -64 -364q-36 -192 -85.5 -292.5t-130.5 -167.5q-46 -40 -104.5 -62.5t-103.5 -22.5q-100 0 -159 69q-42 -42 -93 -73t-93 -31q-32 0 -59 16t-27 40q0 26 32 58q29 27 45 17q54 -35 88 -35q37 0 62 31q47 68 91 342q53 340 77 475
h-126l-4 15l42 46h99q38 166 136 264q49 48 120.5 81t137.5 33q53 0 92.5 -21t58.5 -51q51 49 112.5 77t113.5 28q73 0 118 -38q79 38 105 38q17 0 7 -48q-58 -237 -125 -543h3q92 102 176.5 154t139.5 52q52 0 81 -45.5t29 -120.5q0 -120 -63.5 -241t-161.5 -185
q-121 -80 -229 -80q-40 0 -73.5 18t-51.5 47q-37 53 -9 189q62 303 143 662q-55 81 -133 81q-70 -1 -120 -80.5t-82 -270.5h164zM1326 565h-2q-40 0 -109 -52.5t-147 -157.5q-9 -25 -27 -115q-18 -101 9 -144.5t80 -43.5q40 0 79 22q66 40 116.5 152.5t50.5 238.5
q0 100 -50 100zM331 629h272q32 152 86 232q-47 83 -150 83q-79 0 -128 -71.5t-80 -243.5zM591 568h-272q-52 -306 -76 -427q-45 -221 -116 -336q26 -29 69 -49.5t84 -20.5q95 0 135 63q17 21 30.5 47.5t34 102t41.5 193.5q42 240 70 427z" />
    <glyph glyph-name="f_f" unicode="ff" horiz-adv-x="804" 
d="M108 629h99q37 167 134 261q48 48 121.5 81.5t144.5 33.5q52 0 90 -19.5t56 -44.5q109 99 201 99q38 0 65 -20.5t25 -42.5q0 -15 -10.5 -34t-28.5 -31q-21 -20 -42 1q-46 48 -93 48q-30 0 -51.5 -23.5t-43.5 -98t-44 -210.5h169l-29 -46l-150 -13q-8 -44 -29 -166.5
t-38 -203.5q-37 -187 -85.5 -286t-130.5 -169q-46 -40 -104.5 -63t-101.5 -23q-104 0 -169 64q-38 -40 -86.5 -69.5t-91.5 -29.5q-33 0 -61 16.5t-28 40.5q0 12 11.5 30.5t23.5 29.5q25 25 42 13q52 -35 89 -35q36 0 60 32q46 60 95 342q18 115 43 265t35 212h-124l-5 16z
M332 629h272q30 152 88 238q-23 34 -63.5 54.5t-83.5 20.5q-91 0 -137 -74t-76 -239zM593 570h-273q-47 -280 -75 -423q-47 -229 -118 -344q20 -27 65.5 -47t88.5 -20q97 0 136 59q60 78 104 339q54 323 72 436z" />
    <glyph glyph-name="f_h" unicode="fh" horiz-adv-x="1191" 
d="M1127 165l19 -38q-60 -66 -122.5 -105t-98.5 -39q-61 0 -28 142l79 337q11 51 8 72.5t-21 21.5q-45 0 -143 -89.5t-156 -182.5q-35 -138 -58 -274q-54 -9 -118 -27l-10 11q77 345 189 911q-23 33 -58.5 52.5t-75.5 19.5q-73 -1 -120 -77.5t-81 -270.5h165l-31 -46
l-146 -15q-42 -251 -78 -424q-38 -178 -82 -273t-113 -162q-82 -86 -162 -86q-33 0 -62 19.5t-28 44.5q0 34 42 70q16 10 29 0q17 -18 45 -31t48 -13q36 0 58 29q25 26 47.5 104t52.5 253q66 404 77 471h-123l-4 14l42 45h96q44 200 152 306q46 46 109 76t115 30
q72 0 118 -37q84 37 101 37t8 -45l-129 -611h3q127 160 271 237q57 33 103 33q83 0 45 -167l-77 -339q-12 -46 1 -51q12 0 43 20t59 47z" />
    <glyph glyph-name="f_f_h" unicode="ffh" horiz-adv-x="1592" 
d="M1528 165l17 -38q-60 -65 -123 -104.5t-98 -39.5q-31 0 -38 33.5t9 108.5l79 340q22 91 -12 91q-45 0 -143 -90t-157 -183q-36 -140 -58 -273q-58 -9 -118 -27l-11 11q85 374 191 909q-60 79 -135 79q-72 -2 -120 -82t-81 -271h164l-30 -48l-144 -13q-51 -285 -66 -364
q-37 -190 -87.5 -291.5t-129.5 -170.5q-46 -39 -102.5 -61t-102.5 -22q-101 0 -162 70q-40 -42 -91 -73.5t-93 -31.5q-32 0 -60 16t-28 40q0 13 10.5 32t22.5 30q25 25 44 13q54 -35 89 -35q36 0 61 31q44 58 92 345q39 254 77 472h-126l-4 16l42 45h99q37 161 137 264
q48 48 119.5 81t137.5 33q96 0 156 -67q43 45 106 72.5t116 27.5q75 0 121 -39q78 39 101 39q18 0 7 -45l-130 -613h3q72 91 144.5 151t128.5 89q59 33 102 33q84 0 46 -167l-78 -338q-10 -48 3 -52q11 0 43 20t60 47zM331 629h272q29 145 89 235q-52 80 -149 80
q-82 0 -132.5 -71.5t-79.5 -243.5zM593 568h-274q-45 -269 -77 -427q-27 -127 -53 -201.5t-61 -131.5q24 -30 69 -51.5t87 -21.5q90 0 131 64q62 81 106 342q18 106 41.5 245.5t30.5 181.5z" />
    <glyph glyph-name="f_f_i" unicode="ffi" horiz-adv-x="1193" 
d="M1126 169l19 -35q-44 -54 -117 -102.5t-112 -48.5q-64 0 -29 152q28 113 80 337q8 35 9.5 53t-7.5 29t-24.5 13.5t-48.5 2.5h-174q-58 -323 -67 -366q-37 -191 -89 -295.5t-139 -173.5q-41 -35 -94 -56t-96 -21q-97 0 -161 68q-35 -39 -88 -71t-99 -32q-34 0 -62 17
t-28 40q2 32 38 64q25 23 41 10q51 -37 87 -37q39 0 61 32q45 59 91 347q19 123 44.5 275t33.5 199h-125l-4 13l42 46h99q41 167 141 264q48 48 117.5 80t136.5 32q54 0 94 -19.5t59 -44.5q104 99 227 99q80 0 118.5 -35t38.5 -68q0 -47 -54 -67q-54 -24 -64 16
q-24 100 -93 100q-141 0 -197 -357h156q129 0 204 25q41 0 15 -109q-41 -157 -94 -383q-14 -66 3 -66q13 0 48.5 22.5t62.5 50.5zM332 629h272q31 151 91 238q-24 36 -63 57t-81 21q-84 0 -136 -73t-83 -243zM594 570h-272q-13 -68 -37 -206t-40 -220q-45 -231 -111 -339
q23 -30 65 -50t88 -20q89 0 130 63q63 84 102 319q20 115 43.5 260t31.5 193z" />
    <glyph glyph-name="f_j" unicode="fj" horiz-adv-x="759" 
d="M111 629h90q19 94 60 178.5t103 137.5q106 95 220 95q78 0 114 -33t36 -67q0 -25 -13.5 -44.5t-38.5 -25.5q-54 -21 -61 16q-23 97 -91 97q-141 0 -202 -354h148q125 0 213 22q30 -19 10 -116q-73 -363 -83 -413q-51 -258 -179 -373q-101 -90 -160 -90q-25 0 -46 13.5
t-21 34.5q0 16 12 37.5t27 32.5q16 16 32 6q42 -25 77 -25q31 0 51 30t40 109q20 81 116 579q14 62 4 78t-68 16h-185q-43 -239 -80 -408q-42 -191 -82.5 -284.5t-108.5 -161.5q-90 -93 -170 -93q-33 0 -60 17.5t-26 41.5q0 33 42 70q16 11 29 0q42 -36 88 -36q38 0 61 29
q45 45 99 363q13 74 40 227t40 235h-115l-6 16z" />
    <glyph glyph-name="f_f_j" unicode="ffj" horiz-adv-x="1155" 
d="M105 629h97q20 78 50.5 141.5t91.5 122.5q46 47 116.5 79.5t138.5 32.5q100 0 153 -64q104 99 224 99q81 0 120.5 -35t39.5 -68q0 -49 -57 -72q-50 -20 -61 21q-13 48 -34 72.5t-59 24.5q-142 0 -200 -354h159q104 0 207 22q14 -10 17 -28t-7 -75q-8 -40 -38 -191.5
t-48 -235.5q-52 -261 -180 -373q-101 -90 -162 -90q-23 0 -43.5 13.5t-20.5 34.5q0 34 38 68q17 15 33 6q34 -23 75 -23q60 0 93 141q11 47 24.5 111.5t24.5 120t32 162.5t37 187q11 61 -1 76t-72 15h-176q-10 -53 -31 -171t-36 -195q-37 -195 -84.5 -293.5t-129.5 -168.5
q-44 -39 -101 -61.5t-99 -22.5q-98 0 -169 70q-37 -41 -89.5 -73t-95.5 -32q-31 0 -57 14.5t-26 37.5q0 29 32 61q24 26 45 15q50 -32 86 -32t60 32q42 55 89 344q20 123 46 275.5t34 199.5h-124l-4 13zM326 629h273q33 152 91 236q-22 37 -61 58t-83 21q-83 0 -135.5 -72.5
t-84.5 -242.5zM588 570h-273q-12 -67 -35.5 -205t-39.5 -221q-46 -238 -116 -339q25 -29 69.5 -49.5t89.5 -20.5q49 0 80 15t52 49q55 66 99 322q67 407 74 449z" />
    <glyph glyph-name="f_k" unicode="fk" horiz-adv-x="1127" 
d="M666 351h3q29 34 125 133q81 79 144.5 125t114.5 46q29 0 46.5 -14t17.5 -34q0 -32 -29 -61q-12 -12 -25 -9q-26 12 -59 12q-46 0 -98 -34.5t-89 -77.5q31 -99 112 -261q26 -52 41 -72t29 -20q25 0 85 66l26 -33q-89 -134 -172 -134q-54 0 -99 97q-67 135 -115 268
q-52 -52 -76 -87q-20 -96 -48 -249q-71 -14 -116 -29l-11 8q135 604 198 914q-22 33 -58 54t-74 21q-71 0 -121.5 -80t-85.5 -271h165l-31 -49l-146 -15q-49 -286 -78 -422q-39 -179 -82.5 -272.5t-111.5 -161.5q-85 -86 -163 -86q-33 0 -62.5 19.5t-29.5 44.5q0 35 44 68
q16 13 29 0q44 -39 92 -39q38 0 58 28q47 52 99 355q15 88 40.5 240t39.5 229h-124l-4 15l44 46h97q39 198 152 306q46 45 109 75t114 30q74 0 119 -38q79 38 101 38q17 0 8 -44q-96 -428 -145 -645z" />
    <glyph glyph-name="f_f_k" unicode="ffk" horiz-adv-x="1518" 
d="M1060 348l3 -1q45 54 128 135q171 173 258 173q29 0 46.5 -14t17.5 -34q0 -30 -30 -62q-11 -11 -25 -9q-24 13 -60 13q-45 0 -95 -34t-88 -78q39 -126 111 -259q25 -53 40 -74t28 -21q28 0 86 66l25 -32q-88 -134 -171 -134q-55 0 -100 97q-58 115 -111 267
q-62 -60 -79 -89q-26 -116 -49 -246q-73 -14 -117 -29l-10 8q108 478 198 915q-51 74 -132 74q-47 -1 -82 -29.5t-67 -108t-55 -213.5h164l-30 -49l-144 -12q-57 -323 -66 -364q-37 -193 -85 -292t-128 -167q-46 -39 -106 -62.5t-103 -23.5q-99 0 -162 69q-39 -42 -90.5 -73
t-94.5 -31q-32 0 -59 15t-27 38q0 14 11 32t24 29q26 26 44 14q49 -35 86 -35q36 0 62 32q42 55 91 344q20 126 78 475h-127l-4 15l42 46h99q40 165 140 265q47 48 118.5 80.5t136.5 32.5q98 0 155 -69q45 45 108.5 73.5t113.5 28.5q75 0 121 -39q78 39 101 39q17 0 9 -42
q-29 -124 -80.5 -351.5t-67.5 -298.5zM332 629h272q30 148 86 236q-49 77 -147 77q-82 0 -131.5 -70.5t-79.5 -242.5zM593 568h-273q-54 -312 -77 -425q-47 -235 -113 -338q25 -30 69 -51t85 -21q92 0 134 66q18 22 30.5 47.5t32.5 98.5t40 186q36 213 72 437z" />
    <glyph glyph-name="f_f_l" unicode="ffl" horiz-adv-x="1199" 
d="M896 629l-31 -48l-144 -13q-6 -35 -19 -113.5t-23 -134t-24 -119.5q-38 -195 -88.5 -296.5t-136.5 -169.5q-42 -35 -95 -56t-95 -21q-102 0 -167 70q-35 -40 -89 -72.5t-99 -32.5q-35 0 -62.5 16.5t-27.5 40.5q0 28 36 62q23 23 42 9q52 -35 88 -35q40 0 64 32
q46 60 93 347q53 327 77 475h-124l-5 16l42 43h100q38 169 139 265q44 46 115 78.5t141 32.5q91 0 154 -65q45 42 114 71t124 29q31 0 64.5 -11t47.5 -25q74 36 93 36q21 0 6 -64q-99 -444 -170 -820q-13 -61 7 -61q11 0 47 25t62 52l22 -32q-52 -65 -122.5 -111t-107.5 -46
q-65 0 -29 173q27 132 80.5 387.5t76.5 368.5q-43 67 -128 67q-155 0 -213 -350h165zM332 629h275q30 152 88 236q-21 34 -62.5 56.5t-86.5 22.5q-79 0 -130.5 -70t-83.5 -245zM596 570h-274q-10 -52 -35 -196t-42 -231q-46 -239 -111 -335q24 -30 68 -51t89 -21
q90 0 130 62q56 64 100 320q74 449 75 452z" />
    <glyph glyph-name="f_t" unicode="ft" horiz-adv-x="859" 
d="M905 629l-40 -54l-150 -7l-81 -386q-20 -90 7 -90q18 0 60.5 26.5t70.5 54.5l22 -33q-46 -55 -118 -107t-125 -52q-79 0 -37 198l83 389h-275q-8 -46 -22.5 -129.5t-26 -142.5t-25.5 -126q-41 -197 -82.5 -294.5t-108.5 -163.5q-88 -88 -166 -88q-35 0 -62.5 17.5
t-26.5 42.5q0 34 44 71q16 12 30 2q44 -40 89 -40q35 0 61 30q41 41 93 364q32 193 78 457h-118l-6 15l44 46h91q40 200 146 303q49 48 105 78t106 30q43 0 71 -23t27 -47q0 -18 -14 -38.5t-30 -31.5q-18 -14 -33 0q-52 60 -105 63q-47 0 -83 -77.5t-64 -256.5h278l26 115
l122 95l15 -12l-45 -198h175z" />
    <glyph glyph-name="f_f_t" unicode="fft" horiz-adv-x="1250" 
d="M1298 629l-39 -55l-151 -6l-83 -386q-19 -92 11 -92q17 0 60.5 28.5t70.5 56.5l22 -35q-45 -54 -119 -106.5t-126 -52.5q-21 0 -34.5 17.5t-17 61.5t13.5 119l84 389h-272q-55 -305 -70 -377q-35 -183 -82.5 -280t-125.5 -164q-47 -43 -105 -65.5t-106 -22.5
q-100 0 -161 67q-42 -42 -92 -72t-93 -30q-31 0 -58 17t-27 41q0 14 10.5 33t22.5 30q22 26 44 12q51 -37 87 -37q38 0 63 31q44 58 92 339q58 374 75 478h-125l-4 15l42 46h99q39 162 137 257q49 49 121.5 84t139.5 35q98 0 147 -68q47 47 104.5 75t109.5 28q43 0 71 -22
t26 -45q0 -18 -13 -37.5t-29 -30.5q-22 -15 -33 0q-30 31 -54 46.5t-56 15.5q-46 0 -81.5 -79.5t-63.5 -258.5h275l26 112l123 95l13 -12l-45 -195h176zM331 629h271q29 150 84 232q-23 38 -62 59.5t-82 21.5q-81 0 -132.5 -75t-78.5 -238zM590 568h-272q-57 -338 -75 -427
q-46 -230 -113 -336q20 -29 62.5 -50.5t85.5 -21.5q94 0 133 63q60 72 108 334q44 263 71 438z" />
    <glyph glyph-name="uniFEEA.UYG" unicode="&#x647;" horiz-adv-x="769" arabic-form="final" 
d="M103 -66l-18 10q21 58 58 120q14 24 36 34.5t77 17.5q13 178 19 224q20 154 73 258l8 3q12 -20 47 -60q69 -80 102 -125t56 -103t23 -123q0 -24 -4 -62h195l21 -128h-26q-53 0 -87 10l-4 -2q64 -86 64 -172q0 -47 -16 -84q-17 -38 -54 -65.5t-81 -27.5q-79 0 -148 40
q-68 39 -116 109.5t-60 147.5l-6 40q-74 -10 -105.5 -23t-53.5 -39zM319 3q16 -71 86 -139q46 -46 102 -73t104 -27q51 0 51 42q0 61 -58 127q-67 78 -173 78q-51 0 -112 -8zM311 121q109 7 154 20q57 16 57 48q0 25 -27 70t-56 81.5t-78 93.5h-5q-23 -119 -45 -313z" />
    <glyph glyph-name="uni0672.fina" unicode="&#x672;" horiz-adv-x="507" 
d="M513 128l21 -128h-11q-115 0 -180 57q-35 30 -55.5 72t-28.5 79.5t-23 128.5q-35 220 -121 601q48 63 79 93l9 -4q50 -218 130 -724l9 -57q11 -80 91 -107q33 -11 66 -11h14zM213 1236l-9 1q-21 44 -61 44q-26 0 -48 -10.5t-22 -23.5q0 -26 37 -45t73 -19q43 0 133 29
l3 -5q-12 -29 -41 -85q-113 -25 -171 -73q-1 -1 -5 -4.5t-5.5 -4.5t-5 -3.5t-5 -3.5t-5 -2.5t-6 -2.5t-6 -1.5t-7.5 -1t-9 -0.5q-21 0 -55 19.5t-50 19.5q-26 0 -45 -30l-23 23q45 83 96 83q19 0 53 -18.5t45 -18.5q20 0 33 13v4q-90 34 -90 98q0 34 34 74q49 57 109 57
q27 0 49.5 -15t22.5 -43q0 -22 -19 -55z" />
    <glyph glyph-name="uni0673.fina" unicode="&#x673;" horiz-adv-x="462" 
d="M468 128l21 -128h-11q-115 0 -180 57q-35 30 -55.5 72t-28.5 79.5t-23 128.5q-35 220 -121 601q48 63 79 93l9 -4q50 -218 130 -724l9 -57q11 -80 91 -107q33 -11 66 -11h14zM418 -167l-9 1q-21 44 -61 44q-26 0 -48 -10.5t-22 -23.5q0 -26 37 -45t73 -19q43 0 133 29
l3 -5q-12 -29 -41 -85q-113 -25 -171 -73q-1 -1 -5 -4.5t-5.5 -4.5t-5 -3.5t-5 -3.5t-5 -2.5t-6 -2.5t-6 -1.5t-7.5 -1t-9 -0.5q-21 0 -55 19.5t-50 19.5q-26 0 -45 -30l-23 23q45 83 96 83q19 0 53 -18.5t45 -18.5q20 0 33 13v4q-90 34 -90 98q0 34 34 74q49 57 109 57
q27 0 49.5 -15t22.5 -43q0 -22 -19 -55z" />
    <glyph glyph-name="uni0675.fina" unicode="&#x675;" horiz-adv-x="568" 
d="M574 128l21 -128h-221q-115 0 -180 57q-35 30 -55.5 72t-28.5 79.5t-23 128.5q-30 193 -119 601q47 64 77 93l9 -4q50 -218 130 -724l9 -57q11 -80 91 -107q33 -11 66 -11h224zM401 1169v-3q-10 -35 -28 -68q-141 -23 -246 -75l-2 3l17 42q15 24 41 33l-1 3
q-41 12 -66.5 37t-25.5 60q0 41 33 78q52 57 110 57q32 0 52 -17t20 -40q0 -27 -23 -57h-2q-18 27 -29 34.5t-35 7.5q-29 0 -48.5 -11t-19.5 -23q0 -27 44.5 -46t106.5 -19q34 0 102 4z" />
    <glyph glyph-name="uni0676.fina" unicode="&#x676;" horiz-adv-x="827" 
d="M607 128h226l21 -128h-220v-8q0 -102 -48 -198q-42 -82 -103 -126t-108 -44q-123 0 -304 101l12 33q72 -36 153 -36q140 0 256 138q65 80 73 140h-51q-163 0 -253 62.5t-90 181.5q0 70 29 122q51 96 139 96q71 0 147.5 -92t120.5 -242zM733 719v-3q-10 -35 -28 -68
q-141 -23 -246 -75l-2 3l17 42q15 24 41 33l-1 3q-41 12 -66.5 37t-25.5 60q0 41 33 78q52 57 110 57q32 0 52 -17t20 -40q0 -27 -23 -57h-2q-18 27 -29 34.5t-35 7.5q-29 0 -48.5 -11t-19.5 -23q0 -27 44.5 -46t106.5 -19q34 0 102 4zM539 128q-32 90 -93 146
q-59 56 -115 56q-39 0 -69 -26t-30 -56q0 -70 124 -104q63 -16 183 -16z" />
    <glyph glyph-name="uni0677.fina" unicode="&#x677;" horiz-adv-x="865" 
d="M645 128h226l21 -128h-220v-8q0 -102 -48 -198q-42 -82 -103 -126t-108 -44q-123 0 -304 101l12 33q72 -36 153 -36q140 0 256 138q65 80 73 140h-51q-163 0 -253 62.5t-90 181.5q0 70 29 122q51 96 139 96q71 0 147.5 -92t120.5 -242zM342 733l-37 -65q-9 6 -25 11
q-49 -76 -189 -130q-20 0 -57.5 5t-43.5 13l-3 5q61 26 89 38t72.5 36t68.5 45q-69 12 -103.5 41t-34.5 81q0 49 36 83t80 34q47 0 78.5 -53t31.5 -108q0 -15 -2 -23q23 -3 39 -13zM771 719v-3q-10 -35 -28 -68q-141 -23 -246 -75l-2 3l17 42q15 24 41 33l-1 3
q-41 12 -66.5 37t-25.5 60q0 41 33 78q52 57 110 57q32 0 52 -17t20 -40q0 -27 -23 -57h-2q-18 27 -29 34.5t-35 7.5q-29 0 -48.5 -11t-19.5 -23q0 -27 44.5 -46t106.5 -19q34 0 102 4zM577 128q-32 90 -93 146q-59 56 -115 56q-39 0 -69 -26t-30 -56q0 -70 124 -104
q63 -16 183 -16zM259 752q0 2 0.5 5t0.5 4q0 31 -28 69t-58 38q-22 0 -37 -12t-15 -26q0 -25 38 -45.5t99 -32.5z" />
    <glyph glyph-name="uni0678.init" unicode="&#x678;" horiz-adv-x="632" 
d="M186 551h5q151 -222 151 -346q0 -71 -45 -145q-28 -34 -85.5 -47t-172.5 -13h-12q-43 0 -61.5 23.5t-18.5 49.5q0 55 60 55h16q145 0 194 19q50 20 50 42q0 41 -139 249q27 67 58 113zM505 769v-3q-10 -35 -28 -68q-141 -23 -246 -75l-2 3l17 42q15 24 41 33l-1 3
q-41 12 -66.5 37t-25.5 60q0 41 33 78q52 57 110 57q32 0 52 -17t20 -40q0 -27 -23 -57h-2q-18 27 -29 34.5t-35 7.5q-29 0 -48.5 -11t-19.5 -23q0 -27 44.5 -46t106.5 -19q34 0 102 4z" />
    <glyph glyph-name="uni0678.medi" unicode="&#x678;" horiz-adv-x="646" 
d="M7 128h21q61 0 107.5 23.5t50.5 64.5l12 108l61 50l7 -7q-6 -45 -6 -80q0 -85 49 -119q58 -40 130 -40h213l21 -128h-218q-160 0 -223 102h-4q-17 -49 -66.5 -75.5t-115.5 -26.5h-19q-43 0 -61.5 23.5t-18.5 49.5q0 55 60 55zM557 629v-3q-10 -35 -28 -68
q-141 -23 -246 -75l-2 3l17 42q15 24 41 33l-1 3q-41 12 -66.5 37t-25.5 60q0 41 33 78q52 57 110 57q32 0 52 -17t20 -40q0 -27 -23 -57h-2q-18 27 -29 34.5t-35 7.5q-29 0 -48.5 -11t-19.5 -23q0 -27 44.5 -46t106.5 -19q34 0 102 4z" />
    <glyph glyph-name="uni0678.fina" unicode="&#x678;" horiz-adv-x="1285" 
d="M1206 589v-3q-10 -35 -28 -68q-141 -23 -246 -75l-2 3l17 42q15 24 41 33l-1 3q-41 12 -66.5 37t-25.5 60q0 41 33 78q52 57 110 57q32 0 52 -17t20 -40q0 -27 -23 -57h-2q-18 27 -29 34.5t-35 7.5q-29 0 -48.5 -11t-19.5 -23q0 -27 44.5 -46t106.5 -19q34 0 102 4z
M670 128h621l21 -128h-326q2 -12 6 -29.5t6.5 -30.5t2.5 -25q0 -25 -9 -60.5t-17 -51.5q-82 -85 -202.5 -135.5t-233.5 -50.5q-178 0 -293 108q-65 61 -100.5 155.5t-35.5 196.5q0 151 47 257l41 -17q-26 -100 -26 -183t30.5 -159.5t87.5 -126.5q107 -94 257 -94
q153 0 306 86q72 40 79 69q-24 38 -107 64.5t-197 26.5l-9 14z" />
    <glyph glyph-name="uni067C.init" unicode="&#x67c;" horiz-adv-x="441" 
d="M271 742q-32 -59 -63 -92q-76 63 -133 104q28 50 64 95q51 -35 132 -107zM79 729q-35 -64 -61 -92q-59 50 -131 104q31 56 64 95q53 -39 128 -107zM186 551h5q151 -222 151 -346q0 -69 -46 -147q38 -17 58 -48t20 -68q0 -52 -36.5 -88.5t-88.5 -36.5t-88.5 36.5
t-36.5 88.5q0 31 15 61q-42 -3 -100 -3h-12q-43 0 -61.5 23.5t-18.5 49.5q0 55 60 55h16q145 0 194 19q50 20 50 42q0 41 -139 249q27 67 58 113zM174 -58q0 -31 22 -53t53 -22t53 22t22 53t-22 53t-53 22t-53 -22t-22 -53z" />
    <glyph glyph-name="uni067C.medi" unicode="&#x67c;" horiz-adv-x="581" 
d="M270 599q-34 -61 -62 -92q-70 58 -134 104q30 52 65 95q58 -40 131 -107zM460 612q-32 -60 -61 -92q-67 56 -133 104q28 50 64 95q64 -46 130 -107zM124 0h-97q-43 0 -61.5 23.5t-18.5 49.5q0 55 60 55h151q61 0 107.5 23.5t50.5 64.5l12 108l61 50l7 -7q-6 -45 -6 -80
q0 -85 49 -119q58 -40 130 -40h18l21 -128h-23q-160 0 -223 102h-4q-18 -48 -63 -74q48 -38 48 -96q0 -50 -35.5 -85t-84.5 -35t-84.5 35t-35.5 85q0 37 21 68zM148 -68q0 -31 22 -53t53 -22t53 22t22 53t-22 53t-53 22t-53 -22t-22 -53z" />
    <glyph glyph-name="uni067C.fina" unicode="&#x67c;" horiz-adv-x="1361" 
d="M1367 128l21 -128h-18q-79 0 -133.5 19.5t-90.5 67.5q-54 -36 -146 -64q-99 -30 -218 -49q46 -37 46 -103q0 -58 -41 -99t-99 -41t-99 41t-41 99q0 50 33 91l-4 -1q-188 8 -309 76q-96 55 -146.5 144.5t-50.5 204.5q0 91 28 164l42 -17q-9 -49 -9 -92q0 -89 44 -162.5
t127 -118.5q118 -64 327 -64q148 0 335 45q73 18 126 43l22 140l60 49l7 -7q-7 -49 -7 -83q0 -81 50 -117q54 -38 126 -38h18zM598 -129q0 -37 26 -63.5t64 -26.5t64 26.5t26 63.5t-26 63.5t-64 26.5t-64 -26.5t-26 -63.5zM771 732q-35 -64 -62 -92q-67 56 -133 104
q33 57 64 95q58 -40 131 -107zM580 719q-34 -61 -61 -92q-59 49 -134 104q28 50 64 95q64 -45 131 -107z" />
    <glyph glyph-name="uni067D.init" unicode="&#x67d;" horiz-adv-x="440" 
d="M186 551h5q151 -222 151 -346q0 -71 -45 -145q-28 -34 -85.5 -47t-172.5 -13h-12q-43 0 -61.5 23.5t-18.5 49.5q0 55 60 55h16q145 0 194 19q50 20 50 42q0 41 -139 249q27 67 58 113zM212 741q-34 -62 -63 -92q-76 63 -133 104q33 57 64 95q52 -35 132 -107zM231 953
q-30 -58 -62 -92q-76 63 -133 104q28 50 64 95q58 -40 131 -107zM40 940q-37 -67 -60 -92q-67 56 -133 104q33 57 64 95q56 -39 129 -107z" />
    <glyph glyph-name="uni067D.medi" unicode="&#x67d;" horiz-adv-x="451" 
d="M7 128h21q61 0 107.5 23.5t50.5 64.5l12 108l61 50l7 -7q-6 -45 -6 -80q0 -85 49 -119q58 -40 130 -40h18l21 -128h-23q-160 0 -223 102h-4q-17 -49 -66.5 -75.5t-115.5 -26.5h-19q-43 0 -61.5 23.5t-18.5 49.5q0 55 60 55zM263 601q-30 -57 -61 -92q-70 58 -134 104
q24 42 64 95q64 -45 131 -107zM283 813q-34 -61 -61 -92q-59 49 -134 104q24 42 64 95q64 -45 131 -107zM92 800q-30 -58 -62 -92q-67 58 -131 104q28 50 64 95q53 -38 129 -107z" />
    <glyph glyph-name="uni067D.fina" unicode="&#x67d;" horiz-adv-x="1361" 
d="M733 893q-34 -61 -62 -92q-83 67 -134 104q33 57 64 95q51 -35 132 -107zM541 880q-35 -64 -61 -92q-53 44 -133 104q31 56 64 95q65 -46 130 -107zM713 681q-34 -61 -61 -92q-72 59 -134 104q28 50 64 95q64 -45 131 -107zM1367 128l21 -128h-18q-79 0 -133.5 19.5
t-90.5 67.5q-54 -36 -146 -64q-204 -63 -377 -63q-221 0 -355 77q-97 55 -147 144.5t-50 204.5q0 91 28 164l42 -17q-9 -49 -9 -92q0 -89 44 -162.5t127 -118.5q118 -64 327 -64q148 0 335 45q73 18 126 43l22 140l60 49l7 -7q-7 -49 -7 -83q0 -81 50 -117q54 -38 126 -38
h18z" />
    <glyph glyph-name="uni0681.init" unicode="&#x681;" horiz-adv-x="935" 
d="M7 128h60q121 0 243 44t262 137l1 4q-200 70 -330 70q-80 0 -114 -50l20 -50l-17 -90h-10l-70 132v18q0 75 52.5 118.5t139.5 43.5q109 0 340 -87q82 -31 175 -32l81 1l3 -2l-36 -105h-8q-102 0 -154 -37l-151 -109q-183 -134 -415 -134h-52q-43 0 -61.5 23.5t-18.5 49.5
q0 55 60 55zM447 829v-3q-10 -35 -28 -68q-142 -23 -247 -75l-2 3l16 42q18 24 42 33l-2 3q-40 12 -65 36t-26 58v5q0 38 33 76q51 57 111 57q32 0 51 -16t20 -40v-3q0 -23 -22 -55h-2q-19 27 -29.5 34.5t-35.5 7.5q-29 0 -49 -11.5t-19 -23.5q1 -28 45 -46t107 -18
q34 0 102 4z" />
    <glyph glyph-name="uni0681.medi" unicode="&#x681;" horiz-adv-x="915" 
d="M572 309l1 4q-200 70 -330 70q-80 0 -114 -50l20 -50l-17 -90h-10l-70 132v18q0 75 52.5 118.5t139.5 43.5q110 0 339 -86q89 -33 176 -33h87l2 -2l-45 -103q-104 0 -158 -38l-151 -109q-187 -134 -421 -134h-46q-43 0 -61.5 23.5t-18.5 49.5q0 55 60 55h60q121 0 243 44
t262 137zM447 829v-3q-10 -35 -28 -68q-142 -23 -247 -75l-2 3l16 42q18 24 42 33l-2 3q-40 12 -65 36t-26 58v5q0 38 33 76q51 57 111 57q32 0 51 -16t20 -40v-3q0 -23 -22 -55h-2q-19 27 -29.5 34.5t-35.5 7.5q-29 0 -49 -11.5t-19 -23.5q1 -28 45 -46t107 -18q34 0 102 4
zM663 221l33 24l3 -1q23 -116 195 -116h27l21 -128h-31q-216 0 -242 165q-5 29 -6 56z" />
    <glyph glyph-name="uni0681.fina" unicode="&#x681;" horiz-adv-x="939" 
d="M536 324l-2 3q-159 56 -291 56q-80 0 -114 -50l32 -84l-14 -79l-11 -3l-84 158v18q0 75 52.5 118.5t139.5 43.5q109 0 340 -87q80 -31 175 -32l88 1l1 -2l-43 -101q-47 -5 -133 -28t-124 -38q-146 -57 -232.5 -137t-86.5 -169q0 -109 79.5 -191.5t202.5 -123t266 -40.5
q121 0 258 22l4 -10q-95 -88 -145 -119q-90 -18 -183 -18q-108 0 -205.5 29t-176 84t-125 145t-46.5 203q0 153 106 272t272 159zM517 829v-3q-10 -35 -28 -68q-142 -23 -247 -75l-2 3l16 42q18 24 42 33l-2 3q-40 12 -65 36t-26 58v5q0 38 33 76q51 57 111 57q32 0 51 -16
t20 -40v-3q0 -23 -22 -55h-2q-19 27 -29.5 34.5t-35.5 7.5q-29 0 -49 -11.5t-19 -23.5q1 -28 45 -46t107 -18q34 0 102 4zM663 221l33 24l3 -1q23 -116 195 -116h51l21 -128h-55q-216 0 -242 165q-5 29 -6 56z" />
    <glyph glyph-name="uni0682.init" unicode="&#x682;" horiz-adv-x="935" 
d="M7 128h60q121 0 243 44t262 137l1 4q-200 70 -330 70q-80 0 -114 -50l20 -50l-17 -90h-10l-70 132v18q0 75 52.5 118.5t139.5 43.5q109 0 340 -87q82 -31 175 -32l81 1l3 -2l-36 -105h-8q-102 0 -154 -37l-151 -109q-183 -134 -415 -134h-52q-43 0 -61.5 23.5t-18.5 49.5
q0 55 60 55zM319 936q-35 -62 -61 -90q-64 51 -134 102q28 49 64 92q61 -40 131 -104zM371 734q-35 -61 -61 -89q-62 49 -135 101q29 49 65 93q62 -42 131 -105z" />
    <glyph glyph-name="uni0682.medi" unicode="&#x682;" horiz-adv-x="915" 
d="M572 309l1 4q-200 70 -330 70q-80 0 -114 -50l20 -50l-17 -90h-10l-70 132v18q0 75 52.5 118.5t139.5 43.5q110 0 339 -86q89 -33 176 -33h87l2 -2l-45 -103q-104 0 -158 -38l-151 -109q-187 -134 -421 -134h-46q-43 0 -61.5 23.5t-18.5 49.5q0 55 60 55h60q121 0 243 44
t262 137zM663 221l33 24l3 -1q23 -116 195 -116h27l21 -128h-31q-216 0 -242 165q-5 29 -6 56zM319 936q-35 -62 -61 -90q-64 51 -134 102q28 49 64 92q61 -40 131 -104zM371 734q-35 -61 -61 -89q-62 49 -135 101q29 49 65 93q62 -42 131 -105z" />
    <glyph glyph-name="uni0682.fina" unicode="&#x682;" horiz-adv-x="939" 
d="M536 324l-2 3q-159 56 -291 56q-80 0 -114 -50l32 -84l-14 -79l-11 -3l-84 158v18q0 75 52.5 118.5t139.5 43.5q109 0 340 -87q80 -31 175 -32l88 1l1 -2l-43 -101q-47 -5 -133 -28t-124 -38q-146 -57 -232.5 -137t-86.5 -169q0 -109 79.5 -191.5t202.5 -123t266 -40.5
q121 0 258 22l4 -10q-95 -88 -145 -119q-90 -18 -183 -18q-108 0 -205.5 29t-176 84t-125 145t-46.5 203q0 153 106 272t272 159zM663 221l33 24l3 -1q23 -116 195 -116h51l21 -128h-55q-216 0 -242 165q-5 29 -6 56zM399 936q-35 -62 -61 -90q-64 51 -134 102q28 49 64 92
q61 -40 131 -104zM451 734q-35 -61 -61 -89q-62 49 -135 101q29 49 65 93q62 -42 131 -105z" />
    <glyph glyph-name="uni0685.init" unicode="&#x685;" horiz-adv-x="935" 
d="M7 128h60q121 0 243 44t262 137l1 4q-200 70 -330 70q-80 0 -114 -50l20 -50l-17 -90h-10l-70 132v18q0 75 52.5 118.5t139.5 43.5q109 0 340 -87q82 -31 175 -32l81 1l3 -2l-36 -105h-8q-102 0 -154 -37l-151 -109q-183 -134 -415 -134h-52q-43 0 -61.5 23.5t-18.5 49.5
q0 55 60 55zM318 952q-30 -58 -62 -92q-76 63 -133 104q28 50 64 95q54 -37 131 -107zM488 752q-32 -60 -61 -92q-70 58 -134 104q28 49 64 95q60 -41 131 -107zM298 739q-34 -61 -62 -92q-67 56 -133 104q28 50 64 95q58 -40 131 -107z" />
    <glyph glyph-name="uni0685.medi" unicode="&#x685;" horiz-adv-x="915" 
d="M572 309l1 4q-200 70 -330 70q-80 0 -114 -50l20 -50l-17 -90h-10l-70 132v18q0 75 52.5 118.5t139.5 43.5q110 0 339 -86q89 -33 176 -33h87l2 -2l-45 -103q-104 0 -158 -38l-151 -109q-187 -134 -421 -134h-46q-43 0 -61.5 23.5t-18.5 49.5q0 55 60 55h60q121 0 243 44
t262 137zM663 221l33 24l3 -1q23 -116 195 -116h27l21 -128h-31q-216 0 -242 165q-5 29 -6 56zM318 952q-30 -58 -62 -92q-76 63 -133 104q28 50 64 95q54 -37 131 -107zM488 752q-32 -60 -61 -92q-70 58 -134 104q28 49 64 95q60 -41 131 -107zM298 739q-34 -61 -62 -92
q-67 56 -133 104q28 50 64 95q58 -40 131 -107z" />
    <glyph glyph-name="uni0685.fina" unicode="&#x685;" horiz-adv-x="939" 
d="M536 324l-2 3q-159 56 -291 56q-80 0 -114 -50l32 -84l-14 -79l-11 -3l-84 158v18q0 75 52.5 118.5t139.5 43.5q109 0 340 -87q80 -31 175 -32l88 1l1 -2l-43 -101q-47 -5 -133 -28t-124 -38q-146 -57 -232.5 -137t-86.5 -169q0 -109 79.5 -191.5t202.5 -123t266 -40.5
q121 0 258 22l4 -10q-95 -88 -145 -119q-90 -18 -183 -18q-108 0 -205.5 29t-176 84t-125 145t-46.5 203q0 153 106 272t272 159zM663 221l33 24l3 -1q23 -116 195 -116h51l21 -128h-55q-216 0 -242 165q-5 29 -6 56zM571 742q-32 -59 -63 -92q-76 63 -133 104q28 50 64 95
q51 -35 132 -107zM399 942q-32 -60 -61 -92q-67 56 -133 104q28 50 64 95q60 -42 130 -107zM379 729q-35 -64 -61 -92q-68 55 -133 104q31 56 64 95q58 -41 130 -107z" />
    <glyph glyph-name="uni0689.fina" unicode="&#x689;" horiz-adv-x="770" 
d="M776 128l21 -128h-14q-153 0 -231 163h-5q-3 -61 -57 -96l-18 -12q37 -17 56.5 -49.5t19.5 -68.5q0 -54 -38 -92t-92 -38t-92 38t-38 92q0 33 15 63h-7q-83 0 -135.5 48t-68.5 137q-6 39 -9 74l39 3q27 -134 162 -134q77 0 155 50q53 33 53 70q0 53 -141 377
q39 80 54 103l7 -4q74 -178 165 -445q25 -72 74.5 -111.5t107.5 -39.5h17zM338 -63q0 -33 23.5 -56.5t56.5 -23.5t56.5 23.5t23.5 56.5t-23.5 56.5t-56.5 23.5t-56.5 -23.5t-23.5 -56.5z" />
    <glyph glyph-name="uni068A.fina" unicode="&#x68a;" horiz-adv-x="770" 
d="M304 -291q32 54 64 102q63 -40 138 -107q-28 -59 -68 -98q-48 39 -134 103zM776 128l21 -128h-14q-153 0 -231 163h-5q-3 -61 -57 -96q-99 -67 -194 -67q-83 0 -135.5 48t-68.5 137q-6 39 -9 74l39 3q27 -134 162 -134q77 0 155 50q53 33 53 70q0 53 -141 377
q39 80 54 103l7 -4q74 -178 165 -445q25 -72 74.5 -111.5t107.5 -39.5h17z" />
    <glyph glyph-name="uni068B.fina" unicode="&#x68b;" horiz-adv-x="770" 
d="M776 128l21 -128h-14q-153 0 -231 163h-5q-3 -61 -57 -96q-99 -67 -194 -67q-83 0 -135.5 48t-68.5 137q-6 39 -9 74l39 3q27 -134 162 -134q77 0 155 50q53 33 53 70q0 53 -141 377q39 80 54 103l7 -4q74 -178 165 -445q25 -72 74.5 -111.5t107.5 -39.5h17zM187 837
l-105 77l4 6l103 -4q7 15 7 42q0 36 -11 94.5t-24 110t-13 52.5q-1 3 -1 7q0 5 1.5 10.5t3 9.5t6.5 11t7 10t8.5 11.5t8.5 11.5h6q18 -53 58 -111l-31 -31l17 -101v-11q0 -15 -3 -30l4 -2q58 116 131 116q50 0 84 -38t34 -88q0 -22 -7 -52q-13 -50 -55 -73q-61 -31 -158 -31
q-52 0 -75 3zM324 -291q32 54 64 102q63 -40 138 -107q-28 -59 -68 -98q-48 39 -134 103zM226 917q194 5 221 58q-27 61 -85 61q-80 0 -136 -119z" />
    <glyph glyph-name="uni068F.fina" unicode="&#x68f;" horiz-adv-x="770" 
d="M456 1123q-30 -58 -62 -92q-76 63 -133 104q28 50 64 95q54 -37 131 -107zM265 1110q-35 -64 -61 -92q-68 55 -133 104q31 56 64 95q58 -41 130 -107zM437 911q-34 -61 -62 -92q-70 58 -134 104q31 52 65 95q58 -40 131 -107zM776 128l21 -128h-14q-153 0 -231 163h-5
q-3 -61 -57 -96q-99 -67 -194 -67q-83 0 -135.5 48t-68.5 137q-6 39 -9 74l39 3q27 -134 162 -134q77 0 155 50q53 33 53 70q0 53 -141 377q39 80 54 103l7 -4q74 -178 165 -445q25 -72 74.5 -111.5t107.5 -39.5h17z" />
    <glyph glyph-name="uni0690.fina" unicode="&#x690;" horiz-adv-x="770" 
d="M313 886q-35 -62 -58 -86q-51 44 -126 98q38 61 61 89q58 -40 123 -101zM492 899q-31 -59 -57 -87q-53 43 -125 98q27 52 60 89q51 -36 122 -100zM271 1076q-31 -58 -57 -86q-70 57 -126 98q32 53 61 89q60 -42 122 -101zM451 1088q-37 -65 -58 -86q-56 47 -125 98
q30 53 61 89q54 -37 122 -101zM776 128l21 -128h-14q-153 0 -231 163h-5q-3 -61 -57 -96q-99 -67 -194 -67q-83 0 -135.5 48t-68.5 137q-6 39 -9 74l39 3q27 -134 162 -134q77 0 155 50q53 33 53 70q0 53 -141 377q39 80 54 103l7 -4q74 -178 165 -445q25 -72 74.5 -111.5
t107.5 -39.5h17z" />
    <glyph glyph-name="uni0692.fina" unicode="&#x692;" horiz-adv-x="656" 
d="M378 343l6 1q66 -114 122.5 -165t137.5 -51h18l21 -128h-21q-67 0 -107 32h-4q11 -38 11 -82q0 -63 -19 -108q-41 -100 -95.5 -149.5t-112.5 -49.5q-104 0 -262 78l9 34q51 -22 119 -22q101 0 193 94t92 203v3q-12 21 -35 45q-63 75 -109 149q16 60 36 116zM431 768
q22 -39 35 -75q-110 -155 -117 -212l-17 -10q-21 61 -205 195l7 97h8q137 -117 182 -176h3q17 60 104 181z" />
    <glyph glyph-name="uni0693.fina" unicode="&#x693;" horiz-adv-x="696" 
d="M378 343l6 1q66 -114 122.5 -165t137.5 -51h18l21 -128h-21q-67 0 -107 32h-4q11 -38 11 -82q0 -56 -16 -101q17 2 29 2q58 0 94.5 -38.5t36.5 -90.5q0 -54 -38 -92t-92 -38q-47 0 -82 29t-45 73q-54 -51 -114 -51q-104 0 -262 78l9 34q51 -22 119 -22q101 0 193 94
t92 203v3q-12 21 -35 45q-63 75 -109 149q16 60 36 116zM496 -278q0 -33 23.5 -56.5t56.5 -23.5t56.5 23.5t23.5 56.5t-23.5 56.5t-56.5 23.5t-56.5 -23.5t-23.5 -56.5z" />
    <glyph glyph-name="uni0694.fina" unicode="&#x694;" horiz-adv-x="656" 
d="M378 343l6 1q66 -114 122.5 -165t137.5 -51h18l21 -128h-21q-67 0 -107 32h-4q11 -38 11 -82q0 -63 -19 -108q-41 -100 -95.5 -149.5t-112.5 -49.5q-104 0 -262 78l9 34q51 -22 119 -22q101 0 193 94t92 203v3q-12 21 -35 45q-63 75 -109 149q16 60 36 116zM471 -511
q25 44 65 102q57 -36 138 -107q-27 -57 -68 -98q-39 32 -135 103z" />
    <glyph glyph-name="uni0695.fina" unicode="&#x695;" horiz-adv-x="656" 
d="M378 343l6 1q66 -114 122.5 -165t137.5 -51h18l21 -128h-21q-67 0 -107 32h-4q11 -38 11 -82q0 -63 -19 -108q-41 -100 -95.5 -149.5t-112.5 -49.5q-104 0 -262 78l9 34q51 -22 119 -22q101 0 193 94t92 203v3q-12 21 -35 45q-63 75 -109 149q16 60 36 116zM612 -442
q17 -30 35 -75q-110 -152 -117 -212l-18 -10q-21 61 -205 195l7 97h8q137 -117 182 -176h3q18 61 105 181z" />
    <glyph glyph-name="uni0696.fina" unicode="&#x696;" horiz-adv-x="656" 
d="M378 343l6 1q66 -114 122.5 -165t137.5 -51h18l21 -128h-21q-67 0 -107 32h-4q11 -38 11 -82q0 -63 -19 -108q-41 -100 -95.5 -149.5t-112.5 -49.5q-104 0 -262 78l9 34q51 -22 119 -22q101 0 193 94t92 203v3q-12 21 -35 45q-63 75 -109 149q16 60 36 116zM471 -511
q25 44 65 102q57 -36 138 -107q-27 -57 -68 -98q-39 32 -135 103zM112 0q39 66 64 102q69 -45 137 -107q-24 -54 -68 -98q-5 4 -133 103z" />
    <glyph glyph-name="uni0697.fina" unicode="&#x697;" horiz-adv-x="656" 
d="M378 343l6 1q66 -114 122.5 -165t137.5 -51h18l21 -128h-21q-67 0 -107 32h-4q11 -38 11 -82q0 -63 -19 -108q-41 -100 -95.5 -149.5t-112.5 -49.5q-104 0 -262 78l9 34q51 -22 119 -22q101 0 193 94t92 203v3q-12 21 -35 45q-63 75 -109 149q16 60 36 116zM286 559
q-35 -64 -62 -92q-67 56 -133 104q34 59 65 95q58 -41 130 -107zM477 572q-30 -58 -62 -92q-76 63 -133 104q28 50 64 95q58 -40 131 -107z" />
    <glyph glyph-name="uni0699.fina" unicode="&#x699;" horiz-adv-x="656" 
d="M378 343l6 1q66 -114 122.5 -165t137.5 -51h18l21 -128h-21q-67 0 -107 32h-4q11 -38 11 -82q0 -63 -19 -108q-41 -100 -95.5 -149.5t-112.5 -49.5q-104 0 -262 78l9 34q51 -22 119 -22q101 0 193 94t92 203v3q-12 21 -35 45q-63 75 -109 149q16 60 36 116zM290 546
q-35 -62 -59 -86q-66 55 -125 98q25 45 60 89q58 -39 124 -101zM248 736q-32 -58 -58 -86q-67 55 -125 98q26 45 61 89q60 -42 122 -101zM428 748q-35 -62 -58 -86q-56 47 -125 98q29 52 60 89q58 -40 123 -101zM469 559q-27 -51 -57 -87q-53 43 -125 98q26 50 59 89
q55 -39 123 -100z" />
    <glyph glyph-name="uni069A.init" unicode="&#x69a;" horiz-adv-x="905" 
d="M758 431l7 -3q6 -24 17 -62.5t16 -56.5t9 -44.5t4 -49.5q0 -56 -16 -102q-51 -110 -132 -110q-65 0 -138 83h-8q-63 -86 -160 -86q-88 0 -110 85h-4q-60 -85 -199 -85h-17q-43 0 -61.5 23.5t-18.5 49.5q0 55 60 55h33q148 2 196 93l43 79l72 27l6 -5q-46 -94 -46 -134
q0 -27 16.5 -43.5t43.5 -16.5q47 0 84 29q6 5 10.5 10.5t7.5 10t6 14t5 15.5t4.5 20.5t3.5 23t4 30.5t5 35l55 35l6 -4q-2 -24 -2 -37q0 -27 4 -61q8 -53 45 -84t77 -31q20 0 34 9.5t14 27.5q0 43 -51 170q33 49 75 90zM322 690q25 44 65 102q61 -40 138 -107
q-30 -60 -68 -98q-39 32 -135 103zM467 -290q32 54 64 102q67 -44 138 -107q-28 -59 -68 -98q-26 22 -134 103z" />
    <glyph glyph-name="uni069A.medi" unicode="&#x69a;" horiz-adv-x="1024" 
d="M1030 128l21 -128h-25q-164 0 -221 94h-6q-66 -94 -156 -94q-91 0 -123 83h-4q-63 -83 -159 -83q-88 0 -110 85h-4q-60 -85 -199 -85h-17q-43 0 -61.5 23.5t-18.5 49.5q0 55 60 55h33q71 1 119 22.5t77 70.5l38 78l72 27l6 -5q-43 -100 -43 -134q0 -26 18 -42.5t44 -16.5
q47 0 82 30q33 27 52 88l14 59l71 35l4 -4q-19 -80 -19 -118q0 -90 67 -90q35 0 66 22q36 26 43 96q4 30 6 79l69 51l4 -3q-6 -54 -6 -87q0 -82 44.5 -120t139.5 -38h22zM497 -290q32 54 64 102q67 -44 138 -107q-28 -59 -68 -98q-26 22 -134 103zM364 680q34 58 65 102
q67 -45 137 -107q-28 -59 -68 -98q-48 39 -134 103z" />
    <glyph glyph-name="uni069A.fina" unicode="&#x69a;" horiz-adv-x="1467" 
d="M774 680q34 58 65 102q67 -45 137 -107q-28 -59 -68 -98q-48 39 -134 103zM998 -300q25 44 65 102q67 -45 137 -107q-28 -59 -67 -98q-39 32 -135 103zM800 0h-20q-2 -114 -14 -160q-24 -85 -111.5 -140t-193.5 -55q-83 0 -150 31t-109 85t-64.5 123t-22.5 147
q0 116 41 201l38 -18q-22 -75 -22 -140q0 -131 85 -210t201 -79q105 0 185 63t80 133q0 46 -41.5 123.5t-104.5 157.5q17 46 49 107h4q66 -99 112 -191q15 -27 30.5 -38.5t41.5 -11.5q34 0 71 28q36 30 46 79l14 74l64 31l4 -5q-9 -60 -9 -102q0 -48 16.5 -76.5t64.5 -28.5
q89 0 102 133l6 70l66 43l5 -5q-6 -58 -6 -92q0 -79 47.5 -114t145.5 -35h22l21 -128h-25q-174 0 -231 94h-6q-66 -94 -160 -94q-89 0 -121 83h-6q-42 -83 -145 -83z" />
    <glyph glyph-name="uni069B.init" unicode="&#x69b;" horiz-adv-x="905" 
d="M758 431l7 -3q6 -24 17 -62.5t16 -56.5t9 -44.5t4 -49.5q0 -56 -16 -102q-51 -110 -132 -110q-65 0 -138 83h-8q-63 -86 -160 -86q-88 0 -110 85h-4q-60 -85 -199 -85h-17q-43 0 -61.5 23.5t-18.5 49.5q0 55 60 55h33q148 2 196 93l43 79l72 27l6 -5q-46 -94 -46 -134
q0 -27 16.5 -43.5t43.5 -16.5q47 0 84 29q6 5 10.5 10.5t7.5 10t6 14t5 15.5t4.5 20.5t3.5 23t4 30.5t5 35l55 35l6 -4q-2 -24 -2 -37q0 -27 4 -61q8 -53 45 -84t77 -31q20 0 34 9.5t14 27.5q0 43 -51 170q33 49 75 90zM724 -459q-34 -62 -63 -92q-76 63 -133 104
q33 57 64 95q52 -35 132 -107zM552 -260q-35 -64 -62 -92q-67 56 -133 104q34 59 65 95q58 -41 130 -107zM742 -247q-28 -57 -61 -92q-76 63 -133 104q28 50 64 95q57 -39 130 -107z" />
    <glyph glyph-name="uni069B.medi" unicode="&#x69b;" horiz-adv-x="1024" 
d="M1030 128l21 -128h-25q-164 0 -221 94h-6q-66 -94 -156 -94q-91 0 -123 83h-4q-63 -83 -159 -83q-88 0 -110 85h-4q-60 -85 -199 -85h-17q-43 0 -61.5 23.5t-18.5 49.5q0 55 60 55h33q71 1 119 22.5t77 70.5l38 78l72 27l6 -5q-43 -100 -43 -134q0 -26 18 -42.5t44 -16.5
q47 0 82 30q33 27 52 88l14 59l71 35l4 -4q-19 -80 -19 -118q0 -90 67 -90q35 0 66 22q36 26 43 96q4 30 6 79l69 51l4 -3q-6 -54 -6 -87q0 -82 44.5 -120t139.5 -38h22zM734 -459q-34 -62 -63 -92q-76 63 -133 104q33 57 64 95q52 -35 132 -107zM562 -260q-35 -64 -62 -92
q-67 56 -133 104q34 59 65 95q58 -41 130 -107zM752 -247q-28 -57 -61 -92q-76 63 -133 104q28 50 64 95q57 -39 130 -107z" />
    <glyph glyph-name="uni069B.fina" unicode="&#x69b;" horiz-adv-x="1467" 
d="M1272 -247q-28 -57 -61 -92q-76 63 -133 104q28 50 64 95q57 -39 130 -107zM1082 -260q-35 -64 -62 -92q-67 56 -133 104q34 59 65 95q58 -41 130 -107zM1254 -459q-34 -62 -63 -92q-76 63 -133 104q33 57 64 95q52 -35 132 -107zM800 0h-20q-2 -114 -14 -160
q-24 -85 -111.5 -140t-193.5 -55q-83 0 -150 31t-109 85t-64.5 123t-22.5 147q0 116 41 201l38 -18q-22 -75 -22 -140q0 -131 85 -210t201 -79q105 0 185 63t80 133q0 46 -41.5 123.5t-104.5 157.5q17 46 49 107h4q66 -99 112 -191q15 -27 30.5 -38.5t41.5 -11.5q34 0 71 28
q36 30 46 79l14 74l64 31l4 -5q-9 -60 -9 -102q0 -48 16.5 -76.5t64.5 -28.5q89 0 102 133l6 70l66 43l5 -5q-6 -58 -6 -92q0 -79 47.5 -114t145.5 -35h22l21 -128h-25q-174 0 -231 94h-6q-66 -94 -160 -94q-89 0 -121 83h-6q-42 -83 -145 -83z" />
    <glyph glyph-name="uni069C.init" unicode="&#x69c;" horiz-adv-x="905" 
d="M758 431l7 -3q6 -24 17 -62.5t16 -56.5t9 -44.5t4 -49.5q0 -56 -16 -102q-51 -110 -132 -110q-65 0 -138 83h-8q-63 -86 -160 -86q-88 0 -110 85h-4q-60 -85 -199 -85h-17q-43 0 -61.5 23.5t-18.5 49.5q0 55 60 55h33q148 2 196 93l43 79l72 27l6 -5q-46 -94 -46 -134
q0 -27 16.5 -43.5t43.5 -16.5q47 0 84 29q6 5 10.5 10.5t7.5 10t6 14t5 15.5t4.5 20.5t3.5 23t4 30.5t5 35l55 35l6 -4q-2 -24 -2 -37q0 -27 4 -61q8 -53 45 -84t77 -31q20 0 34 9.5t14 27.5q0 43 -51 170q33 49 75 90zM744 -459q-34 -62 -63 -92q-76 63 -133 104
q33 57 64 95q52 -35 132 -107zM472 589q-34 -62 -63 -92q-76 63 -133 104q33 57 64 95q52 -35 132 -107zM572 -260q-35 -64 -62 -92q-67 56 -133 104q34 59 65 95q58 -41 130 -107zM762 -247q-28 -57 -61 -92q-76 63 -133 104q28 50 64 95q57 -39 130 -107zM662 602
q-34 -61 -61 -92q-59 49 -134 104q24 42 64 95q64 -45 131 -107zM491 802q-32 -60 -61 -92q-67 56 -133 104q28 50 64 95q60 -42 130 -107z" />
    <glyph glyph-name="uni069C.medi" unicode="&#x69c;" horiz-adv-x="1024" 
d="M1030 128l21 -128h-25q-164 0 -221 94h-6q-66 -94 -156 -94q-91 0 -123 83h-4q-63 -83 -159 -83q-88 0 -110 85h-4q-60 -85 -199 -85h-17q-43 0 -61.5 23.5t-18.5 49.5q0 55 60 55h33q71 1 119 22.5t77 70.5l38 78l72 27l6 -5q-43 -100 -43 -134q0 -26 18 -42.5t44 -16.5
q47 0 82 30q33 27 52 88l14 59l71 35l4 -4q-19 -80 -19 -118q0 -90 67 -90q35 0 66 22q36 26 43 96q4 30 6 79l69 51l4 -3q-6 -54 -6 -87q0 -82 44.5 -120t139.5 -38h22zM764 -459q-34 -62 -63 -92q-76 63 -133 104q33 57 64 95q52 -35 132 -107zM592 -260q-35 -64 -62 -92
q-67 56 -133 104q34 59 65 95q58 -41 130 -107zM503 579q-35 -64 -62 -92q-67 56 -133 104q33 57 64 95q58 -40 131 -107zM782 -247q-28 -57 -61 -92q-76 63 -133 104q28 50 64 95q57 -39 130 -107zM523 792q-34 -61 -61 -92q-59 49 -134 104q24 42 64 95q64 -45 131 -107z
M693 592q-32 -60 -61 -92q-67 56 -133 104q28 50 64 95q60 -42 130 -107z" />
    <glyph glyph-name="uni069C.fina" unicode="&#x69c;" horiz-adv-x="1467" 
d="M1122 602q-34 -61 -61 -92q-59 49 -134 104q24 42 64 95q64 -45 131 -107zM932 589q-34 -62 -63 -92q-76 63 -133 104q33 57 64 95q52 -35 132 -107zM951 802q-32 -60 -61 -92q-67 56 -133 104q28 50 64 95q60 -42 130 -107zM1282 -247q-28 -57 -61 -92q-76 63 -133 104
q28 50 64 95q57 -39 130 -107zM1092 -260q-35 -64 -62 -92q-67 56 -133 104q34 59 65 95q58 -41 130 -107zM1264 -459q-34 -62 -63 -92q-76 63 -133 104q33 57 64 95q52 -35 132 -107zM800 0h-20q-2 -114 -14 -160q-24 -85 -111.5 -140t-193.5 -55q-83 0 -150 31t-109 85
t-64.5 123t-22.5 147q0 116 41 201l38 -18q-22 -75 -22 -140q0 -131 85 -210t201 -79q105 0 185 63t80 133q0 46 -41.5 123.5t-104.5 157.5q17 46 49 107h4q66 -99 112 -191q15 -27 30.5 -38.5t41.5 -11.5q34 0 71 28q36 30 46 79l14 74l64 31l4 -5q-9 -60 -9 -102
q0 -48 16.5 -76.5t64.5 -28.5q89 0 102 133l6 70l66 43l5 -5q-6 -58 -6 -92q0 -79 47.5 -114t145.5 -35h22l21 -128h-25q-174 0 -231 94h-6q-66 -94 -160 -94q-89 0 -121 83h-6q-42 -83 -145 -83z" />
    <glyph glyph-name="uni069D.init" unicode="&#x69d;" horiz-adv-x="1066" 
d="M7 128h21q67 0 108 22.5t43 65.5q4 76 8 114q22 24 57 52l8 -6q-4 -25 -4 -57q0 -104 81 -148q80 165 165 254q105 109 223 109q67 0 120 -31.5t83 -78.5q46 -70 46 -148q0 -27 -7 -64q-21 -126 -179 -181q-86 -31 -243 -31q-212 0 -306 105h-3q-51 -105 -189 -105h-12
q-43 0 -61.5 23.5t-18.5 49.5q0 55 60 55zM384 149q65 -21 190 -21q139 0 251 57q70 37 70 67q0 11 -8 29t-24.5 40.5t-38.5 42t-55 32.5t-69 13q-86 0 -170 -71.5t-146 -188.5zM666 -307q-34 -62 -63 -92q-75 62 -132 104q31 56 64 95q51 -35 131 -107zM856 -294
q-30 -57 -61 -92q-70 58 -134 104q24 42 64 95q60 -41 131 -107z" />
    <glyph glyph-name="uni069D.medi" unicode="&#x69d;" horiz-adv-x="1063" 
d="M7 128h21q67 0 108 22.5t43 65.5q4 76 8 114q22 24 57 52l8 -6q-4 -25 -4 -57q0 -106 76 -148q79 164 166 252q101 103 208 103q114 0 188.5 -78t74.5 -182q0 -68 -25 -138h133l21 -128h-26q-152 0 -305 35q-107 -35 -227 -35q-206 0 -301 105h-3q-51 -105 -189 -105h-12
q-43 0 -61.5 23.5t-18.5 49.5q0 55 60 55zM383 149q65 -21 186 -21q71 0 141.5 13.5t110.5 31.5q71 31 71 70q0 40 -62.5 97t-147.5 57q-158 0 -299 -248zM666 -307q-34 -62 -63 -92q-75 62 -132 104q31 56 64 95q51 -35 131 -107zM856 -294q-30 -57 -61 -92
q-70 58 -134 104q24 42 64 95q60 -41 131 -107z" />
    <glyph glyph-name="uni069D.fina" unicode="&#x69d;" horiz-adv-x="1477" 
d="M738 171q78 162 166 251q102 104 208 104q114 0 188.5 -78t74.5 -182q0 -68 -25 -138h133l21 -128h-38q-140 0 -293 35q-107 -35 -227 -35q-34 0 -62 1.5t-47 5t-30.5 5.5t-23 6t-13.5 4v-16q0 -81 -15 -138q-25 -87 -107 -144.5t-185 -57.5q-85 0 -153.5 34t-110.5 91.5
t-64.5 129.5t-22.5 151q0 113 39 191l41 -18q-23 -77 -23 -138q0 -133 84.5 -217t199.5 -84q87 0 161 58t94 129q-43 176 -158 318q17 47 58 107l8 -1q82 -107 122 -246zM797 149q65 -21 186 -21q69 0 140 13t112 32q71 31 71 70q0 14 -14.5 38.5t-39.5 51t-67 45.5t-89 19
q-158 0 -299 -248zM1090 -307q-34 -62 -63 -92q-75 62 -132 104q31 56 64 95q51 -35 131 -107zM1280 -294q-30 -57 -61 -92q-70 58 -134 104q24 42 64 95q60 -41 131 -107z" />
    <glyph glyph-name="uni069E.init" unicode="&#x69e;" horiz-adv-x="1066" 
d="M7 128h21q67 0 108 22.5t43 65.5q4 76 8 114q22 24 57 52l8 -6q-4 -25 -4 -57q0 -104 81 -148q80 165 165 254q105 109 223 109q67 0 120 -31.5t83 -78.5q46 -70 46 -148q0 -27 -7 -64q-21 -126 -179 -181q-86 -31 -243 -31q-212 0 -306 105h-3q-51 -105 -189 -105h-12
q-43 0 -61.5 23.5t-18.5 49.5q0 55 60 55zM384 149q65 -21 190 -21q139 0 251 57q70 37 70 67q0 11 -8 29t-24.5 40.5t-38.5 42t-55 32.5t-69 13q-86 0 -170 -71.5t-146 -188.5zM732 762q-30 -58 -62 -92q-76 63 -133 104q28 50 64 95q54 -37 131 -107zM561 962
q-32 -60 -61 -92q-70 58 -134 104q28 49 64 95q60 -41 131 -107zM541 749q-35 -64 -62 -92q-63 52 -132 104q31 56 64 95q58 -41 130 -107z" />
    <glyph glyph-name="uni069E.medi" unicode="&#x69e;" horiz-adv-x="1063" 
d="M7 128h21q67 0 108 22.5t43 65.5q4 76 8 114q22 24 57 52l8 -6q-4 -25 -4 -57q0 -106 76 -148q79 164 166 252q101 103 208 103q114 0 188.5 -78t74.5 -182q0 -68 -25 -138h133l21 -128h-26q-152 0 -305 35q-107 -35 -227 -35q-206 0 -301 105h-3q-51 -105 -189 -105h-12
q-43 0 -61.5 23.5t-18.5 49.5q0 55 60 55zM383 149q65 -21 186 -21q71 0 141.5 13.5t110.5 31.5q71 31 71 70q0 40 -62.5 97t-147.5 57q-158 0 -299 -248zM732 762q-30 -58 -62 -92q-76 63 -133 104q28 50 64 95q54 -37 131 -107zM561 962q-32 -60 -61 -92q-70 58 -134 104
q28 49 64 95q60 -41 131 -107zM541 749q-35 -64 -62 -92q-63 52 -132 104q31 56 64 95q58 -41 130 -107z" />
    <glyph glyph-name="uni069E.fina" unicode="&#x69e;" horiz-adv-x="1477" 
d="M738 171q78 162 166 251q102 104 208 104q114 0 188.5 -78t74.5 -182q0 -68 -25 -138h133l21 -128h-38q-140 0 -293 35q-107 -35 -227 -35q-34 0 -62 1.5t-47 5t-30.5 5.5t-23 6t-13.5 4v-16q0 -81 -15 -138q-25 -87 -107 -144.5t-185 -57.5q-85 0 -153.5 34t-110.5 91.5
t-64.5 129.5t-22.5 151q0 113 39 191l41 -18q-23 -77 -23 -138q0 -133 84.5 -217t199.5 -84q87 0 161 58t94 129q-43 176 -158 318q17 47 58 107l8 -1q82 -107 122 -246zM797 149q65 -21 186 -21q69 0 140 13t112 32q71 31 71 70q0 14 -14.5 38.5t-39.5 51t-67 45.5t-89 19
q-158 0 -299 -248zM1066 762q-30 -58 -62 -92q-76 63 -133 104q28 50 64 95q54 -37 131 -107zM895 962q-32 -60 -61 -92q-70 58 -134 104q28 49 64 95q60 -41 131 -107zM875 749q-35 -64 -62 -92q-63 52 -132 104q31 56 64 95q58 -41 130 -107z" />
    <glyph glyph-name="uni069F.init" unicode="&#x69f;" horiz-adv-x="925" 
d="M7 128h91l39 91q2 30 2 44q0 41 -7.5 99t-23.5 137t-26.5 127.5t-32 141.5t-25.5 109q-17 65 -21 98q0 2 -0.5 6t-0.5 5v5q0 45 60 99l9 -7q13 -84 119 -219l-57 -51q3 -23 35.5 -181t32.5 -242q0 -56 -12 -101h4q103 124 191 187q87 60 178 60q90 0 158 -56
q48 -40 76 -93t28 -102q0 -35 -7 -88q-6 -42 -35.5 -74.5t-78 -53.5t-103 -35.5t-120 -21.5t-119 -9.5t-109.5 -2.5h-225q-43 0 -61.5 23.5t-18.5 49.5q0 55 60 55zM167 128h88q312 0 449 75q38 20 52 46q-9 56 -73.5 105t-142.5 49q-184 0 -373 -275zM498 950
q-30 -55 -58 -86q-87 70 -126 98q16 28 60 89q58 -39 124 -101zM476 757q-30 -55 -58 -86q-89 71 -125 98q19 36 60 89q63 -44 123 -101zM661 769q-34 -60 -58 -86q-60 50 -126 98q32 54 61 89q56 -40 123 -101z" />
    <glyph glyph-name="uni069F.medi" unicode="&#x69f;" horiz-adv-x="940" 
d="M7 128h69l61 91q2 30 2 44q0 42 -7 98t-23.5 138.5t-25.5 124.5t-33 144t-26 109q-17 65 -21 98q0 2 -0.5 6t-0.5 5v5q0 45 60 99l9 -7q13 -84 119 -220l-57 -50q3 -23 35.5 -181t32.5 -242q0 -56 -12 -101h4q100 127 184 183q79 55 177 55q110 0 195 -87.5t85 -186.5
q0 -45 -30 -120q31 -5 103 -5h39l21 -128h-24q-170 0 -330 32q-170 -32 -515 -32h-71q-43 0 -61.5 23.5t-18.5 49.5q0 55 60 55zM162 128h93q462 0 502 93q-10 65 -80.5 117.5t-154.5 52.5q-92 0 -173 -63t-187 -200zM508 950q-30 -55 -58 -86q-87 70 -126 98q16 28 60 89
q58 -39 124 -101zM486 757q-30 -55 -58 -86q-89 71 -125 98q19 36 60 89q63 -44 123 -101zM671 769q-34 -60 -58 -86q-60 50 -126 98q32 54 61 89q56 -40 123 -101z" />
    <glyph glyph-name="uni069F.fina" unicode="&#x69f;" horiz-adv-x="1179" 
d="M337 128l39 91q2 30 2 44q0 56 -14.5 148t-27 150.5t-41.5 181t-32 134.5q-17 64 -22 98q0 2 -0.5 6t-0.5 5v5q0 44 61 99l9 -7q13 -84 119 -220l-57 -50q3 -23 35.5 -181t32.5 -242q0 -56 -12 -101h4q100 127 184 183q79 55 177 55q108 0 194 -86t86 -187
q0 -46 -30 -121q31 -5 103 -5h39l21 -128h-24q-170 0 -330 32q-158 -32 -380 -32q-72 0 -116 4l-66 -121l-10 8v22q0 63 15 98l-78 9q-95 67 -164 130l1 12q148 -30 283 -34zM401 128h89q466 0 506 93q-10 65 -80.5 117.5t-154.5 52.5q-92 0 -173 -63t-187 -200zM737 950
q-30 -55 -58 -86q-87 70 -126 98q16 28 60 89q58 -39 124 -101zM715 757q-30 -55 -58 -86q-89 71 -125 98q19 36 60 89q63 -44 123 -101zM900 769q-34 -60 -58 -86q-60 50 -126 98q32 54 61 89q56 -40 123 -101z" />
    <glyph glyph-name="uni06A0.init" unicode="&#x6a0;" horiz-adv-x="733" 
d="M7 128h62q74 0 145 21l-2 5q-149 88 -149 221q0 50 24 106q28 62 75.5 98t110.5 36q138 0 248 -163l-16 -20q-86 64 -189 64q-74 0 -122 -26t-48 -55q0 -32 29.5 -71.5t78.5 -73.5q33 -23 70.5 -38.5t59.5 -15.5q36 0 83.5 10.5t84 23t106.5 37.5l7 -5l-34 -124
q-83 -31 -188 -59.5t-150 -44.5q-57 -20 -83 -28t-70.5 -17t-81.5 -9h-31q-43 0 -61.5 23.5t-18.5 49.5q0 55 60 55zM197 779q-34 -62 -63 -92q-75 62 -132 104q30 54 63 95q51 -35 132 -107zM217 992q-34 -61 -62 -92q-67 56 -133 104q28 50 64 95q58 -40 131 -107z
M387 792q-34 -61 -61 -92q-59 49 -134 104q24 42 64 95q64 -45 131 -107z" />
    <glyph glyph-name="uni06A0.medi" unicode="&#x6a0;" horiz-adv-x="748" 
d="M7 128h41q77 0 132 9t122 41l-1 4q-23 16 -49.5 37t-60 49.5t-50.5 42.5q-53 42 -76 42h-31l-3 2l21 115l31 4q146 33 264 33q169 0 296 -50l-18 -109l-148 -161v-4q112 -55 237 -55h40l21 -128h-30q-85 0 -178.5 30.5t-174.5 86.5h-4q-78 -64 -156.5 -90.5t-173.5 -26.5
h-31q-43 0 -61.5 23.5t-18.5 49.5q0 55 60 55zM392 226h4q100 82 160 149v4q-112 25 -194 25q-84 0 -179 -18v-4q12 -9 37.5 -31t30.5 -26q65 -52 141 -99zM462 762q-30 -58 -62 -92q-76 63 -133 104q28 50 64 95q54 -37 131 -107zM291 962q-32 -60 -61 -92q-70 58 -134 104
q28 49 64 95q60 -41 131 -107zM271 749q-35 -64 -62 -92q-63 52 -132 104q31 56 64 95q58 -41 130 -107z" />
    <glyph glyph-name="uni06A0.fina" unicode="&#x6a0;" horiz-adv-x="842" 
d="M547 762q-30 -58 -62 -92q-76 63 -133 104q28 50 64 95q54 -37 131 -107zM356 749q-35 -64 -62 -92q-63 52 -132 104q31 56 64 95q58 -41 130 -107zM376 962q-32 -60 -61 -92q-70 58 -134 104q28 49 64 95q60 -41 131 -107zM455 128h-6q-251 -139 -251 -272
q0 -90 68.5 -160t182 -107.5t249.5 -37.5q144 0 255 29l9 -18q-84 -71 -151 -112q-47 -29 -163 -29q-99 0 -189 26.5t-163.5 77t-117.5 133.5t-44 187q0 199 220 353q-21 16 -44.5 36t-51 44t-42.5 37q-4 3 -12 10t-12 10t-11 8.5t-11.5 8.5t-10 6t-10.5 4.5t-9 1.5
q-12 0 -46 -12l-7 9l25 109l45 8q148 33 266 33q174 0 291 -46l-6 -113l-167 -166v-4q109 -54 249 -54h58l21 -129h-47q-86 0 -184.5 35.5t-182.5 93.5zM445 236l4 -1q8 5 35 24t40 28.5t35 26.5t39.5 33.5t32.5 33.5l-1 6q-109 23 -198 23q-98 0 -185 -20v-5q7 -5 39 -28.5
t46 -34.5q88 -68 113 -86z" />
    <glyph glyph-name="uni06A1.init" unicode="&#x6a1;" horiz-adv-x="574" 
d="M7 128h83q151 0 215 20q45 14 74.5 37t29.5 43q0 16 -5 25q-36 -4 -113 -4q-190 0 -256 108q-29 46 -29 117q0 95 47 152q54 67 118 67q117 0 222 -198q34 -65 59 -146t25 -154q0 -55 -29 -96q-37 -53 -120 -76t-220 -23h-81q-43 0 -61.5 23.5t-18.5 49.5q0 55 60 55z
M370 368q-28 76 -85.5 135t-115.5 59q-46 0 -76.5 -27t-28.5 -58q3 -56 84.5 -82.5t212.5 -26.5h9z" />
    <glyph glyph-name="uni06A1.medi" unicode="&#x6a1;" horiz-adv-x="660" 
d="M7 128h16q55 0 158 24q-64 84 -64 210q0 104 57 177q33 41 71 67t65 26q58 0 135 -111q66 -97 66 -215q0 -73 -36 -160q64 -18 159 -18h32l21 -128h-29q-146 0 -338 64q-169 -64 -275 -64h-18q-43 0 -61.5 23.5t-18.5 49.5q0 55 60 55zM323 184q50 10 95 47.5t45 67.5
q0 35 -39 95q-59 90 -113 90q-55 0 -98 -53.5t-48 -113.5q39 -99 158 -133z" />
    <glyph glyph-name="uni06A1.fina" unicode="&#x6a1;" horiz-adv-x="1462" 
d="M1152 54q-107 -43 -255 -69t-271 -26q-221 0 -358 77q-97 55 -147 147.5t-50 209.5q0 86 28 156l43 -17q-10 -57 -10 -95q0 -88 44.5 -161t126.5 -117q118 -64 325 -64q191 0 364 44l-9 13q-64 85 -64 205q0 109 57 182q32 41 70.5 67t65.5 26t63.5 -29.5t71.5 -81.5
q66 -97 66 -215q0 -73 -36 -160q64 -18 159 -18h32l21 -128h-29q-78 0 -145.5 11t-162.5 43zM1132 178q49 13 91 51.5t42 69.5q0 35 -39 95q-59 90 -113 90q-55 0 -98 -53.5t-48 -113.5q41 -103 165 -139z" />
    <glyph glyph-name="uni06A2.init" unicode="&#x6a2;" horiz-adv-x="574" 
d="M7 128h83q151 0 215 20q45 14 74.5 37t29.5 43q0 16 -5 25q-36 -4 -113 -4q-190 0 -256 108q-29 46 -29 117q0 95 47 152q54 67 118 67q117 0 222 -198q34 -65 59 -146t25 -154q0 -55 -29 -96q-37 -53 -120 -76t-220 -23h-81q-43 0 -61.5 23.5t-18.5 49.5q0 55 60 55z
M370 368q-28 76 -85.5 135t-115.5 59q-46 0 -76.5 -27t-28.5 -58q3 -56 84.5 -82.5t212.5 -26.5h9zM227 -291q32 54 64 102q63 -40 138 -107q-28 -59 -68 -98q-48 39 -134 103z" />
    <glyph glyph-name="uni06A2.medi" unicode="&#x6a2;" horiz-adv-x="660" 
d="M7 128h16q55 0 158 24q-64 84 -64 210q0 104 57 177q33 41 71 67t65 26q58 0 135 -111q66 -97 66 -215q0 -73 -36 -160q64 -18 159 -18h32l21 -128h-29q-146 0 -338 64q-169 -64 -275 -64h-18q-43 0 -61.5 23.5t-18.5 49.5q0 55 60 55zM323 184q50 10 95 47.5t45 67.5
q0 35 -39 95q-59 90 -113 90q-55 0 -98 -53.5t-48 -113.5q39 -99 158 -133zM297 -291q32 54 64 102q63 -40 138 -107q-28 -59 -68 -98q-48 39 -134 103z" />
    <glyph glyph-name="uni06A2.fina" unicode="&#x6a2;" horiz-adv-x="1462" 
d="M1116 -291q32 54 64 102q63 -40 138 -107q-28 -59 -68 -98q-48 39 -134 103zM1152 54q-107 -43 -255 -69t-271 -26q-221 0 -358 77q-97 55 -147 147.5t-50 209.5q0 86 28 156l43 -17q-10 -57 -10 -95q0 -88 44.5 -161t126.5 -117q118 -64 325 -64q191 0 364 44l-9 13
q-64 85 -64 205q0 109 57 182q32 41 70.5 67t65.5 26t63.5 -29.5t71.5 -81.5q66 -97 66 -215q0 -73 -36 -160q64 -18 159 -18h32l21 -128h-29q-78 0 -145.5 11t-162.5 43zM1132 178q49 13 91 51.5t42 69.5q0 35 -39 95q-59 90 -113 90q-55 0 -98 -53.5t-48 -113.5
q41 -103 165 -139z" />
    <glyph glyph-name="uni06A3.init" unicode="&#x6a3;" horiz-adv-x="574" 
d="M7 128h83q151 0 215 20q45 14 74.5 37t29.5 43q0 16 -5 25q-36 -4 -113 -4q-190 0 -256 108q-29 46 -29 117q0 95 47 152q54 67 118 67q117 0 222 -198q34 -65 59 -146t25 -154q0 -55 -29 -96q-37 -53 -120 -76t-220 -23h-81q-43 0 -61.5 23.5t-18.5 49.5q0 55 60 55z
M370 368q-28 76 -85.5 135t-115.5 59q-46 0 -76.5 -27t-28.5 -58q3 -56 84.5 -82.5t212.5 -26.5h9zM227 -291q32 54 64 102q63 -40 138 -107q-28 -59 -68 -98q-48 39 -134 103zM13 909q39 67 65 102q69 -46 136 -107q-26 -58 -67 -98q-48 39 -134 103z" />
    <glyph glyph-name="uni06A3.medi" unicode="&#x6a3;" horiz-adv-x="660" 
d="M7 128h16q55 0 158 24q-64 84 -64 210q0 104 57 177q33 41 71 67t65 26q58 0 135 -111q66 -97 66 -215q0 -73 -36 -160q64 -18 159 -18h32l21 -128h-29q-146 0 -338 64q-169 -64 -275 -64h-18q-43 0 -61.5 23.5t-18.5 49.5q0 55 60 55zM323 184q50 10 95 47.5t45 67.5
q0 35 -39 95q-59 90 -113 90q-55 0 -98 -53.5t-48 -113.5q39 -99 158 -133zM134 869q34 58 65 102q63 -41 137 -107q-28 -59 -68 -98q-48 39 -134 103zM297 -291q32 54 64 102q63 -40 138 -107q-28 -59 -68 -98q-48 39 -134 103z" />
    <glyph glyph-name="uni06A3.fina" unicode="&#x6a3;" horiz-adv-x="1462" 
d="M913 875q39 66 64 102q69 -45 137 -107q-25 -57 -68 -98q-5 4 -133 103zM640 -321q29 51 66 102q57 -37 137 -107q-27 -57 -68 -98q-39 32 -135 103zM1152 54q-107 -43 -255 -69t-271 -26q-221 0 -358 77q-97 55 -147 147.5t-50 209.5q0 86 28 156l43 -17
q-10 -57 -10 -95q0 -88 44.5 -161t126.5 -117q118 -64 325 -64q191 0 364 44l-9 13q-64 85 -64 205q0 109 57 182q32 41 70.5 67t65.5 26t63.5 -29.5t71.5 -81.5q66 -97 66 -215q0 -73 -36 -160q64 -18 159 -18h32l21 -128h-29q-78 0 -145.5 11t-162.5 43zM1132 178
q49 13 91 51.5t42 69.5q0 35 -39 95q-59 90 -113 90q-55 0 -98 -53.5t-48 -113.5q41 -103 165 -139z" />
    <glyph glyph-name="uni06A5.init" unicode="&#x6a5;" horiz-adv-x="574" 
d="M7 128h83q151 0 215 20q45 14 74.5 37t29.5 43q0 16 -5 25q-36 -4 -113 -4q-190 0 -256 108q-29 46 -29 117q0 95 47 152q54 67 118 67q117 0 222 -198q34 -65 59 -146t25 -154q0 -55 -29 -96q-37 -53 -120 -76t-220 -23h-81q-43 0 -61.5 23.5t-18.5 49.5q0 55 60 55z
M370 368q-28 76 -85.5 135t-115.5 59q-46 0 -76.5 -27t-28.5 -58q3 -56 84.5 -82.5t212.5 -26.5h9zM504 -459q-34 -62 -63 -92q-76 63 -133 104q33 57 64 95q52 -35 132 -107zM332 -260q-35 -64 -62 -92q-67 56 -133 104q34 59 65 95q58 -41 130 -107zM522 -247
q-28 -57 -61 -92q-76 63 -133 104q28 50 64 95q57 -39 130 -107z" />
    <glyph glyph-name="uni06A5.medi" unicode="&#x6a5;" horiz-adv-x="660" 
d="M7 128h16q55 0 158 24q-64 84 -64 210q0 104 57 177q33 41 71 67t65 26q58 0 135 -111q66 -97 66 -215q0 -73 -36 -160q64 -18 159 -18h32l21 -128h-29q-146 0 -338 64q-169 -64 -275 -64h-18q-43 0 -61.5 23.5t-18.5 49.5q0 55 60 55zM323 184q50 10 95 47.5t45 67.5
q0 35 -39 95q-59 90 -113 90q-55 0 -98 -53.5t-48 -113.5q39 -99 158 -133zM554 -459q-34 -62 -63 -92q-76 63 -133 104q33 57 64 95q52 -35 132 -107zM382 -260q-35 -64 -62 -92q-67 56 -133 104q34 59 65 95q58 -41 130 -107zM572 -247q-28 -57 -61 -92q-76 63 -133 104
q28 50 64 95q57 -39 130 -107z" />
    <glyph glyph-name="uni06A5.fina" unicode="&#x6a5;" horiz-adv-x="1462" 
d="M1381 -247q-28 -57 -61 -92q-76 63 -133 104q28 50 64 95q57 -39 130 -107zM1191 -260q-35 -64 -62 -92q-67 56 -133 104q34 59 65 95q58 -41 130 -107zM1363 -459q-34 -62 -63 -92q-76 63 -133 104q33 57 64 95q51 -35 132 -107zM1152 54q-107 -43 -255 -69t-271 -26
q-221 0 -358 77q-97 55 -147 147.5t-50 209.5q0 86 28 156l43 -17q-10 -57 -10 -95q0 -88 44.5 -161t126.5 -117q118 -64 325 -64q191 0 364 44l-9 13q-64 85 -64 205q0 109 57 182q32 41 70.5 67t65.5 26t63.5 -29.5t71.5 -81.5q66 -97 66 -215q0 -73 -36 -160
q64 -18 159 -18h32l21 -128h-29q-78 0 -145.5 11t-162.5 43zM1132 178q49 13 91 51.5t42 69.5q0 35 -39 95q-59 90 -113 90q-55 0 -98 -53.5t-48 -113.5q41 -103 165 -139z" />
    <glyph glyph-name="uni06A7.init" unicode="&#x6a7;" horiz-adv-x="574" 
d="M7 128h83q151 0 215 20q45 14 74.5 37t29.5 43q0 16 -5 25q-36 -4 -113 -4q-190 0 -256 108q-29 46 -29 117q0 95 47 152q54 67 118 67q117 0 222 -198q34 -65 59 -146t25 -154q0 -55 -29 -96q-37 -53 -120 -76t-220 -23h-81q-43 0 -61.5 23.5t-18.5 49.5q0 55 60 55z
M370 368q-28 76 -85.5 135t-115.5 59q-46 0 -76.5 -27t-28.5 -58q3 -56 84.5 -82.5t212.5 -26.5h9zM13 909q39 67 65 102q69 -46 136 -107q-26 -58 -67 -98q-48 39 -134 103z" />
    <glyph glyph-name="uni06A7.medi" unicode="&#x6a7;" horiz-adv-x="660" 
d="M7 128h16q55 0 158 24q-64 84 -64 210q0 104 57 177q33 41 71 67t65 26q58 0 135 -111q66 -97 66 -215q0 -73 -36 -160q64 -18 159 -18h32l21 -128h-29q-146 0 -338 64q-169 -64 -275 -64h-18q-43 0 -61.5 23.5t-18.5 49.5q0 55 60 55zM323 184q50 10 95 47.5t45 67.5
q0 35 -39 95q-59 90 -113 90q-55 0 -98 -53.5t-48 -113.5q39 -99 158 -133zM134 869q34 58 65 102q63 -41 137 -107q-28 -59 -68 -98q-48 39 -134 103z" />
    <glyph glyph-name="uni06A7.fina" unicode="&#x6a7;" horiz-adv-x="1050" 
d="M497 729q34 58 65 102q63 -41 137 -107q-28 -59 -67 -98q-15 12 -135 103zM1077 0h-74q5 -42 5 -86q0 -14 -2 -38q-5 -53 -57 -109q-70 -74 -169.5 -121t-219.5 -47q-190 0 -320.5 133.5t-130.5 343.5q0 105 25 183l44 -11q-12 -67 -12 -111q0 -169 109 -281.5
t261 -112.5q173 0 306 96q45 32 74.5 65t29.5 54q0 18 -14 42h-56q-166 0 -256 60.5t-90 183.5q0 70 29 122q52 96 139 96q71 0 147.5 -92t120.5 -242h90zM898 128q-32 90 -93 146q-59 56 -115 56q-41 0 -70 -26t-29 -57q0 -36 36.5 -63.5t87.5 -40.5q55 -15 183 -15z" />
    <glyph glyph-name="uni06A8.init" unicode="&#x6a8;" horiz-adv-x="574" 
d="M7 128h83q151 0 215 20q45 14 74.5 37t29.5 43q0 16 -5 25q-36 -4 -113 -4q-190 0 -256 108q-29 46 -29 117q0 95 47 152q54 67 118 67q117 0 222 -198q34 -65 59 -146t25 -154q0 -55 -29 -96q-37 -53 -120 -76t-220 -23h-81q-43 0 -61.5 23.5t-18.5 49.5q0 55 60 55z
M370 368q-28 76 -85.5 135t-115.5 59q-46 0 -76.5 -27t-28.5 -58q3 -56 84.5 -82.5t212.5 -26.5h9zM298 852q-34 -61 -61 -92q-59 49 -134 104q28 50 64 95q64 -45 131 -107zM127 1052q-35 -64 -61 -92q-56 46 -131 104q33 60 63 95q65 -47 129 -107zM107 839
q-30 -58 -62 -92q-77 65 -131 104q28 50 64 95q58 -42 129 -107z" />
    <glyph glyph-name="uni06A8.medi" unicode="&#x6a8;" horiz-adv-x="660" 
d="M7 128h16q55 0 158 24q-64 84 -64 210q0 104 57 177q33 41 71 67t65 26q58 0 135 -111q66 -97 66 -215q0 -73 -36 -160q64 -18 159 -18h32l21 -128h-29q-146 0 -338 64q-169 -64 -275 -64h-18q-43 0 -61.5 23.5t-18.5 49.5q0 55 60 55zM323 184q50 10 95 47.5t45 67.5
q0 35 -39 95q-59 90 -113 90q-55 0 -98 -53.5t-48 -113.5q39 -99 158 -133zM244 799q-32 -59 -63 -92q-76 63 -133 104q28 50 64 95q52 -35 132 -107zM434 812q-34 -61 -61 -92q-59 49 -134 104q24 42 64 95q64 -45 131 -107zM263 1012q-32 -60 -61 -92q-67 56 -133 104
q28 50 64 95q60 -42 130 -107z" />
    <glyph glyph-name="uni06A8.fina" unicode="&#x6a8;" horiz-adv-x="1050" 
d="M801 682q-34 -61 -62 -92q-67 56 -133 104q28 50 64 95q58 -40 131 -107zM609 669q-32 -60 -61 -92q-67 56 -133 104q28 50 64 95q60 -42 130 -107zM630 882q-35 -64 -62 -92q-63 52 -132 104q31 56 64 95q58 -41 130 -107zM1077 0h-74q5 -42 5 -86q0 -14 -2 -38
q-5 -53 -57 -109q-70 -74 -169.5 -121t-219.5 -47q-190 0 -320.5 133.5t-130.5 343.5q0 105 25 183l44 -11q-12 -67 -12 -111q0 -169 109 -281.5t261 -112.5q173 0 306 96q45 32 74.5 65t29.5 54q0 18 -14 42h-56q-166 0 -256 60.5t-90 183.5q0 70 29 122q52 96 139 96
q71 0 147.5 -92t120.5 -242h90zM898 128q-32 90 -93 146q-59 56 -115 56q-41 0 -70 -26t-29 -57q0 -36 36.5 -63.5t87.5 -40.5q55 -15 183 -15z" />
    <glyph glyph-name="uni06AA.init" unicode="&#x6aa;" horiz-adv-x="1412" 
d="M1331 167l-20 -102q-82 -3 -520.5 -34t-726.5 -31h-37q-43 0 -61.5 23.5t-18.5 49.5q0 55 60 55h46q321 0 708 24q374 23 493 26q-39 81 -108.5 122.5t-181.5 41.5q-95 0 -301 -14q-231 -15 -343 -15q-127 0 -191 35q-83 46 -83 117q0 38 15 98q29 107 132 205
q141 134 219 134q22 0 35 -11.5t17 -43.5q0 -2 2 -10v-4q0 -34 -20 -82h-7q-21 12 -40 12q-27 0 -79 -30t-105 -76q-96 -87 -96 -135q0 -39 66.5 -62.5t146.5 -23.5q154 0 379 15q167 11 230 11q219 0 334 -130q56 -65 56 -143v-22z" />
    <glyph glyph-name="uni06AA.medi" unicode="&#x6aa;" horiz-adv-x="1440" 
d="M1446 128l21 -128h-18q-75 0 -138 65q-82 -3 -520.5 -34t-726.5 -31h-37q-43 0 -61.5 23.5t-18.5 49.5q0 55 60 55h46q321 0 708 24q374 23 493 26q-39 81 -108.5 122.5t-181.5 41.5q-98 0 -310 -14q-225 -15 -334 -15q-127 0 -191 35q-83 46 -83 117q0 38 15 98
q29 107 132 205q141 134 219 134q22 0 35 -11.5t17 -43.5q0 -2 2 -10v-4q0 -34 -20 -82h-7q-21 12 -40 12q-27 0 -79 -30t-105 -76q-96 -87 -96 -135q0 -38 67 -62t146 -24q154 0 381 15q165 11 228 11q219 0 334 -130q56 -65 56 -143v-22q37 -39 98 -39h17z" />
    <glyph glyph-name="uni06AA.fina" unicode="&#x6aa;" horiz-adv-x="1616" 
d="M430 128q153 0 507 22q378 23 493 26q-39 81 -108.5 122.5t-181.5 41.5q-95 0 -307 -14q-227 -15 -337 -15q-127 0 -191 35q-82 46 -82 120q0 38 15 95q28 107 131 205q141 134 219 134q22 0 35 -11.5t18 -43.5q0 -5 1 -7v-4q0 -36 -20 -85h-7q-21 12 -39 12
q-27 0 -79.5 -30t-104.5 -76q-97 -87 -97 -136q0 -37 67 -61t146 -24q154 0 379 15q169 11 230 11q222 0 334 -130q56 -66 56 -143v-22q35 -37 98 -37h17l21 -128h-18q-77 0 -138 63q-94 -3 -454.5 -33t-562.5 -30q-128 0 -228 15l-170 132l4 15q58 -16 169 -25t185 -9z" />
    <glyph glyph-name="uni06AB.init" unicode="&#x6ab;" horiz-adv-x="641" 
d="M470 1087l8 -8q-22 -57 -56 -123q-15 -4 -42 -12t-37 -11q57 -39 57 -101q0 -50 -35 -85t-85 -35t-85 35t-35 85q0 15 5 33q-84 -34 -202 -89v-6l171 -63l-16 -50q116 -86 180 -146.5t102 -130.5t38 -148q0 -94 -37 -139q-90 -93 -334 -93h-40q-43 0 -61.5 23.5
t-18.5 49.5q0 55 60 55h62q182 0 259 52q46 32 46 52q0 49 -93 152q-101 114 -343 283q-51 35 -51 104q0 27 13 55q15 33 65 61q126 70 505 200zM210 833q0 -29 20.5 -49.5t49.5 -20.5t49.5 20.5t20.5 49.5t-20.5 49.5t-49.5 20.5t-49.5 -20.5t-20.5 -49.5z" />
    <glyph glyph-name="uni06AB.medi" unicode="&#x6ab;" horiz-adv-x="770" 
d="M776 128l21 -128h-20q-84 0 -147.5 40t-138.5 122q-77 85 -105 111h-4q4 -18 4 -53q0 -220 -332 -220h-27q-43 0 -61.5 23.5t-18.5 49.5q0 55 60 55h39q154 0 232 57q42 30 42 48q0 19 -30 70q-57 97 -294 304q-60 54 -73 68q-17 45 -17 77q0 27 15 64q9 21 30 37
q110 81 576 234l5 -6q-23 -65 -58 -123q-6 -2 -87 -27q56 -39 56 -101q0 -50 -35.5 -85t-84.5 -35t-84.5 35t-35.5 85q0 21 5 35q-159 -65 -232 -108v-3q56 -34 164 -78l-21 -50q158 -125 430 -396q104 -102 210 -102h17zM253 831q0 -29 20.5 -49.5t49.5 -20.5t49.5 20.5
t20.5 49.5t-20.5 49.5t-49.5 20.5t-49.5 -20.5t-20.5 -49.5z" />
    <glyph glyph-name="uni06AB.fina" unicode="&#x6ab;" horiz-adv-x="1405" 
d="M1411 128l21 -128h-20q-84 0 -147.5 40t-138.5 122q-77 85 -105 111h-5q-6 -127 -52 -170q-61 -51 -175.5 -82.5t-251.5 -31.5q-220 0 -343 96t-123 291q0 56 13 113l42 -13q-3 -20 -3 -39q0 -154 102.5 -234.5t305.5 -80.5q124 0 246 31t174 91q-3 19 -26 59
q-62 101 -295 304q-57 50 -74 68q-16 48 -17 68v9q0 27 15 64q9 21 30 37q113 81 578 234l5 -6q-23 -65 -58 -123q-62 -18 -82 -25q56 -39 56 -101q0 -50 -35.5 -85t-84.5 -35t-84.5 35t-35.5 85q0 19 6 37q-148 -59 -240 -112v-3q58 -34 166 -78l-21 -50q158 -125 430 -396
q104 -102 210 -102h17zM893 833q0 -29 20.5 -49.5t49.5 -20.5t49.5 20.5t20.5 49.5t-20.5 50t-49.5 21t-49.5 -20t-20.5 -51z" />
    <glyph glyph-name="uni06AC.init" unicode="&#x6ac;" horiz-adv-x="641" 
d="M470 1087l8 -8q-22 -57 -56 -123q-75 -20 -153 -49q-145 -54 -306 -131v-6l171 -63l-16 -50q116 -86 180 -146.5t102 -130.5t38 -148q0 -94 -37 -139q-90 -93 -334 -93h-40q-43 0 -61.5 23.5t-18.5 49.5q0 55 60 55h62q182 0 259 52q46 32 46 52q0 49 -93 152
q-101 114 -343 283q-51 35 -51 104q0 27 13 55q15 33 65 61q126 70 505 200zM-145 1130q34 58 65 102q59 -40 135 -107q-27 -58 -66 -98q-21 17 -134 103z" />
    <glyph glyph-name="uni06AC.medi" unicode="&#x6ac;" horiz-adv-x="770" 
d="M776 128l21 -128h-20q-84 0 -147.5 40t-138.5 122q-77 85 -105 111h-4q4 -18 4 -53q0 -220 -332 -220h-27q-43 0 -61.5 23.5t-18.5 49.5q0 55 60 55h39q154 0 232 57q42 30 42 48q0 19 -30 70q-57 97 -294 304q-60 54 -73 68q-17 45 -17 77q0 27 15 64q9 21 30 37
q110 81 576 234l5 -6q-23 -65 -58 -123q-75 -19 -217 -74q-196 -76 -281 -127v-3q56 -34 164 -78l-21 -50q158 -125 430 -396q104 -102 210 -102h17zM-145 1130q34 58 65 102q59 -40 135 -107q-27 -58 -66 -98q-21 17 -134 103z" />
    <glyph glyph-name="uni06AC.fina" unicode="&#x6ac;" horiz-adv-x="1091" 
d="M569 1210q45 74 66 102q69 -46 136 -107q-25 -57 -68 -98q-39 33 -134 103zM762 1038l8 -3q53 -246 114 -629q22 -144 74 -216q45 -62 120 -62h19l21 -128h-23q-163 0 -235 184h-5q-30 -65 -122 -115q-126 -69 -296 -69q-67 0 -130.5 23.5t-117 68t-86 119t-32.5 166.5
q0 85 26 157l45 -15q-15 -49 -15 -103q0 -130 87 -204.5t221 -74.5q154 0 278 67q102 56 99 107q-3 54 -49.5 274t-80.5 356q31 46 80 97zM510 702h-4l-12 5q-83 -36 -92 -97h79q114 0 114 -100q0 -58 -47.5 -89t-113.5 -31q-42 0 -66 5l-72 39l-2 7q99 3 172 24t73 50
q0 8 -17.5 10t-73.5 2q-53 0 -71.5 2t-19.5 11l-5 29q-3 17 -3 30q0 52 44 118q23 34 52 57t48 23q26 0 26 -33q0 -10 -9 -62z" />
    <glyph glyph-name="uni06AE.init" unicode="&#x6ae;" horiz-adv-x="641" 
d="M470 1087l8 -8q-22 -57 -56 -123q-75 -20 -153 -49q-145 -54 -306 -131v-6l171 -63l-16 -50q116 -86 180 -146.5t102 -130.5t38 -148q0 -94 -37 -139q-90 -93 -334 -93h-40q-43 0 -61.5 23.5t-18.5 49.5q0 55 60 55h62q182 0 259 52q46 32 46 52q0 49 -93 152
q-101 114 -343 283q-51 35 -51 104q0 27 13 55q15 33 65 61q126 70 505 200zM454 -459q-34 -62 -63 -92q-76 63 -133 104q33 57 64 95q52 -35 132 -107zM282 -260q-35 -64 -62 -92q-67 56 -133 104q34 59 65 95q58 -41 130 -107zM472 -247q-28 -57 -61 -92q-76 63 -133 104
q28 50 64 95q57 -39 130 -107z" />
    <glyph glyph-name="uni06AE.medi" unicode="&#x6ae;" horiz-adv-x="770" 
d="M776 128l21 -128h-20q-84 0 -147.5 40t-138.5 122q-77 85 -105 111h-4q4 -18 4 -53q0 -220 -332 -220h-27q-43 0 -61.5 23.5t-18.5 49.5q0 55 60 55h39q154 0 232 57q42 30 42 48q0 19 -30 70q-57 97 -294 304q-60 54 -73 68q-17 45 -17 77q0 27 15 64q9 21 30 37
q110 81 576 234l5 -6q-23 -65 -58 -123q-75 -19 -217 -74q-196 -76 -281 -127v-3q56 -34 164 -78l-21 -50q158 -125 430 -396q104 -102 210 -102h17zM534 -459q-34 -62 -63 -92q-76 63 -133 104q33 57 64 95q52 -35 132 -107zM362 -260q-35 -64 -62 -92q-67 56 -133 104
q34 59 65 95q58 -41 130 -107zM552 -247q-28 -57 -61 -92q-76 63 -133 104q28 50 64 95q57 -39 130 -107z" />
    <glyph glyph-name="uni06AE.fina" unicode="&#x6ae;" horiz-adv-x="1091" 
d="M760 -237q-30 -57 -61 -92q-70 58 -134 104q24 42 64 95q60 -41 131 -107zM570 -250q-34 -62 -63 -92q-75 62 -132 104q31 56 64 95q51 -35 131 -107zM741 -449q-34 -61 -62 -92q-70 58 -134 104q35 57 64 95q58 -40 132 -107zM762 1038l8 -3q53 -246 114 -629
q22 -144 74 -216q45 -62 120 -62h19l21 -128h-23q-163 0 -235 184h-5q-30 -65 -122 -115q-126 -69 -296 -69q-67 0 -130.5 23.5t-117 68t-86 119t-32.5 166.5q0 85 26 157l45 -15q-15 -49 -15 -103q0 -130 87 -204.5t221 -74.5q154 0 278 67q102 56 99 107q-3 54 -49.5 274
t-80.5 356q31 46 80 97zM510 702h-4l-12 5q-83 -36 -92 -97h79q114 0 114 -100q0 -58 -47.5 -89t-113.5 -31q-42 0 -66 5l-72 39l-2 7q99 3 172 24t73 50q0 8 -17.5 10t-73.5 2q-53 0 -71.5 2t-19.5 11l-5 29q-3 17 -3 30q0 52 44 118q23 34 52 57t48 23q26 0 26 -33
q0 -10 -9 -62z" />
    <glyph glyph-name="uni06B0.init" unicode="&#x6b0;" horiz-adv-x="641" 
d="M477 1041l5 -4q-28 -72 -53 -123q-5 -1 -25.5 -7t-31.5 -9q27 -16 42 -43.5t15 -57.5q0 -49 -35.5 -84.5t-84.5 -35.5t-84.5 35.5t-35.5 84.5q0 20 4 36q-96 -38 -228 -100v-7l174 -47l-17 -49q92 -63 145 -105.5t95 -90.5t58.5 -96.5t16.5 -110.5q0 -90 -36 -134
q-90 -93 -334 -93h-40q-43 0 -61.5 23.5t-18.5 49.5q0 55 60 55h62q182 0 259 52q48 33 46 53q-1 28 -30.5 72t-69.5 82q-67 65 -338 247q-18 12 -30 40t-12 55q0 22 12 55q8 24 66 57q118 67 505 200zM-81 902l-6 2q13 52 17 64q178 94 489 191l2 -2l-25 -59
q-327 -110 -477 -196zM239 797q0 -29 20.5 -49.5t49.5 -20.5t49.5 20.5t20.5 49.5t-20.5 49.5t-49.5 20.5t-49.5 -20.5t-20.5 -49.5z" />
    <glyph glyph-name="uni06B0.medi" unicode="&#x6b0;" horiz-adv-x="770" 
d="M776 128l21 -128h-20q-84 0 -147.5 40t-138.5 122q-77 85 -105 111h-4q4 -18 4 -53q0 -220 -332 -220h-27q-43 0 -61.5 23.5t-18.5 49.5q0 55 60 55h39q154 0 233 58q41 30 41 47q0 19 -30 70q-16 26 -37 51.5t-51.5 54t-54 49t-68.5 58t-70 59.5q-56 47 -77 68
q-14 39 -14 68q0 31 15 64q6 14 31 32q112 81 570 232l4 -4q-27 -76 -53 -119q-41 -11 -86 -27q26 -16 41 -43.5t15 -56.5q0 -49 -35.5 -84.5t-84.5 -35.5t-84.5 35.5t-35.5 84.5q0 17 4 32q-154 -60 -235 -107l1 -2q35 -19 171 -69l-23 -53q230 -177 415 -360
q104 -102 211 -102h17zM-60 887l-5 2q3 28 14 65q171 92 514 199l2 -3l-28 -61q-326 -107 -497 -202zM265 789q0 -29 20.5 -49.5t49.5 -20.5t49.5 20.5t20.5 49.5t-20.5 49.5t-49.5 20.5t-49.5 -20.5t-20.5 -49.5z" />
    <glyph glyph-name="uni06B0.fina" unicode="&#x6b0;" horiz-adv-x="1402" 
d="M951 244q-17 45 -55 93t-68 75.5t-97 84.5t-90 77l-42 36t-37 33q-14 39 -14 68q0 31 15 64q4 10 31 32q100 76 572 232l4 -4q-27 -76 -53 -119q-11 -3 -37 -11l-39 -12q26 -16 40.5 -43.5t14.5 -56.5q0 -49 -35 -84.5t-85 -35.5t-85 35.5t-35 84.5q0 18 4 33
q-164 -66 -246 -112v-2q27 -14 55.5 -25.5t72.5 -27t46 -16.5l-23 -53q230 -177 415 -360q104 -102 211 -102h17l21 -128h-20q-84 0 -147.5 40t-138.5 122q-77 85 -105 111h-2q-6 -127 -52 -170q-61 -51 -175.5 -82.5t-251.5 -31.5q-220 0 -343 96t-123 291q0 56 13 113
l42 -13q-3 -20 -3 -39q0 -154 102.5 -234.5t305.5 -80.5q124 0 246 31t174 91zM570 887l-5 2q3 28 14 65q175 93 516 199l2 -3l-28 -61q-324 -106 -499 -202zM906 793q0 -29 20.5 -49.5t49.5 -20.5t49.5 20.5t20.5 49.5t-20.5 49.5t-49.5 20.5t-49.5 -20.5t-20.5 -49.5z" />
    <glyph glyph-name="uni06B2.init" unicode="&#x6b2;" horiz-adv-x="641" 
d="M477 1041l5 -4q-28 -72 -53 -123q-75 -20 -153 -49q-153 -56 -311 -132v-7l174 -47l-17 -49q92 -63 145 -105.5t95 -90.5t58.5 -96.5t16.5 -110.5q0 -90 -36 -134q-90 -93 -334 -93h-40q-43 0 -61.5 23.5t-18.5 49.5q0 55 60 55h62q182 0 259 52q48 33 46 53
q-1 28 -30.5 72t-69.5 82q-67 65 -338 247q-18 12 -30 40t-12 55q0 22 12 55q8 24 66 57q118 67 505 200zM-81 902l-6 2q13 52 17 64q178 94 489 191l2 -2l-25 -59q-327 -110 -477 -196zM286 -307q-34 -62 -63 -92q-75 62 -132 104q31 56 64 95q51 -35 131 -107zM476 -294
q-30 -57 -61 -92q-70 58 -134 104q24 42 64 95q60 -41 131 -107z" />
    <glyph glyph-name="uni06B2.medi" unicode="&#x6b2;" horiz-adv-x="770" 
d="M776 128l21 -128h-20q-84 0 -147.5 40t-138.5 122q-77 85 -105 111h-4q4 -18 4 -53q0 -220 -332 -220h-27q-43 0 -61.5 23.5t-18.5 49.5q0 55 60 55h39q154 0 233 58q41 30 41 47q0 19 -30 70q-16 26 -37 51.5t-51.5 54t-54 49t-68.5 58t-70 59.5q-56 47 -77 68
q-14 39 -14 68q0 31 15 64q6 14 31 32q112 81 570 232l4 -4q-27 -76 -53 -119q-83 -22 -216 -74q-203 -80 -285 -128l1 -2q35 -19 171 -69l-23 -53q230 -177 415 -360q104 -102 211 -102h17zM-60 887l-5 2q3 28 14 65q171 92 514 199l2 -3l-28 -61q-326 -107 -497 -202z
M416 -307q-34 -62 -63 -92q-75 62 -132 104q31 56 64 95q51 -35 131 -107zM606 -294q-30 -57 -61 -92q-70 58 -134 104q24 42 64 95q60 -41 131 -107z" />
    <glyph glyph-name="uni06B2.fina" unicode="&#x6b2;" horiz-adv-x="1402" 
d="M656 -307q-34 -62 -63 -92q-75 62 -132 104q31 56 64 95q51 -35 131 -107zM846 -294q-30 -57 -61 -92q-70 58 -134 104q24 42 64 95q60 -41 131 -107zM570 887l-5 2q3 28 14 65q175 93 516 199l2 -3l-28 -61q-324 -106 -499 -202zM951 244q-17 45 -55 93t-68 75.5
t-97 84.5t-90 77l-42 36t-37 33q-14 39 -14 68q0 31 15 64q4 10 31 32q100 76 572 232l4 -4q-27 -76 -53 -119q-83 -22 -216 -74q-201 -79 -287 -128v-2q27 -14 55.5 -25.5t72.5 -27t46 -16.5l-23 -53q230 -177 415 -360q104 -102 211 -102h17l21 -128h-20q-84 0 -147.5 40
t-138.5 122q-77 85 -105 111h-2q-6 -127 -52 -170q-61 -51 -175.5 -82.5t-251.5 -31.5q-220 0 -343 96t-123 291q0 56 13 113l42 -13q-3 -20 -3 -39q0 -154 102.5 -234.5t305.5 -80.5q124 0 246 31t174 91z" />
    <glyph glyph-name="uni06B4.init" unicode="&#x6b4;" horiz-adv-x="641" 
d="M477 1041l5 -4q-28 -72 -53 -123q-75 -20 -153 -49q-153 -56 -311 -132v-7l174 -47l-17 -49q92 -63 145 -105.5t95 -90.5t58.5 -96.5t16.5 -110.5q0 -90 -36 -134q-90 -93 -334 -93h-40q-43 0 -61.5 23.5t-18.5 49.5q0 55 60 55h62q182 0 259 52q48 33 46 53
q-1 28 -30.5 72t-69.5 82q-67 65 -338 247q-18 12 -30 40t-12 55q0 22 12 55q8 24 66 57q118 67 505 200zM-81 902l-6 2q13 52 17 64q178 94 489 191l2 -2l-25 -59q-327 -110 -477 -196zM-24 1177q-28 -54 -57 -86q-89 71 -125 98q19 36 60 89q65 -45 122 -101zM159 1196
q-34 -60 -59 -86q-63 53 -124 98q29 52 60 89q62 -44 123 -101zM-2 1370q-34 -59 -57 -86q-87 70 -126 98q16 28 60 89q54 -37 123 -101z" />
    <glyph glyph-name="uni06B4.medi" unicode="&#x6b4;" horiz-adv-x="770" 
d="M776 128l21 -128h-20q-84 0 -147.5 40t-138.5 122q-77 85 -105 111h-4q4 -18 4 -53q0 -220 -332 -220h-27q-43 0 -61.5 23.5t-18.5 49.5q0 55 60 55h39q154 0 233 58q41 30 41 47q0 19 -30 70q-16 26 -37 51.5t-51.5 54t-54 49t-68.5 58t-70 59.5q-56 47 -77 68
q-14 39 -14 68q0 31 15 64q6 14 31 32q112 81 570 232l4 -4q-27 -76 -53 -119q-83 -22 -216 -74q-203 -80 -285 -128l1 -2q35 -19 171 -69l-23 -53q230 -177 415 -360q104 -102 211 -102h17zM-60 887l-5 2q3 28 14 65q171 92 514 199l2 -3l-28 -61q-326 -107 -497 -202z
M-14 1177q-28 -54 -57 -86q-89 71 -125 98q19 36 60 89q65 -45 122 -101zM169 1196q-34 -60 -59 -86q-63 53 -124 98q29 52 60 89q62 -44 123 -101zM7 1370q-31 -58 -56 -86q-87 70 -126 98q16 28 60 89q56 -38 122 -101z" />
    <glyph glyph-name="uni06B4.fina" unicode="&#x6b4;" horiz-adv-x="1402" 
d="M605 1177q-30 -55 -58 -86q-89 71 -125 98q19 36 60 89q63 -44 123 -101zM789 1196q-34 -60 -59 -86q-66 55 -125 98q27 48 61 89q62 -44 123 -101zM627 1370q-34 -60 -58 -86q-87 70 -126 98q16 28 60 89q58 -39 124 -101zM570 887l-5 2q3 28 14 65q175 93 516 199l2 -3
l-28 -61q-324 -106 -499 -202zM951 244q-17 45 -55 93t-68 75.5t-97 84.5t-90 77l-42 36t-37 33q-14 39 -14 68q0 31 15 64q4 10 31 32q100 76 572 232l4 -4q-27 -76 -53 -119q-83 -22 -216 -74q-201 -79 -287 -128v-2q27 -14 55.5 -25.5t72.5 -27t46 -16.5l-23 -53
q230 -177 415 -360q104 -102 211 -102h17l21 -128h-20q-84 0 -147.5 40t-138.5 122q-77 85 -105 111h-2q-6 -127 -52 -170q-61 -51 -175.5 -82.5t-251.5 -31.5q-220 0 -343 96t-123 291q0 56 13 113l42 -13q-3 -20 -3 -39q0 -154 102.5 -234.5t305.5 -80.5q124 0 246 31
t174 91z" />
    <glyph glyph-name="uni06B5.init" unicode="&#x6b5;" horiz-adv-x="388" 
d="M7 128h21q62 0 107 27q39 24 39 80q0 67 -113 547q-3 14 -16.5 62.5t-13.5 73.5q0 28 19 56q19 27 47 55l8 -5q11 -91 117 -229q-24 -27 -55 -51q5 -29 31 -155.5t37 -191.5q12 -78 12 -139q0 -67 -13 -113q-12 -44 -28 -71.5t-45 -43.5q-54 -30 -119 -30h-15
q-43 0 -61.5 23.5t-18.5 49.5q0 55 60 55zM141 1408q19 -34 34 -75q-110 -153 -116 -212l-18 -10q-21 61 -204 195l8 97h8q131 -112 180 -176h3q18 61 105 181z" />
    <glyph glyph-name="uni06B5.medi" unicode="&#x6b5;" horiz-adv-x="430" 
d="M7 128h19q60 0 111 31q33 21 33 76q0 46 -39 247t-86 406l-12 52l75 90l5 -2q65 -275 144 -786q7 -43 47.5 -78.5t118.5 -35.5h13l21 -128h-21q-150 0 -213 106h-4q-18 -47 -62.5 -76.5t-112.5 -29.5h-17q-43 0 -61.5 23.5t-18.5 49.5q0 55 60 55zM141 1408
q19 -34 34 -75q-110 -153 -116 -212l-18 -10q-21 61 -204 195l8 97h8q131 -112 180 -176h3q18 61 105 181z" />
    <glyph glyph-name="uni06B5.fina" unicode="&#x6b5;" horiz-adv-x="907" 
d="M596 992l9 -5q87 -456 125 -703q5 -36 25 -73.5t44 -54.5q39 -27 103 -28h11l21 -128h-19q-113 0 -169 75h-4q0 -95 -13 -149q-28 -63 -97 -113q-86 -62 -194 -62q-154 0 -245.5 108t-91.5 266q0 106 32 190l39 -14q-19 -57 -19 -130q0 -113 74.5 -196.5t186.5 -83.5
q93 0 170 47q76 46 94 95v16q0 81 -144 773q-11 54 -17 82q41 54 79 88zM615 1378q22 -39 35 -75q-110 -152 -117 -212l-17 -10q-21 60 -206 195l8 97h8q137 -117 182 -176h3q19 63 104 181z" />
    <glyph glyph-name="uni06B6.init" unicode="&#x6b6;" horiz-adv-x="388" 
d="M7 128h21q62 0 107 27q39 24 39 80q0 67 -113 547q-3 14 -16.5 62.5t-13.5 73.5q0 28 19 56q19 27 47 55l8 -5q11 -91 117 -229q-24 -27 -55 -51q5 -29 31 -155.5t37 -191.5q12 -78 12 -139q0 -67 -13 -113q-12 -44 -28 -71.5t-45 -43.5q-54 -30 -119 -30h-15
q-43 0 -61.5 23.5t-18.5 49.5q0 55 60 55zM-92 1240q26 45 63 102q63 -41 137 -107q-27 -57 -68 -98q-38 32 -132 103z" />
    <glyph glyph-name="uni06B6.medi" unicode="&#x6b6;" horiz-adv-x="430" 
d="M7 128h19q60 0 111 31q33 21 33 76q0 46 -39 247t-86 406l-12 52l75 90l5 -2q65 -275 144 -786q7 -43 47.5 -78.5t118.5 -35.5h13l21 -128h-21q-150 0 -213 106h-4q-18 -47 -62.5 -76.5t-112.5 -29.5h-17q-43 0 -61.5 23.5t-18.5 49.5q0 55 60 55zM-92 1240q26 45 63 102
q63 -41 137 -107q-27 -57 -68 -98q-38 32 -132 103z" />
    <glyph glyph-name="uni06B6.fina" unicode="&#x6b6;" horiz-adv-x="907" 
d="M596 992l9 -5q87 -456 125 -703q5 -36 25 -73.5t44 -54.5q39 -27 103 -28h11l21 -128h-19q-113 0 -169 75h-4q0 -95 -13 -149q-28 -63 -97 -113q-86 -62 -194 -62q-154 0 -245.5 108t-91.5 266q0 106 32 190l39 -14q-19 -57 -19 -130q0 -113 74.5 -196.5t186.5 -83.5
q93 0 170 47q76 46 94 95v16q0 81 -144 773q-11 54 -17 82q41 54 79 88zM387 1210q45 74 66 102q69 -46 136 -107q-25 -57 -68 -98q-39 33 -134 103z" />
    <glyph glyph-name="uni06B7.init" unicode="&#x6b7;" horiz-adv-x="388" 
d="M7 128h21q62 0 107 27q39 24 39 80q0 67 -113 547q-3 14 -16.5 62.5t-13.5 73.5q0 28 19 56q19 27 47 55l8 -5q11 -91 117 -229q-24 -27 -55 -51q5 -29 31 -155.5t37 -191.5q12 -78 12 -139q0 -67 -13 -113q-12 -44 -28 -71.5t-45 -43.5q-54 -30 -119 -30h-15
q-43 0 -61.5 23.5t-18.5 49.5q0 55 60 55zM221 1149q-35 -62 -58 -86q-60 50 -126 98q32 54 61 89q58 -40 123 -101zM36 1137q-33 -61 -57 -86q-62 51 -124 98q24 41 60 89q58 -40 121 -101zM58 1330q-29 -55 -57 -86q-78 64 -125 98q21 36 61 89q60 -43 121 -101z" />
    <glyph glyph-name="uni06B7.medi" unicode="&#x6b7;" horiz-adv-x="430" 
d="M7 128h19q60 0 111 31q33 21 33 76q0 46 -39 247t-86 406l-12 52l75 90l5 -2q65 -275 144 -786q7 -43 47.5 -78.5t118.5 -35.5h13l21 -128h-21q-150 0 -213 106h-4q-18 -47 -62.5 -76.5t-112.5 -29.5h-17q-43 0 -61.5 23.5t-18.5 49.5q0 55 60 55zM221 1149
q-35 -62 -58 -86q-60 50 -126 98q32 54 61 89q58 -40 123 -101zM36 1137q-33 -61 -57 -86q-62 51 -124 98q24 41 60 89q58 -40 121 -101zM58 1330q-29 -55 -57 -86q-78 64 -125 98q21 36 61 89q60 -43 121 -101z" />
    <glyph glyph-name="uni06B7.fina" unicode="&#x6b7;" horiz-adv-x="907" 
d="M596 992l9 -5q87 -456 125 -703q5 -36 25 -73.5t44 -54.5q39 -27 103 -28h11l21 -128h-19q-113 0 -169 75h-4q0 -95 -13 -149q-28 -63 -97 -113q-86 -62 -194 -62q-154 0 -245.5 108t-91.5 266q0 106 32 190l39 -14q-19 -57 -19 -130q0 -113 74.5 -196.5t186.5 -83.5
q93 0 170 47q76 46 94 95v16q0 81 -144 773q-11 54 -17 82q41 54 79 88zM695 1139q-34 -60 -59 -86q-66 55 -125 98q27 48 61 89q62 -44 123 -101zM509 1127q-33 -61 -57 -86q-72 58 -125 98q22 40 59 89q56 -38 123 -101zM531 1320q-31 -58 -57 -86q-72 58 -125 98
q22 40 59 89q60 -41 123 -101z" />
    <glyph glyph-name="uni06B8.init" unicode="&#x6b8;" horiz-adv-x="419" 
d="M7 128h21q62 0 107 27q39 24 39 80q0 67 -113 547q-3 14 -16.5 62.5t-13.5 73.5q0 28 19 56q19 27 47 55l8 -5q11 -91 117 -229q-24 -27 -55 -51q5 -29 31 -155.5t37 -191.5q12 -78 12 -139q0 -67 -13 -113q-12 -44 -28 -71.5t-45 -43.5q-54 -30 -119 -30h-15
q-43 0 -61.5 23.5t-18.5 49.5q0 55 60 55zM424 -459q-34 -62 -63 -92q-76 63 -133 104q33 57 64 95q52 -35 132 -107zM252 -260q-35 -64 -62 -92q-67 56 -133 104q34 59 65 95q58 -41 130 -107zM442 -247q-28 -57 -61 -92q-76 63 -133 104q28 50 64 95q57 -39 130 -107z" />
    <glyph glyph-name="uni06B8.medi" unicode="&#x6b8;" horiz-adv-x="430" 
d="M7 128h19q60 0 111 31q33 21 33 76q0 46 -39 247t-86 406l-12 52l75 90l5 -2q65 -275 144 -786q7 -43 47.5 -78.5t118.5 -35.5h13l21 -128h-21q-150 0 -213 106h-4q-18 -47 -62.5 -76.5t-112.5 -29.5h-17q-43 0 -61.5 23.5t-18.5 49.5q0 55 60 55zM434 -459
q-34 -62 -63 -92q-76 63 -133 104q33 57 64 95q52 -35 132 -107zM262 -260q-35 -64 -62 -92q-67 56 -133 104q34 59 65 95q58 -41 130 -107zM452 -247q-28 -57 -61 -92q-76 63 -133 104q28 50 64 95q57 -39 130 -107z" />
    <glyph glyph-name="uni06B8.fina" unicode="&#x6b8;" horiz-adv-x="907" 
d="M596 992l9 -5q87 -456 125 -703q5 -36 25 -73.5t44 -54.5q39 -27 103 -28h11l21 -128h-19q-113 0 -169 75h-4q0 -95 -13 -149q-28 -63 -97 -113q-86 -62 -194 -62q-154 0 -245.5 108t-91.5 266q0 106 32 190l39 -14q-19 -57 -19 -130q0 -113 74.5 -196.5t186.5 -83.5
q93 0 170 47q76 46 94 95v16q0 81 -144 773q-11 54 -17 82q41 54 79 88zM691 -649q-34 -62 -63 -92q-76 63 -133 104q33 57 64 95q51 -35 132 -107zM519 -450q-35 -64 -62 -92q-67 56 -133 104q33 57 64 95q58 -40 131 -107zM709 -437q-32 -60 -61 -92q-76 63 -133 104
q28 50 64 95q60 -42 130 -107z" />
    <glyph glyph-name="uni06B9.init" unicode="&#x6b9;" horiz-adv-x="433" 
d="M186 551h5q151 -222 151 -346q0 -71 -45 -145q-28 -34 -85.5 -47t-172.5 -13h-12q-43 0 -61.5 23.5t-18.5 49.5q0 55 60 55h16q145 0 194 19q50 20 50 42q0 41 -139 249q27 67 58 113zM197 -291q32 54 64 102q63 -40 138 -107q-28 -59 -68 -98q-48 39 -134 103zM-18 770
q38 68 63 102q69 -46 136 -107q-25 -56 -67 -98q-26 22 -73 58t-59 45z" />
    <glyph glyph-name="uni06B9.medi" unicode="&#x6b9;" horiz-adv-x="451" 
d="M7 128h21q61 0 107.5 23.5t50.5 64.5l12 108l61 50l7 -7q-6 -45 -6 -80q0 -85 49 -119q58 -40 130 -40h18l21 -128h-23q-160 0 -223 102h-4q-17 -49 -66.5 -75.5t-115.5 -26.5h-19q-43 0 -61.5 23.5t-18.5 49.5q0 55 60 55zM41 630q58 90 66 102q69 -45 137 -107
q-24 -54 -68 -98q-39 32 -135 103zM197 -291q32 54 64 102q63 -40 138 -107q-28 -59 -68 -98q-48 39 -134 103z" />
    <glyph glyph-name="uni06B9.fina" unicode="&#x6b9;" horiz-adv-x="965" 
d="M299 625q39 66 64 102q69 -45 137 -107q-26 -58 -67 -98q-26 22 -134 103zM439 -581q39 67 65 102q69 -46 136 -107q-25 -57 -68 -98q-29 25 -133 103zM641 422h8q64 -96 111 -192q31 -62 74.5 -82t122.5 -20h14l21 -128h-21q-89 0 -151 45h-3q4 -28 4 -63
q0 -121 -30 -168q-40 -67 -130.5 -114.5t-179.5 -47.5q-166 0 -265.5 107t-99.5 270q0 110 48 217l41 -21q-29 -82 -29 -156q0 -122 86.5 -197t205.5 -75q59 0 124.5 25t108.5 62q57 52 57 93q0 47 -46 142.5t-122 196.5q28 66 51 106z" />
    <glyph glyph-name="uni06BC.init" unicode="&#x6bc;" horiz-adv-x="433" 
d="M186 551h5q151 -222 151 -346q0 -69 -46 -147q38 -17 58 -48t20 -68q0 -52 -36.5 -88.5t-88.5 -36.5t-88.5 36.5t-36.5 88.5q0 31 15 61q-42 -3 -100 -3h-12q-43 0 -61.5 23.5t-18.5 49.5q0 55 60 55h16q145 0 194 19q50 20 50 42q0 41 -139 249q27 67 58 113zM-18 770
q38 68 63 102q69 -46 136 -107q-25 -56 -67 -98q-26 22 -73 58t-59 45zM174 -58q0 -31 22 -53t53 -22t53 22t22 53t-22 53t-53 22t-53 -22t-22 -53z" />
    <glyph glyph-name="uni06BC.medi" unicode="&#x6bc;" horiz-adv-x="581" 
d="M124 0h-97q-43 0 -61.5 23.5t-18.5 49.5q0 55 60 55h151q61 0 107.5 23.5t50.5 64.5l12 108l61 50l7 -7q-6 -45 -6 -80q0 -85 49 -119q58 -40 130 -40h18l21 -128h-23q-160 0 -223 102h-4q-18 -48 -63 -74q48 -38 48 -96q0 -50 -35.5 -85t-84.5 -35t-84.5 35t-35.5 85
q0 37 21 68zM151 630q58 90 66 102q69 -45 137 -107q-24 -54 -68 -98q-39 32 -135 103zM148 -68q0 -31 22 -53t53 -22t53 22t22 53t-22 53t-53 22t-53 -22t-22 -53z" />
    <glyph glyph-name="uni06BC.fina" unicode="&#x6bc;" horiz-adv-x="965" 
d="M641 422h8q64 -96 111 -192q31 -62 74.5 -82t122.5 -20h14l21 -128h-21q-89 0 -151 45h-3q4 -28 4 -63q0 -121 -30 -168q-22 -36 -58 -66q45 -14 69 -48.5t24 -74.5q0 -54 -38 -92t-92 -38t-92 38t-38 92q0 22 6 40q-49 -13 -91 -13q-166 0 -265.5 107t-99.5 270
q0 110 48 217l41 -21q-29 -82 -29 -156q0 -122 86.5 -197t205.5 -75q59 0 124.5 25t108.5 62q57 52 57 93q0 47 -46 142.5t-122 196.5q28 66 51 106zM299 625q39 66 64 102q69 -45 137 -107q-26 -58 -67 -98q-26 22 -134 103zM616 -374q0 -33 23.5 -56.5t56.5 -23.5
t56.5 23.5t23.5 56.5t-23.5 56.5t-56.5 23.5t-56.5 -23.5t-23.5 -56.5z" />
    <glyph glyph-name="uni06BD.init" unicode="&#x6bd;" horiz-adv-x="441" 
d="M186 551h5q151 -222 151 -346q0 -71 -45 -145q-28 -34 -85.5 -47t-172.5 -13h-12q-43 0 -61.5 23.5t-18.5 49.5q0 55 60 55h16q145 0 194 19q50 20 50 42q0 41 -139 249q27 67 58 113zM271 742q-32 -59 -63 -92q-76 63 -133 104q28 50 64 95q51 -35 132 -107zM99 942
q-32 -60 -61 -92q-69 59 -131 104q28 50 64 95q61 -44 128 -107zM79 729q-35 -64 -61 -92q-59 50 -131 104q31 56 64 95q53 -39 128 -107z" />
    <glyph glyph-name="uni06BD.medi" unicode="&#x6bd;" horiz-adv-x="451" 
d="M7 128h21q61 0 107.5 23.5t50.5 64.5l12 108l61 50l7 -7q-6 -45 -6 -80q0 -85 49 -119q58 -40 130 -40h18l21 -128h-23q-160 0 -223 102h-4q-17 -49 -66.5 -75.5t-115.5 -26.5h-19q-43 0 -61.5 23.5t-18.5 49.5q0 55 60 55zM330 612q-32 -60 -61 -92q-67 56 -133 104
q28 50 64 95q64 -46 130 -107zM160 812q-34 -61 -61 -92q-43 36 -132 104q24 46 62 95q64 -45 131 -107zM140 599q-34 -61 -62 -92q-83 69 -132 104q25 44 63 95q58 -40 131 -107z" />
    <glyph glyph-name="uni06BD.fina" unicode="&#x6bd;" horiz-adv-x="965" 
d="M369 639q-30 -57 -61 -92q-70 58 -134 104q24 42 64 95q64 -45 131 -107zM390 852q-34 -61 -61 -92q-59 49 -134 104q28 50 64 95q64 -45 131 -107zM560 652q-35 -64 -61 -92q-53 44 -133 104q31 56 64 95q64 -46 130 -107zM641 422h8q64 -96 111 -192q31 -62 74.5 -82
t122.5 -20h14l21 -128h-21q-89 0 -151 45h-3q4 -28 4 -63q0 -121 -30 -168q-40 -67 -130.5 -114.5t-179.5 -47.5q-166 0 -265.5 107t-99.5 270q0 110 48 217l41 -21q-29 -82 -29 -156q0 -122 86.5 -197t205.5 -75q59 0 124.5 25t108.5 62q57 52 57 93q0 47 -46 142.5
t-122 196.5q28 66 51 106z" />
    <glyph glyph-name="uni06BF.init" unicode="&#x6bf;" horiz-adv-x="935" 
d="M7 128h60q121 0 243 44t262 137l1 4q-200 70 -330 70q-80 0 -114 -50l20 -50l-17 -90h-10l-70 132v18q0 75 52.5 118.5t139.5 43.5q109 0 340 -87q82 -31 175 -32l81 1l3 -2l-36 -105h-8q-102 0 -154 -37l-151 -109q-183 -134 -415 -134h-52q-43 0 -61.5 23.5t-18.5 49.5
q0 55 60 55zM173 749q34 58 65 102q67 -45 137 -107q-28 -59 -67 -98q-15 12 -135 103zM632 -411q-34 -61 -62 -92q-70 58 -134 104q35 57 64 95q58 -40 132 -107zM461 -212q-34 -62 -63 -92q-75 62 -132 104q31 56 64 95q51 -35 131 -107zM651 -199q-30 -57 -61 -92
q-70 58 -134 104q24 42 64 95q60 -41 131 -107z" />
    <glyph glyph-name="uni06BF.medi" unicode="&#x6bf;" horiz-adv-x="915" 
d="M572 309l1 4q-200 70 -330 70q-80 0 -114 -50l20 -50l-17 -90h-10l-70 132v18q0 75 52.5 118.5t139.5 43.5q110 0 339 -86q89 -33 176 -33h87l2 -2l-45 -103q-104 0 -158 -38l-151 -109q-187 -134 -421 -134h-46q-43 0 -61.5 23.5t-18.5 49.5q0 55 60 55h60q121 0 243 44
t262 137zM663 221l33 24l3 -1q23 -116 195 -116h27l21 -128h-31q-216 0 -242 165q-5 29 -6 56zM173 749q34 58 65 102q67 -45 137 -107q-28 -59 -67 -98q-15 12 -135 103zM632 -411q-34 -61 -62 -92q-70 58 -134 104q35 57 64 95q58 -40 132 -107zM461 -212q-34 -62 -63 -92
q-75 62 -132 104q31 56 64 95q51 -35 131 -107zM651 -199q-30 -57 -61 -92q-70 58 -134 104q24 42 64 95q60 -41 131 -107z" />
    <glyph glyph-name="uni06BF.fina" unicode="&#x6bf;" horiz-adv-x="939" 
d="M536 324l-2 3q-159 56 -291 56q-80 0 -114 -50l32 -84l-14 -79l-11 -3l-84 158v18q0 75 52.5 118.5t139.5 43.5q109 0 340 -87q80 -31 175 -32l88 1l1 -2l-43 -101q-47 -5 -133 -28t-124 -38q-146 -57 -232.5 -137t-86.5 -169q0 -109 79.5 -191.5t202.5 -123t266 -40.5
q121 0 258 22l4 -10q-95 -88 -145 -119q-90 -18 -183 -18q-108 0 -205.5 29t-176 84t-125 145t-46.5 203q0 153 106 272t272 159zM663 221l33 24l3 -1q23 -116 195 -116h51l21 -128h-55q-216 0 -242 165q-5 29 -6 56zM253 749q34 58 65 102q67 -45 137 -107q-28 -59 -67 -98
q-15 12 -135 103zM726 -62q-35 -62 -59 -86q-66 55 -125 98q25 45 60 89q58 -39 124 -101zM707 -262q-35 -62 -58 -86q-56 47 -125 98q28 49 59 89q54 -36 124 -101zM537 -74q-33 -61 -57 -86q-49 40 -125 98q29 50 60 89q56 -38 122 -101z" />
    <glyph glyph-name="uni06C2.fina" unicode="&#x6c2;" horiz-adv-x="789" 
d="M513 719v-3q-10 -35 -28 -68q-141 -23 -246 -75l-2 3l17 42q15 24 41 33l-1 3q-41 12 -66.5 37t-25.5 60q0 41 33 78q52 57 110 57q32 0 52 -17t20 -40q0 -27 -23 -57h-2q-18 27 -29 34.5t-35 7.5q-29 0 -48.5 -11t-19.5 -23q0 -27 44.5 -46t106.5 -19q34 0 102 4z
M795 128l21 -128h-19q-233 0 -323 218q-13 31 -52 31q-96 0 -241 -94q-72 -48 -106 -87l-10 9l50 152q190 158 318 158q69 0 98 -83q18 -54 53 -93q74 -83 194 -84z" />
    <glyph glyph-name="uni06C3.fina" unicode="&#x6c3;" horiz-adv-x="789" 
d="M565 682q-34 -61 -62 -92q-67 56 -133 104q28 50 64 95q58 -40 131 -107zM373 669q-32 -60 -61 -92q-67 56 -133 104q28 50 64 95q60 -42 130 -107zM795 128l21 -128h-19q-233 0 -323 218q-13 31 -52 31q-96 0 -241 -94q-72 -48 -106 -87l-10 9l50 152q190 158 318 158
q69 0 98 -83q18 -54 53 -93q74 -83 194 -84z" />
    <glyph glyph-name="uni06C4.fina" unicode="&#x6c4;" horiz-adv-x="698" 
d="M239 -294q42 0 82 14q-28 12 -44 38t-16 54q0 44 30.5 74.5t74.5 30.5q42 0 72.5 -28.5t32.5 -71.5l2 -1q89 106 100 184h-49q-345 0 -345 251q0 62 29 115q51 96 139 96q71 0 147.5 -92t120.5 -242h89l21 -128h-84v-16q0 -101 -47 -198q-41 -85 -104.5 -131.5
t-110.5 -46.5q-124 0 -304 101l12 33q72 -36 152 -36zM547 128q-32 90 -93 146q-59 56 -115 56q-41 0 -70 -25.5t-29 -56.5q0 -36 35 -63t89 -42q58 -15 183 -15zM301 -188q0 -27 19 -46t46 -19t46 19t19 46t-19 46t-46 19t-46 -19t-19 -46z" />
    <glyph glyph-name="uni06CA.fina" unicode="&#x6ca;" horiz-adv-x="690" 
d="M607 128h89l21 -128h-83v-8q0 -102 -48 -198q-42 -82 -103 -126t-108 -44q-123 0 -304 101l12 33q72 -36 153 -36q140 0 256 138q65 80 73 140h-51q-163 0 -253 62.5t-90 181.5q0 70 29 122q51 96 139 96q71 0 147.5 -92t120.5 -242zM539 128q-32 90 -93 146
q-59 56 -115 56q-39 0 -69 -26t-30 -56q0 -70 124 -104q63 -16 183 -16zM257 679q-34 -61 -61 -92q-59 49 -134 104q24 42 64 95q64 -45 131 -107zM448 692q-35 -64 -62 -92q-63 52 -132 104q31 56 64 95q58 -41 130 -107z" />
    <glyph glyph-name="uni06CD.fina" unicode="&#x6cd;" horiz-adv-x="1232" 
d="M885 128h353l21 -128h-58q2 -12 6 -29.5t6.5 -30.5t2.5 -25q0 -25 -9 -60.5t-17 -51.5q-82 -85 -201.5 -135.5t-231.5 -50.5q-198 0 -312.5 122.5t-114.5 313.5q0 71 11 126q-162 -73 -261 -134l-7 6l21 137q196 100 301 147l18 -18q-26 -93 -26 -177q0 -86 29.5 -163.5
t88.5 -128.5q106 -94 253 -94q155 0 310 86q72 40 79 69q-24 38 -107 64.5t-197 26.5l-9 14z" />
    <glyph glyph-name="uni06CE.init" unicode="&#x6ce;" horiz-adv-x="441" 
d="M186 551h5q151 -222 151 -346q0 -71 -45 -145q-28 -34 -85.5 -47t-172.5 -13h-12q-43 0 -61.5 23.5t-18.5 49.5q0 55 60 55h16q145 0 194 19q50 20 50 42q0 41 -139 249q27 67 58 113zM220 988q17 -30 35 -75q-109 -150 -117 -212l-18 -10q-20 59 -204 195l8 97h8
q137 -120 180 -176h3q18 61 105 181zM266 -307q-34 -62 -63 -92q-75 62 -132 104q31 56 64 95q51 -35 131 -107zM456 -294q-30 -57 -61 -92q-70 58 -134 104q24 42 64 95q60 -41 131 -107z" />
    <glyph glyph-name="uni06CE.medi" unicode="&#x6ce;" horiz-adv-x="451" 
d="M7 128h21q61 0 107.5 23.5t50.5 64.5l12 108l61 50l7 -7q-6 -45 -6 -80q0 -85 49 -119q58 -40 130 -40h18l21 -128h-23q-160 0 -223 102h-4q-17 -49 -66.5 -75.5t-115.5 -26.5h-19q-43 0 -61.5 23.5t-18.5 49.5q0 55 60 55zM265 868q23 -38 35 -75q-110 -152 -117 -212
l-17 -10q-18 58 -204 195l8 97h8q141 -121 179 -176h3q20 61 105 181zM286 -307q-34 -62 -63 -92q-75 62 -132 104q31 56 64 95q51 -35 131 -107zM476 -294q-30 -57 -61 -92q-70 58 -134 104q24 42 64 95q60 -41 131 -107z" />
    <glyph glyph-name="uni06CE.fina" unicode="&#x6ce;" horiz-adv-x="1017" 
d="M602 718q17 -30 35 -75q-110 -152 -117 -212l-18 -10q-17 58 -205 195l8 97h8q142 -122 181 -176h3q21 65 105 181zM670 128h353l21 -128h-58q2 -12 6 -29.5t6.5 -30.5t2.5 -25q0 -25 -9 -60.5t-17 -51.5q-82 -85 -202.5 -135.5t-233.5 -50.5q-178 0 -293 108
q-65 61 -100.5 155.5t-35.5 196.5q0 151 47 257l41 -17q-26 -100 -26 -183t30.5 -159.5t87.5 -126.5q107 -94 257 -94q153 0 306 86q72 40 79 69q-24 38 -107 64.5t-197 26.5l-9 14z" />
    <glyph glyph-name="uni06CF.fina" unicode="&#x6cf;" horiz-adv-x="690" 
d="M607 128h89l21 -128h-83v-8q0 -102 -48 -198q-42 -82 -103 -126t-108 -44q-123 0 -304 101l12 33q72 -36 153 -36q140 0 256 138q65 80 73 140h-51q-163 0 -253 62.5t-90 181.5q0 70 29 122q51 96 139 96q71 0 147.5 -92t120.5 -242zM539 128q-32 90 -93 146
q-59 56 -115 56q-39 0 -69 -26t-30 -56q0 -70 124 -104q63 -16 183 -16zM158 720q39 66 64 102q69 -45 137 -107q-26 -58 -67 -98q-26 22 -134 103z" />
    <glyph glyph-name="uni06D1.init" unicode="&#x6d1;" horiz-adv-x="445" 
d="M186 551h5q151 -222 151 -346q0 -71 -45 -145q-28 -34 -85.5 -47t-172.5 -13h-12q-43 0 -61.5 23.5t-18.5 49.5q0 55 60 55h16q145 0 194 19q50 20 50 42q0 41 -139 249q27 67 58 113zM434 -459q-34 -62 -63 -92q-76 63 -133 104q33 57 64 95q52 -35 132 -107zM262 -260
q-35 -64 -62 -92q-67 56 -133 104q34 59 65 95q58 -41 130 -107zM452 -247q-28 -57 -61 -92q-76 63 -133 104q28 50 64 95q57 -39 130 -107z" />
    <glyph glyph-name="uni06D1.medi" unicode="&#x6d1;" horiz-adv-x="451" 
d="M7 128h21q61 0 107.5 23.5t50.5 64.5l12 108l61 50l7 -7q-6 -45 -6 -80q0 -85 49 -119q58 -40 130 -40h18l21 -128h-23q-160 0 -223 102h-4q-17 -49 -66.5 -75.5t-115.5 -26.5h-19q-43 0 -61.5 23.5t-18.5 49.5q0 55 60 55zM434 -459q-34 -62 -63 -92q-76 63 -133 104
q33 57 64 95q52 -35 132 -107zM262 -260q-35 -64 -62 -92q-67 56 -133 104q34 59 65 95q58 -41 130 -107zM452 -247q-28 -57 -61 -92q-76 63 -133 104q28 50 64 95q57 -39 130 -107z" />
    <glyph glyph-name="uni06D1.fina" unicode="&#x6d1;" horiz-adv-x="1017" 
d="M785 -557q-34 -61 -61 -92q-72 59 -134 104q28 50 64 95q58 -40 131 -107zM593 -570q-32 -60 -61 -92q-67 56 -133 104q28 50 64 95q60 -42 130 -107zM765 -769q-30 -57 -61 -92q-70 58 -134 104q24 42 64 95q64 -45 131 -107zM670 128h353l21 -128h-58q2 -12 6 -29.5
t6.5 -30.5t2.5 -25q0 -25 -9 -60.5t-17 -51.5q-82 -85 -202.5 -135.5t-233.5 -50.5q-178 0 -293 108q-65 61 -100.5 155.5t-35.5 196.5q0 151 47 257l41 -17q-26 -100 -26 -183t30.5 -159.5t87.5 -126.5q107 -94 257 -94q153 0 306 86q72 40 79 69q-24 38 -107 64.5
t-197 26.5l-9 14z" />
    <glyph glyph-name="uni06D5.fina" unicode="&#x6d5;" horiz-adv-x="699" 
d="M474 139q-92 -44 -190 -44q-93 0 -148 36.5t-55 107.5q0 39 15 90q41 132 277 275l-18 75q33 48 67 82h11q26 -147 78 -466q19 -109 60 -141q34 -26 110 -26h24l21 -128h-22q-80 0 -135.5 29.5t-94.5 109.5zM442 246l-44 247q-237 -132 -237 -213q0 -31 39.5 -46.5
t97.5 -15.5q61 0 144 28z" />
    <glyph glyph-name="uni06EE.fina" unicode="&#x6ee;" horiz-adv-x="770" 
d="M188 840q-19 34 -34 75q110 155 116 212l18 10q21 -61 205 -195l-7 -97h-8q-137 117 -182 176h-3q-18 -61 -105 -181zM776 128l21 -128h-14q-153 0 -231 163h-5q-3 -61 -57 -96q-99 -67 -194 -67q-83 0 -135.5 48t-68.5 137q-6 39 -9 74l39 3q27 -134 162 -134
q77 0 155 50q53 33 53 70q0 53 -141 377q39 80 54 103l7 -4q74 -178 165 -445q25 -72 74.5 -111.5t107.5 -39.5h17z" />
    <glyph glyph-name="uni06EF.fina" unicode="&#x6ef;" horiz-adv-x="656" 
d="M378 343l6 1q66 -114 122.5 -165t137.5 -51h18l21 -128h-21q-67 0 -107 32h-4q11 -38 11 -82q0 -63 -19 -108q-41 -100 -95.5 -149.5t-112.5 -49.5q-104 0 -262 78l9 34q51 -22 119 -22q101 0 193 94t92 203v3q-12 21 -35 45q-63 75 -109 149q16 60 36 116zM173 490
q-22 39 -35 75q110 155 117 212l17 10q19 -60 205 -195l-7 -97h-8q-137 117 -182 176h-3q-19 -63 -104 -181z" />
    <glyph glyph-name="uni06FA.init" unicode="&#x6fa;" horiz-adv-x="905" 
d="M758 431l7 -3q6 -24 17 -62.5t16 -56.5t9 -44.5t4 -49.5q0 -56 -16 -102q-51 -110 -132 -110q-65 0 -138 83h-8q-63 -86 -160 -86q-88 0 -110 85h-4q-60 -85 -199 -85h-17q-43 0 -61.5 23.5t-18.5 49.5q0 55 60 55h33q148 2 196 93l43 79l72 27l6 -5q-46 -94 -46 -134
q0 -27 16.5 -43.5t43.5 -16.5q47 0 84 29q6 5 10.5 10.5t7.5 10t6 14t5 15.5t4.5 20.5t3.5 23t4 30.5t5 35l55 35l6 -4q-2 -24 -2 -37q0 -27 4 -61q8 -53 45 -84t77 -31q20 0 34 9.5t14 27.5q0 43 -51 170q33 49 75 90zM487 -290q32 54 64 102q67 -44 138 -107
q-28 -59 -68 -98q-26 22 -134 103zM472 589q-34 -62 -63 -92q-76 63 -133 104q33 57 64 95q52 -35 132 -107zM662 602q-34 -61 -61 -92q-59 49 -134 104q24 42 64 95q64 -45 131 -107zM491 802q-32 -60 -61 -92q-67 56 -133 104q28 50 64 95q60 -42 130 -107z" />
    <glyph glyph-name="uni06FA.medi" unicode="&#x6fa;" horiz-adv-x="1024" 
d="M1030 128l21 -128h-25q-164 0 -221 94h-6q-66 -94 -156 -94q-91 0 -123 83h-4q-63 -83 -159 -83q-88 0 -110 85h-4q-60 -85 -199 -85h-17q-43 0 -61.5 23.5t-18.5 49.5q0 55 60 55h33q71 1 119 22.5t77 70.5l38 78l72 27l6 -5q-43 -100 -43 -134q0 -26 18 -42.5t44 -16.5
q47 0 82 30q33 27 52 88l14 59l71 35l4 -4q-19 -80 -19 -118q0 -90 67 -90q35 0 66 22q36 26 43 96q4 30 6 79l69 51l4 -3q-6 -54 -6 -87q0 -82 44.5 -120t139.5 -38h22zM507 -290q32 54 64 102q67 -44 138 -107q-28 -59 -68 -98q-26 22 -134 103zM503 579q-35 -64 -62 -92
q-67 56 -133 104q33 57 64 95q58 -40 131 -107zM523 792q-34 -61 -61 -92q-59 49 -134 104q24 42 64 95q64 -45 131 -107zM693 592q-32 -60 -61 -92q-67 56 -133 104q28 50 64 95q60 -42 130 -107z" />
    <glyph glyph-name="uni06FA.fina" unicode="&#x6fa;" horiz-adv-x="1467" 
d="M1122 602q-34 -61 -61 -92q-59 49 -134 104q24 42 64 95q64 -45 131 -107zM932 589q-34 -62 -63 -92q-76 63 -133 104q33 57 64 95q52 -35 132 -107zM951 802q-32 -60 -61 -92q-67 56 -133 104q28 50 64 95q60 -42 130 -107zM998 -300q25 44 65 102q67 -45 137 -107
q-28 -59 -67 -98q-39 32 -135 103zM800 0h-20q-2 -114 -14 -160q-24 -85 -111.5 -140t-193.5 -55q-83 0 -150 31t-109 85t-64.5 123t-22.5 147q0 116 41 201l38 -18q-22 -75 -22 -140q0 -131 85 -210t201 -79q105 0 185 63t80 133q0 46 -41.5 123.5t-104.5 157.5
q17 46 49 107h4q66 -99 112 -191q15 -27 30.5 -38.5t41.5 -11.5q34 0 71 28q36 30 46 79l14 74l64 31l4 -5q-9 -60 -9 -102q0 -48 16.5 -76.5t64.5 -28.5q89 0 102 133l6 70l66 43l5 -5q-6 -58 -6 -92q0 -79 47.5 -114t145.5 -35h22l21 -128h-25q-174 0 -231 94h-6
q-66 -94 -160 -94q-89 0 -121 83h-6q-42 -83 -145 -83z" />
    <glyph glyph-name="uni06FB.init" unicode="&#x6fb;" horiz-adv-x="1066" 
d="M7 128h21q67 0 108 22.5t43 65.5q4 76 8 114q22 24 57 52l8 -6q-4 -25 -4 -57q0 -104 81 -148q80 165 165 254q105 109 223 109q67 0 120 -31.5t83 -78.5q46 -70 46 -148q0 -27 -7 -64q-21 -126 -179 -181q-86 -31 -243 -31q-212 0 -306 105h-3q-51 -105 -189 -105h-12
q-43 0 -61.5 23.5t-18.5 49.5q0 55 60 55zM384 149q65 -21 190 -21q139 0 251 57q70 37 70 67q0 11 -8 29t-24.5 40.5t-38.5 42t-55 32.5t-69 13q-86 0 -170 -71.5t-146 -188.5zM429 774q34 58 65 102q63 -41 137 -107q-28 -59 -68 -98q-48 39 -134 103zM628 -300
q25 44 65 102q67 -45 137 -107q-28 -59 -67 -98q-39 32 -135 103z" />
    <glyph glyph-name="uni06FB.medi" unicode="&#x6fb;" horiz-adv-x="1063" 
d="M7 128h21q67 0 108 22.5t43 65.5q4 76 8 114q22 24 57 52l8 -6q-4 -25 -4 -57q0 -106 76 -148q79 164 166 252q101 103 208 103q114 0 188.5 -78t74.5 -182q0 -68 -25 -138h133l21 -128h-26q-152 0 -305 35q-107 -35 -227 -35q-206 0 -301 105h-3q-51 -105 -189 -105h-12
q-43 0 -61.5 23.5t-18.5 49.5q0 55 60 55zM383 149q65 -21 186 -21q71 0 141.5 13.5t110.5 31.5q71 31 71 70q0 40 -62.5 97t-147.5 57q-158 0 -299 -248zM628 -300q25 44 65 102q67 -45 137 -107q-28 -59 -67 -98q-39 32 -135 103zM430 769q39 67 65 102q69 -46 136 -107
q-24 -55 -66 -98q-15 12 -135 103z" />
    <glyph glyph-name="uni06FB.fina" unicode="&#x6fb;" horiz-adv-x="1477" 
d="M738 171q78 162 166 251q102 104 208 104q114 0 188.5 -78t74.5 -182q0 -68 -25 -138h133l21 -128h-38q-140 0 -293 35q-107 -35 -227 -35q-34 0 -62 1.5t-47 5t-30.5 5.5t-23 6t-13.5 4v-16q0 -81 -15 -138q-25 -87 -107 -144.5t-185 -57.5q-85 0 -153.5 34t-110.5 91.5
t-64.5 129.5t-22.5 151q0 113 39 191l41 -18q-23 -77 -23 -138q0 -133 84.5 -217t199.5 -84q87 0 161 58t94 129q-43 176 -158 318q17 47 58 107l8 -1q82 -107 122 -246zM797 149q65 -21 186 -21q69 0 140 13t112 32q71 31 71 70q0 14 -14.5 38.5t-39.5 51t-67 45.5t-89 19
q-158 0 -299 -248zM1002 -300q25 44 65 102q67 -45 137 -107q-28 -59 -67 -98q-39 32 -135 103zM764 769q39 67 65 102q69 -46 136 -107q-24 -55 -66 -98q-15 12 -135 103z" />
    <glyph glyph-name="uni06FC.init" unicode="&#x6fc;" horiz-adv-x="733" 
d="M7 128h62q74 0 145 21l-2 5q-149 88 -149 221q0 50 24 106q28 62 75.5 98t110.5 36q138 0 248 -163l-16 -20q-86 64 -189 64q-74 0 -122 -26t-48 -55q0 -32 29.5 -71.5t78.5 -73.5q33 -23 70.5 -38.5t59.5 -15.5q36 0 83.5 10.5t84 23t106.5 37.5l7 -5l-34 -124
q-83 -31 -188 -59.5t-150 -44.5q-57 -20 -83 -28t-70.5 -17t-81.5 -9h-31q-43 0 -61.5 23.5t-18.5 49.5q0 55 60 55zM52 829q45 74 66 102q69 -46 136 -107q-25 -57 -68 -98q-39 33 -134 103zM304 -271q32 54 64 102q67 -44 138 -107q-28 -59 -68 -98q-26 22 -134 103z" />
    <glyph glyph-name="uni06FC.medi" unicode="&#x6fc;" horiz-adv-x="748" 
d="M7 128h41q77 0 132 9t122 41l-1 4q-23 16 -49.5 37t-60 49.5t-50.5 42.5q-53 42 -76 42h-31l-3 2l21 115l31 4q146 33 264 33q169 0 296 -50l-18 -109l-148 -161v-4q112 -55 237 -55h40l21 -128h-30q-85 0 -178.5 30.5t-174.5 86.5h-4q-78 -64 -156.5 -90.5t-173.5 -26.5
h-31q-43 0 -61.5 23.5t-18.5 49.5q0 55 60 55zM392 226h4q100 82 160 149v4q-112 25 -194 25q-84 0 -179 -18v-4q12 -9 37.5 -31t30.5 -26q65 -52 141 -99zM344 -271q32 54 64 102q67 -44 138 -107q-28 -59 -68 -98q-26 22 -134 103zM169 779q39 66 64 102q69 -45 137 -107
q-25 -57 -68 -98q-3 3 -133 103z" />
    <glyph glyph-name="uni06FC.fina" unicode="&#x6fc;" horiz-adv-x="842" 
d="M239 779q39 66 64 102q69 -45 137 -107q-25 -57 -68 -98q-3 3 -133 103zM422 -171q58 90 66 102q69 -45 137 -107q-24 -54 -68 -98q-39 32 -135 103zM455 128h-6q-251 -139 -251 -272q0 -90 68.5 -160t182 -107.5t249.5 -37.5q144 0 255 29l9 -18q-84 -71 -151 -112
q-47 -29 -163 -29q-99 0 -189 26.5t-163.5 77t-117.5 133.5t-44 187q0 199 220 353q-21 16 -44.5 36t-51 44t-42.5 37q-4 3 -12 10t-12 10t-11 8.5t-11.5 8.5t-10 6t-10.5 4.5t-9 1.5q-12 0 -46 -12l-7 9l25 109l45 8q148 33 266 33q174 0 291 -46l-6 -113l-167 -166v-4
q109 -54 249 -54h58l21 -129h-47q-86 0 -184.5 35.5t-182.5 93.5zM445 236l4 -1q8 5 35 24t40 28.5t35 26.5t39.5 33.5t32.5 33.5l-1 6q-109 23 -198 23q-98 0 -185 -20v-5q7 -5 39 -28.5t46 -34.5q88 -68 113 -86z" />
    <glyph glyph-name="uni06FF.init" unicode="&#x6ff;" horiz-adv-x="920" 
d="M7 128h17q104 0 173 29q-47 99 -47 180q0 73 38 139q37 64 84 93q-1 13 -1 38q0 22 2 62h8q49 -41 115.5 -86t150.5 -98t128 -83q83 -57 122 -115t39 -135q0 -67 -42.5 -109.5t-128.5 -42.5q-130 0 -353 68q-154 -68 -262 -68h-23q-43 0 -61.5 23.5t-18.5 49.5
q0 55 60 55zM331 183q33 12 59.5 24.5t54 37.5t26.5 50q-2 50 -46 106t-82 56q-51 0 -95.5 -53.5t-44.5 -98.5q0 -28 34 -61t94 -61zM486 140q89 -28 191 -28q42 0 70 12t28 29q0 77 -249 220q0 -5 0.5 -17t0.5 -17q0 -99 -41 -199zM112 780q-22 33 -35 75q110 155 116 212
l17 10q21 -60 206 -195l-8 -97h-8q-137 117 -182 176h-3q-18 -58 -103 -181z" />
    <glyph glyph-name="uni06FF.medi" unicode="&#x6ff;" horiz-adv-x="632" 
d="M7 128h110q9 125 21 213q19 153 73 257l8 3q12 -20 47 -60q69 -80 102 -125t56 -103t23 -123q0 -24 -4 -62h195l21 -128h-26q-53 0 -87 10l-4 -2q64 -86 64 -172q0 -47 -16 -84q-17 -38 -54 -65.5t-81 -27.5q-79 0 -148 40q-69 39 -117 110t-59 147l-8 49q-38 -5 -77 -5
h-19q-43 0 -61.5 23.5t-18.5 49.5q0 55 60 55zM182 2q17 -71 86 -138q46 -46 102 -73t104 -27q51 0 51 41q0 62 -58 128q-67 78 -173 78q-55 0 -112 -9zM173 128q105 0 155 14q57 16 57 48q0 25 -27 69.5t-56 81t-78 93.5h-5q-31 -160 -46 -306zM48 740q-23 38 -35 75
q110 155 117 212l17 10q19 -60 205 -195l-8 -97h-8q-139 119 -181 176h-3q-21 -63 -104 -181z" />
    <glyph glyph-name="uni06FF.fina" unicode="&#x6ff;" horiz-adv-x="803" 
d="M198 740q-23 38 -35 75q110 155 117 212l17 10q19 -60 205 -195l-8 -97h-8q-139 119 -181 176h-3q-21 -63 -104 -181zM97 -93l-17 10q25 77 62 133q27 46 147 68q18 206 20 223q19 153 73 257l8 3q12 -20 47 -60q69 -80 102 -125t56 -103t23 -123q0 -24 -4 -62h195
l21 -128h-26q-53 0 -87 10l-4 -2q64 -86 64 -172q0 -47 -16 -84q-17 -38 -54 -65.5t-81 -27.5q-79 0 -148 40q-68 39 -116 109.5t-60 147.5l-6 40q-150 -23 -199 -89zM353 3q16 -71 86 -139q46 -46 102 -73t104 -27q51 0 51 42q0 61 -58 127q-67 78 -173 78q-51 0 -112 -8z
M345 122q109 7 154 20q57 16 57 47q0 25 -27 70t-56 81.5t-78 93.5h-5q-23 -120 -45 -312z" />
    <glyph glyph-name="uniFB50" unicode="&#x671;" horiz-adv-x="406" arabic-form="isolated" 
d="M240 -24l-15 7v35q0 53 -19 165l-15 98q-36 229 -134 622q37 60 81 106l10 -3q63 -249 137 -704q19 -129 19 -180q0 -37 -14 -67.5t-50 -78.5zM-112 1075l-7 3l-6 73q22 63 49 63q14 0 41 -12q68 130 146 130q41 0 73 -30q44 -46 44 -106q0 -44 -25 -73q-33 -38 -95 -38
q-45 0 -85 11.5t-62 22.5t-25 11q-8 0 -22.5 -18t-25.5 -37zM-3 1185q51 -24 108 -24q30 0 57 11.5t27 29.5v3q-11 25 -33 41.5t-46 17.5q-62 0 -113 -79z" />
    <glyph glyph-name="uniFB51" unicode="&#x671;" horiz-adv-x="436" arabic-form="final" 
d="M442 128l21 -128h-11q-115 0 -180 57q-35 30 -55.5 72t-28.5 79.5t-23 128.5q-35 220 -121 601q48 63 79 93l9 -4q50 -218 130 -724l9 -57q11 -80 91 -107q33 -11 66 -11h14zM-112 1075l-7 3l-6 73q22 63 49 63q14 0 41 -12q68 130 146 130q41 0 73 -30q44 -46 44 -106
q0 -44 -25 -73q-33 -38 -95 -38q-45 0 -85 11.5t-62 22.5t-25 11q-8 0 -22.5 -18t-25.5 -37zM-3 1185q51 -24 108 -24q30 0 57 11.5t27 29.5v3q-11 25 -33 41.5t-46 17.5q-62 0 -113 -79z" />
    <glyph glyph-name="uniFB52" unicode="&#x67b;" horiz-adv-x="1266" arabic-form="isolated" 
d="M816 -252q-33 -59 -63 -90q-77 61 -133 102q24 42 64 92q65 -43 132 -104zM867 -454q-37 -64 -61 -89q-55 44 -134 101q27 47 64 93q62 -42 131 -105zM1144 79q-63 -43 -220 -81t-298 -38q-123 0 -222.5 24.5t-174.5 75t-116.5 133.5t-41.5 193q0 91 28 164l42 -17
q-9 -49 -9 -92q0 -117 66.5 -196.5t175 -114t252.5 -34.5q165 0 340 43q79 19 126 41q7 3 7 10q0 41 -138 248q27 67 58 113h5q151 -221 151 -350q0 -50 -31 -122z" />
    <glyph glyph-name="uniFB53" unicode="&#x67b;" horiz-adv-x="1361" arabic-form="final" 
d="M806 -252q-33 -59 -63 -90q-77 61 -133 102q24 42 64 92q65 -43 132 -104zM857 -454q-37 -64 -61 -89q-55 44 -134 101q27 47 64 93q62 -42 131 -105zM1367 128l21 -128h-18q-79 0 -133.5 19.5t-90.5 67.5q-54 -36 -146 -64q-204 -63 -377 -63q-221 0 -355 77
q-97 55 -147 144.5t-50 204.5q0 91 28 164l42 -17q-9 -49 -9 -92q0 -89 44 -162.5t127 -118.5q118 -64 327 -64q148 0 335 45q73 18 126 43l22 140l60 49l7 -7q-7 -49 -7 -83q0 -81 50 -117q54 -38 126 -38h18z" />
    <glyph glyph-name="uniFB54" unicode="&#x67b;" horiz-adv-x="433" arabic-form="initial" 
d="M186 551h5q151 -222 151 -346q0 -71 -45 -145q-28 -34 -85.5 -47t-172.5 -13h-12q-43 0 -61.5 23.5t-18.5 49.5q0 55 60 55h16q145 0 194 19q50 20 50 42q0 41 -139 249q27 67 58 113zM364 -232q-33 -59 -63 -90q-77 61 -133 102q24 42 64 92q65 -43 132 -104zM415 -434
q-37 -64 -62 -89q-66 53 -133 101q27 47 64 93q67 -46 131 -105z" />
    <glyph glyph-name="uniFB55" unicode="&#x67b;" horiz-adv-x="451" arabic-form="medial" 
d="M7 128h21q61 0 107.5 23.5t50.5 64.5l12 108l61 50l7 -7q-6 -45 -6 -80q0 -85 49 -119q58 -40 130 -40h18l21 -128h-23q-160 0 -223 102h-4q-17 -49 -66.5 -75.5t-115.5 -26.5h-19q-43 0 -61.5 23.5t-18.5 49.5q0 55 60 55zM374 -232q-33 -59 -63 -90q-77 61 -133 102
q24 42 64 92q65 -43 132 -104zM425 -434q-37 -64 -62 -89q-66 53 -133 101q27 47 64 93q67 -46 131 -105z" />
    <glyph glyph-name="uniFB56" unicode="&#x67e;" horiz-adv-x="1266" arabic-form="isolated" 
d="M921 -247q-28 -57 -61 -92q-76 63 -133 104q28 50 64 95q57 -39 130 -107zM731 -260q-35 -64 -62 -92q-67 56 -133 104q34 59 65 95q58 -41 130 -107zM903 -459q-34 -62 -63 -92q-76 63 -133 104q33 57 64 95q51 -35 132 -107zM1144 79q-63 -43 -220 -81t-298 -38
q-123 0 -222.5 24.5t-174.5 75t-116.5 133.5t-41.5 193q0 91 28 164l42 -17q-9 -49 -9 -92q0 -117 66.5 -196.5t175 -114t252.5 -34.5q165 0 340 43q79 19 126 41q7 3 7 10q0 41 -138 248q27 67 58 113h5q151 -221 151 -350q0 -50 -31 -122z" />
    <glyph glyph-name="uniFB57" unicode="&#x67e;" horiz-adv-x="1361" arabic-form="final" 
d="M921 -247q-28 -57 -61 -92q-76 63 -133 104q28 50 64 95q57 -39 130 -107zM731 -260q-35 -64 -62 -92q-67 56 -133 104q34 59 65 95q58 -41 130 -107zM903 -459q-34 -62 -63 -92q-76 63 -133 104q33 57 64 95q51 -35 132 -107zM1367 128l21 -128h-18q-79 0 -133.5 19.5
t-90.5 67.5q-54 -36 -146 -64q-204 -63 -377 -63q-221 0 -355 77q-97 55 -147 144.5t-50 204.5q0 91 28 164l42 -17q-9 -49 -9 -92q0 -89 44 -162.5t127 -118.5q118 -64 327 -64q148 0 335 45q73 18 126 43l22 140l60 49l7 -7q-7 -49 -7 -83q0 -81 50 -117q54 -38 126 -38
h18z" />
    <glyph glyph-name="uniFB58" unicode="&#x67e;" horiz-adv-x="441" arabic-form="initial" 
d="M186 551h5q151 -222 151 -346q0 -71 -45 -145q-28 -34 -85.5 -47t-172.5 -13h-12q-43 0 -61.5 23.5t-18.5 49.5q0 55 60 55h16q145 0 194 19q50 20 50 42q0 41 -139 249q27 67 58 113zM434 -459q-34 -62 -63 -92q-76 63 -133 104q33 57 64 95q52 -35 132 -107zM262 -260
q-35 -64 -62 -92q-67 56 -133 104q34 59 65 95q58 -41 130 -107zM452 -247q-28 -57 -61 -92q-76 63 -133 104q28 50 64 95q57 -39 130 -107z" />
    <glyph glyph-name="uniFB59" unicode="&#x67e;" horiz-adv-x="451" arabic-form="medial" 
d="M7 128h21q61 0 107.5 23.5t50.5 64.5l12 108l61 50l7 -7q-6 -45 -6 -80q0 -85 49 -119q58 -40 130 -40h18l21 -128h-23q-160 0 -223 102h-4q-17 -49 -66.5 -75.5t-115.5 -26.5h-19q-43 0 -61.5 23.5t-18.5 49.5q0 55 60 55zM434 -459q-34 -62 -63 -92q-76 63 -133 104
q33 57 64 95q52 -35 132 -107zM262 -260q-35 -64 -62 -92q-67 56 -133 104q34 59 65 95q58 -41 130 -107zM452 -247q-28 -57 -61 -92q-76 63 -133 104q28 50 64 95q57 -39 130 -107z" />
    <glyph glyph-name="uniFB5A" unicode="&#x680;" horiz-adv-x="1266" arabic-form="isolated" 
d="M771 -444q-35 -62 -59 -86q-66 55 -125 98q25 45 60 89q58 -39 124 -101zM953 -431q-27 -51 -57 -87q-53 43 -125 98q26 50 59 89q60 -43 123 -100zM729 -254q-32 -58 -58 -86q-89 71 -125 98q22 40 61 89q60 -42 122 -101zM912 -242q-34 -60 -58 -86q-56 47 -125 98
q29 52 60 89q62 -44 123 -101zM1144 79q-63 -43 -220 -81t-298 -38q-123 0 -222.5 24.5t-174.5 75t-116.5 133.5t-41.5 193q0 91 28 164l42 -17q-9 -49 -9 -92q0 -117 66.5 -196.5t175 -114t252.5 -34.5q165 0 340 43q79 19 126 41q7 3 7 10q0 41 -138 248q27 67 58 113h5
q151 -221 151 -350q0 -50 -31 -122z" />
    <glyph glyph-name="uniFB5B" unicode="&#x680;" horiz-adv-x="1361" arabic-form="final" 
d="M771 -444q-35 -62 -59 -86q-66 55 -125 98q25 45 60 89q58 -39 124 -101zM953 -431q-27 -51 -57 -87q-53 43 -125 98q26 50 59 89q60 -43 123 -100zM729 -254q-32 -58 -58 -86q-89 71 -125 98q22 40 61 89q60 -42 122 -101zM912 -242q-34 -60 -58 -86q-56 47 -125 98
q29 52 60 89q62 -44 123 -101zM1367 128l21 -128h-18q-79 0 -133.5 19.5t-90.5 67.5q-54 -36 -146 -64q-204 -63 -377 -63q-221 0 -355 77q-97 55 -147 144.5t-50 204.5q0 91 28 164l42 -17q-9 -49 -9 -92q0 -89 44 -162.5t127 -118.5q118 -64 327 -64q148 0 335 45
q73 18 126 43l22 140l60 49l7 -7q-7 -49 -7 -83q0 -81 50 -117q54 -38 126 -38h18z" />
    <glyph glyph-name="uniFB5C" unicode="&#x680;" horiz-adv-x="451" arabic-form="initial" 
d="M186 551h5q151 -222 151 -346q0 -71 -45 -145q-28 -34 -85.5 -47t-172.5 -13h-12q-43 0 -61.5 23.5t-18.5 49.5q0 55 60 55h16q145 0 194 19q50 20 50 42q0 41 -139 249q27 67 58 113zM259 -254q-32 -58 -58 -86q-89 71 -125 98q22 40 61 89q60 -42 122 -101zM301 -444
q-35 -62 -59 -86q-66 55 -125 98q25 45 60 89q58 -39 124 -101zM442 -242q-34 -60 -58 -86q-56 47 -125 98q29 52 60 89q62 -44 123 -101zM483 -431q-27 -51 -57 -87q-53 43 -125 98q26 50 59 89q60 -43 123 -100z" />
    <glyph glyph-name="uniFB5D" unicode="&#x680;" horiz-adv-x="451" arabic-form="medial" 
d="M7 128h21q61 0 107.5 23.5t50.5 64.5l12 108l61 50l7 -7q-6 -45 -6 -80q0 -85 49 -119q58 -40 130 -40h18l21 -128h-23q-160 0 -223 102h-4q-17 -49 -66.5 -75.5t-115.5 -26.5h-19q-43 0 -61.5 23.5t-18.5 49.5q0 55 60 55zM259 -254q-32 -58 -58 -86q-89 71 -125 98
q22 40 61 89q60 -42 122 -101zM301 -444q-35 -62 -59 -86q-66 55 -125 98q25 45 60 89q58 -39 124 -101zM442 -242q-34 -60 -58 -86q-56 47 -125 98q29 52 60 89q62 -44 123 -101zM483 -431q-27 -51 -57 -87q-53 43 -125 98q26 50 59 89q60 -43 123 -100z" />
    <glyph glyph-name="uniFB5E" unicode="&#x67a;" horiz-adv-x="1266" arabic-form="isolated" 
d="M581 918q-35 -62 -62 -90q-54 43 -133 102q28 49 64 92q61 -40 131 -104zM633 716q-35 -61 -61 -89q-62 49 -135 101q27 45 64 93q62 -42 132 -105zM1144 79q-63 -43 -220 -81t-298 -38q-123 0 -222.5 24.5t-174.5 75t-116.5 133.5t-41.5 193q0 91 28 164l42 -17
q-9 -49 -9 -92q0 -117 66.5 -196.5t175 -114t252.5 -34.5q165 0 340 43q79 19 126 41q7 3 7 10q0 41 -138 248q27 67 58 113h5q151 -221 151 -350q0 -50 -31 -122z" />
    <glyph glyph-name="uniFB5F" unicode="&#x67a;" horiz-adv-x="1361" arabic-form="final" 
d="M631 918q-35 -62 -62 -90q-54 43 -133 102q28 49 64 92q61 -40 131 -104zM683 716q-35 -61 -61 -89q-62 49 -135 101q27 45 64 93q62 -42 132 -105zM1367 128l21 -128h-18q-79 0 -133.5 19.5t-90.5 67.5q-54 -36 -146 -64q-204 -63 -377 -63q-221 0 -355 77
q-97 55 -147 144.5t-50 204.5q0 91 28 164l42 -17q-9 -49 -9 -92q0 -89 44 -162.5t127 -118.5q118 -64 327 -64q148 0 335 45q73 18 126 43l22 140l60 49l7 -7q-7 -49 -7 -83q0 -81 50 -117q54 -38 126 -38h18z" />
    <glyph glyph-name="uniFB60" unicode="&#x67a;" horiz-adv-x="436" arabic-form="initial" 
d="M186 551h5q151 -222 151 -346q0 -71 -45 -145q-28 -34 -85.5 -47t-172.5 -13h-12q-43 0 -61.5 23.5t-18.5 49.5q0 55 60 55h16q145 0 194 19q50 20 50 42q0 41 -139 249q27 67 58 113zM209 746q-37 -64 -62 -89q-66 53 -133 101q27 47 64 93q62 -42 131 -105zM158 948
q-33 -59 -62 -90q-29 23 -132 102q24 45 62 92q65 -43 132 -104z" />
    <glyph glyph-name="uniFB61" unicode="&#x67a;" horiz-adv-x="451" arabic-form="medial" 
d="M7 128h21q61 0 107.5 23.5t50.5 64.5l12 108l61 50l7 -7q-6 -45 -6 -80q0 -85 49 -119q58 -40 130 -40h18l21 -128h-23q-160 0 -223 102h-4q-17 -49 -66.5 -75.5t-115.5 -26.5h-19q-43 0 -61.5 23.5t-18.5 49.5q0 55 60 55zM209 818q-32 -56 -63 -90q-79 63 -134 102
q34 57 65 92q52 -35 132 -104zM260 616q-36 -62 -62 -89q-71 56 -134 101q33 56 65 93q60 -42 131 -105z" />
    <glyph glyph-name="uniFB62" unicode="&#x67f;" horiz-adv-x="1266" arabic-form="isolated" 
d="M543 716q-35 -62 -59 -86q-56 49 -125 98q32 54 61 89q58 -40 123 -101zM722 729q-29 -55 -57 -87q-53 43 -125 98q26 50 59 89q51 -35 123 -100zM501 906q-31 -58 -57 -86q-57 47 -126 98q32 53 61 89q60 -42 122 -101zM681 918q-37 -65 -58 -86q-56 47 -125 98
q29 52 60 89q54 -37 123 -101zM1144 79q-63 -43 -220 -81t-298 -38q-123 0 -222.5 24.5t-174.5 75t-116.5 133.5t-41.5 193q0 91 28 164l42 -17q-9 -49 -9 -92q0 -117 66.5 -196.5t175 -114t252.5 -34.5q165 0 340 43q79 19 126 41q7 3 7 10q0 41 -138 248q27 67 58 113h5
q151 -221 151 -350q0 -50 -31 -122z" />
    <glyph glyph-name="uniFB63" unicode="&#x67f;" horiz-adv-x="1361" arabic-form="final" 
d="M583 716q-35 -62 -59 -86q-56 49 -125 98q32 54 61 89q58 -40 123 -101zM762 729q-29 -55 -57 -87q-53 43 -125 98q26 50 59 89q51 -35 123 -100zM541 906q-31 -58 -57 -86q-57 47 -126 98q32 53 61 89q60 -42 122 -101zM721 918q-37 -65 -58 -86q-56 47 -125 98
q29 52 60 89q54 -37 123 -101zM1367 128l21 -128h-18q-79 0 -133.5 19.5t-90.5 67.5q-54 -36 -146 -64q-204 -63 -377 -63q-221 0 -355 77q-97 55 -147 144.5t-50 204.5q0 91 28 164l42 -17q-9 -49 -9 -92q0 -89 44 -162.5t127 -118.5q118 -64 327 -64q148 0 335 45
q73 18 126 43l22 140l60 49l7 -7q-7 -49 -7 -83q0 -81 50 -117q54 -38 126 -38h18z" />
    <glyph glyph-name="uniFB64" unicode="&#x67f;" horiz-adv-x="441" arabic-form="initial" 
d="M186 551h5q151 -222 151 -346q0 -71 -45 -145q-28 -34 -85.5 -47t-172.5 -13h-12q-43 0 -61.5 23.5t-18.5 49.5q0 55 60 55h16q145 0 194 19q50 20 50 42q0 41 -139 249q27 67 58 113zM220 928q-34 -60 -59 -86q-66 55 -125 98q27 48 61 89q58 -40 123 -101zM261 739
q-28 -52 -58 -87q-68 56 -125 98q25 47 60 89q60 -43 123 -100zM39 916q-34 -63 -55 -86q-89 71 -125 98q19 36 60 89q55 -37 120 -101zM81 726q-37 -65 -58 -86q-51 44 -123 98q29 52 60 89q50 -35 121 -101z" />
    <glyph glyph-name="uniFB65" unicode="&#x67f;" horiz-adv-x="451" arabic-form="medial" 
d="M7 128h21q61 0 107.5 23.5t50.5 64.5l12 108l61 50l7 -7q-6 -45 -6 -80q0 -85 49 -119q58 -40 130 -40h18l21 -128h-23q-160 0 -223 102h-4q-17 -49 -66.5 -75.5t-115.5 -26.5h-19q-43 0 -61.5 23.5t-18.5 49.5q0 55 60 55zM281 798q-34 -60 -59 -86q-68 57 -126 98
q27 46 61 89q55 -39 124 -101zM321 609q-29 -55 -57 -87q-71 58 -126 98q25 45 60 89q55 -39 123 -100zM142 596q-35 -62 -58 -86q-59 50 -123 98q28 51 57 89q58 -39 124 -101zM100 786q-31 -58 -57 -86q-76 62 -123 98q22 40 59 89q60 -43 121 -101z" />
    <glyph glyph-name="uniFB66" unicode="&#x679;" horiz-adv-x="1266" arabic-form="isolated" 
d="M1144 79q-63 -43 -220 -81t-298 -38q-123 0 -222.5 24.5t-174.5 75t-116.5 133.5t-41.5 193q0 91 28 164l42 -17q-9 -49 -9 -92q0 -117 66.5 -196.5t175 -114t252.5 -34.5q165 0 340 43q79 19 126 41q7 3 7 10q0 41 -138 248q27 67 58 113h5q151 -221 151 -350
q0 -50 -31 -122zM436 624l-105 77l4 6l103 -4q7 15 7 42q0 36 -11 94.5t-24 110t-13 52.5q-1 3 -1 7q0 5 1.5 10.5t3 9.5t6.5 11t7 10t8.5 11.5t8.5 11.5h6q18 -53 58 -111l-31 -31l17 -101v-11q0 -15 -3 -30l4 -2q58 116 131 116q50 0 84 -38t34 -88q0 -22 -7 -52
q-13 -50 -55 -73q-61 -31 -158 -31q-52 0 -75 3zM475 704q194 5 221 58q-27 61 -85 61q-80 0 -136 -119z" />
    <glyph glyph-name="uniFB67" unicode="&#x679;" horiz-adv-x="1361" arabic-form="final" 
d="M1367 128l21 -128h-18q-79 0 -133.5 19.5t-90.5 67.5q-54 -36 -146 -64q-204 -63 -377 -63q-221 0 -355 77q-97 55 -147 144.5t-50 204.5q0 91 28 164l42 -17q-9 -49 -9 -92q0 -89 44 -162.5t127 -118.5q118 -64 327 -64q148 0 335 45q73 18 126 43l22 140l60 49l7 -7
q-7 -49 -7 -83q0 -81 50 -117q54 -38 126 -38h18zM476 624l-105 77l4 6l103 -4q7 15 7 42q0 36 -11 94.5t-24 110t-13 52.5q-1 3 -1 7q0 5 1.5 10.5t3 9.5t6.5 11t7 10t8.5 11.5t8.5 11.5h6q18 -53 58 -111l-31 -31l17 -101v-11q0 -15 -3 -30l4 -2q58 116 131 116
q50 0 84 -38t34 -88q0 -22 -7 -52q-13 -50 -55 -73q-61 -31 -158 -31q-52 0 -75 3zM515 704q194 5 221 58q-27 61 -85 61q-80 0 -136 -119z" />
    <glyph glyph-name="uniFB68" unicode="&#x679;" horiz-adv-x="441" arabic-form="initial" 
d="M-24 634l-105 77l4 6l103 -4q7 15 7 42q0 36 -11 94.5t-24 110t-13 52.5q-1 3 -1 7q0 5 1.5 10.5t3 9.5t6.5 11t7 10t8.5 11.5t8.5 11.5h6q18 -53 58 -111l-31 -31l17 -101v-11q0 -15 -3 -30l4 -2q58 116 131 116q50 0 84 -38t34 -88q0 -22 -7 -52q-13 -50 -55 -73
q-61 -31 -158 -31q-52 0 -75 3zM186 551h5q151 -222 151 -346q0 -71 -45 -145q-28 -34 -85.5 -47t-172.5 -13h-12q-43 0 -61.5 23.5t-18.5 49.5q0 55 60 55h16q145 0 194 19q50 20 50 42q0 41 -139 249q27 67 58 113zM15 714q194 5 221 58q-27 61 -85 61q-80 0 -136 -119z
" />
    <glyph glyph-name="uniFB69" unicode="&#x679;" horiz-adv-x="451" arabic-form="medial" 
d="M36 504l-105 77l4 6l103 -4q7 15 7 42q0 36 -11 94.5t-24 110t-13 52.5q-1 3 -1 7q0 5 1.5 10.5t3 9.5t6.5 11t7 10t8.5 11.5t8.5 11.5h6q18 -53 58 -111l-31 -31l17 -101v-11q0 -15 -3 -30l4 -2q58 116 131 116q50 0 84 -38t34 -88q0 -22 -7 -52q-13 -50 -55 -73
q-61 -31 -158 -31q-52 0 -75 3zM7 128h21q61 0 107.5 23.5t50.5 64.5l12 108l61 50l7 -7q-6 -45 -6 -80q0 -85 49 -119q58 -40 130 -40h18l21 -128h-23q-160 0 -223 102h-4q-17 -49 -66.5 -75.5t-115.5 -26.5h-19q-43 0 -61.5 23.5t-18.5 49.5q0 55 60 55zM75 584
q194 5 221 58q-27 61 -85 61q-80 0 -136 -119z" />
    <glyph glyph-name="uniFB6A" unicode="&#x6a4;" horiz-adv-x="1318" arabic-form="isolated" 
d="M1144 253q-36 -4 -109 -4q-190 0 -256 108q-30 49 -30 119q0 90 48 150q54 67 118 67q116 0 221 -196q85 -160 85 -296q0 -58 -23 -92q-73 -51 -198 -88q-210 -61 -372 -61q-226 0 -360 77q-97 55 -147 144.5t-50 204.5q0 91 28 164l42 -17q-9 -49 -9 -92
q0 -89 44 -162.5t127 -118.5q118 -64 323 -64q151 0 339 44q64 15 126 43.5t62 42.5t-9 27zM1110 368q-28 77 -83.5 135.5t-113.5 58.5q-47 0 -76 -26t-29 -57q0 -56 82.5 -83.5t210.5 -27.5h9zM856 839q-30 -58 -62 -92q-76 63 -133 104q28 50 64 95q58 -40 131 -107z
M1047 852q-34 -61 -61 -92q-59 49 -134 104q28 50 64 95q64 -45 131 -107zM876 1052q-35 -64 -61 -92q-53 44 -133 104q31 56 64 95q64 -46 130 -107z" />
    <glyph glyph-name="uniFB6B" unicode="&#x6a4;" horiz-adv-x="1462" arabic-form="final" 
d="M1233 812q-34 -61 -61 -92q-59 49 -134 104q24 42 64 95q64 -45 131 -107zM1043 799q-32 -59 -63 -92q-76 63 -133 104q28 50 64 95q51 -35 132 -107zM1062 1012q-32 -60 -61 -92q-67 56 -133 104q28 50 64 95q60 -42 130 -107zM1152 54q-107 -43 -255 -69t-271 -26
q-221 0 -358 77q-97 55 -147 147.5t-50 209.5q0 86 28 156l43 -17q-10 -57 -10 -95q0 -88 44.5 -161t126.5 -117q118 -64 325 -64q191 0 364 44l-9 13q-64 85 -64 205q0 109 57 182q32 41 70.5 67t65.5 26t63.5 -29.5t71.5 -81.5q66 -97 66 -215q0 -73 -36 -160
q64 -18 159 -18h32l21 -128h-29q-78 0 -145.5 11t-162.5 43zM1132 178q49 13 91 51.5t42 69.5q0 35 -39 95q-59 90 -113 90q-55 0 -98 -53.5t-48 -113.5q41 -103 165 -139z" />
    <glyph glyph-name="uniFB6C" unicode="&#x6a4;" horiz-adv-x="574" arabic-form="initial" 
d="M7 128h83q151 0 215 20q45 14 74.5 37t29.5 43q0 16 -5 25q-36 -4 -113 -4q-190 0 -256 108q-29 46 -29 117q0 95 47 152q54 67 118 67q117 0 222 -198q34 -65 59 -146t25 -154q0 -55 -29 -96q-37 -53 -120 -76t-220 -23h-81q-43 0 -61.5 23.5t-18.5 49.5q0 55 60 55z
M370 368q-28 76 -85.5 135t-115.5 59q-46 0 -76.5 -27t-28.5 -58q3 -56 84.5 -82.5t212.5 -26.5h9zM298 852q-34 -61 -61 -92q-59 49 -134 104q28 50 64 95q64 -45 131 -107zM127 1052q-35 -64 -61 -92q-56 46 -131 104q33 60 63 95q65 -47 129 -107zM107 839
q-30 -58 -62 -92q-77 65 -131 104q28 50 64 95q58 -42 129 -107z" />
    <glyph glyph-name="uniFB6D" unicode="&#x6a4;" horiz-adv-x="660" arabic-form="medial" 
d="M7 128h16q55 0 158 24q-64 84 -64 210q0 104 57 177q33 41 71 67t65 26q58 0 135 -111q66 -97 66 -215q0 -73 -36 -160q64 -18 159 -18h32l21 -128h-29q-146 0 -338 64q-169 -64 -275 -64h-18q-43 0 -61.5 23.5t-18.5 49.5q0 55 60 55zM323 184q50 10 95 47.5t45 67.5
q0 35 -39 95q-59 90 -113 90q-55 0 -98 -53.5t-48 -113.5q39 -99 158 -133zM244 799q-32 -59 -63 -92q-76 63 -133 104q28 50 64 95q52 -35 132 -107zM434 812q-34 -61 -61 -92q-59 49 -134 104q24 42 64 95q64 -45 131 -107zM263 1012q-32 -60 -61 -92q-67 56 -133 104
q28 50 64 95q60 -42 130 -107z" />
    <glyph glyph-name="uniFB6E" unicode="&#x6a6;" horiz-adv-x="1318" arabic-form="isolated" 
d="M1144 253q-36 -4 -109 -4q-190 0 -256 108q-30 49 -30 119q0 90 48 150q54 67 118 67q116 0 221 -196q85 -160 85 -296q0 -58 -23 -92q-73 -51 -198 -88q-210 -61 -372 -61q-226 0 -360 77q-97 55 -147 144.5t-50 204.5q0 91 28 164l42 -17q-9 -49 -9 -92
q0 -89 44 -162.5t127 -118.5q118 -64 323 -64q151 0 339 44q64 15 126 43.5t62 42.5t-9 27zM1110 368q-28 77 -83.5 135.5t-113.5 58.5q-47 0 -76 -26t-29 -57q0 -56 82.5 -83.5t210.5 -27.5h9zM1001 1048q-35 -62 -59 -86q-56 49 -125 98q32 54 61 89q51 -36 123 -101z
M1041 859q-31 -59 -57 -87q-68 56 -125 98q27 52 60 89q51 -36 122 -100zM821 1036q-29 -55 -57 -86q-76 61 -126 98q24 41 60 89q58 -40 123 -101zM863 846q-38 -65 -58 -86q-60 50 -126 98q34 58 60 89q55 -39 124 -101z" />
    <glyph glyph-name="uniFB6F" unicode="&#x6a6;" horiz-adv-x="1462" arabic-form="final" 
d="M1041 796q-34 -60 -59 -86q-66 55 -125 98q23 41 59 89q62 -42 125 -101zM1219 809q-29 -54 -56 -87q-59 49 -126 98q32 57 60 89q55 -39 122 -100zM999 986q-30 -55 -58 -86q-89 71 -125 98q19 36 60 89q63 -44 123 -101zM1179 998q-38 -65 -58 -86q-60 50 -126 98
q32 54 61 89q56 -40 123 -101zM1152 54q-107 -43 -255 -69t-271 -26q-221 0 -358 77q-97 55 -147 147.5t-50 209.5q0 86 28 156l43 -17q-10 -57 -10 -95q0 -88 44.5 -161t126.5 -117q118 -64 325 -64q191 0 364 44l-9 13q-64 85 -64 205q0 109 57 182q32 41 70.5 67t65.5 26
t63.5 -29.5t71.5 -81.5q66 -97 66 -215q0 -73 -36 -160q64 -18 159 -18h32l21 -128h-29q-78 0 -145.5 11t-162.5 43zM1132 178q49 13 91 51.5t42 69.5q0 35 -39 95q-59 90 -113 90q-55 0 -98 -53.5t-48 -113.5q41 -103 165 -139z" />
    <glyph glyph-name="uniFB70" unicode="&#x6a6;" horiz-adv-x="574" arabic-form="initial" 
d="M7 128h83q151 0 215 20q45 14 74.5 37t29.5 43q0 16 -5 25q-36 -4 -113 -4q-190 0 -256 108q-29 46 -29 117q0 95 47 152q54 67 118 67q117 0 222 -198q34 -65 59 -146t25 -154q0 -55 -29 -96q-37 -53 -120 -76t-220 -23h-81q-43 0 -61.5 23.5t-18.5 49.5q0 55 60 55z
M370 368q-28 76 -85.5 135t-115.5 59q-46 0 -76.5 -27t-28.5 -58q3 -56 84.5 -82.5t212.5 -26.5h9zM260 1058q-35 -62 -58 -86q-60 50 -126 98q33 55 62 89q58 -41 122 -101zM301 869q-29 -55 -57 -87q-59 49 -126 98q30 53 61 89q55 -39 122 -100zM123 856q-38 -64 -59 -86
q-78 66 -124 98q33 56 59 89q55 -39 124 -101zM81 1046q-34 -60 -58 -86q-86 70 -124 98q16 28 60 89q54 -37 122 -101z" />
    <glyph glyph-name="uniFB71" unicode="&#x6a6;" horiz-adv-x="660" arabic-form="medial" 
d="M7 128h16q55 0 158 24q-64 84 -64 210q0 104 57 177q33 41 71 67t65 26q58 0 135 -111q66 -97 66 -215q0 -73 -36 -160q64 -18 159 -18h32l21 -128h-29q-146 0 -338 64q-169 -64 -275 -64h-18q-43 0 -61.5 23.5t-18.5 49.5q0 55 60 55zM323 184q50 10 95 47.5t45 67.5
q0 35 -39 95q-59 90 -113 90q-55 0 -98 -53.5t-48 -113.5q39 -99 158 -133zM379 1008q-38 -64 -59 -86q-68 57 -126 98q32 54 61 89q55 -39 124 -101zM198 996q-31 -58 -57 -86q-72 58 -125 98q22 40 59 89q60 -41 123 -101zM419 819q-29 -55 -57 -87q-71 58 -126 98
q29 52 60 89q55 -39 123 -100zM240 806q-35 -62 -58 -86q-56 47 -125 98q28 49 59 89q58 -39 124 -101z" />
    <glyph glyph-name="uniFB72" unicode="&#x684;" horiz-adv-x="953" arabic-form="isolated" 
d="M682 -32q-35 -62 -62 -90q-54 43 -133 102q28 49 64 92q65 -44 131 -104zM734 -234q-36 -62 -63 -89q-80 63 -133 101q22 38 64 93q66 -45 132 -105zM536 324l-2 3q-159 56 -291 56q-80 0 -114 -50l32 -84l-14 -79l-11 -3l-84 158v18q0 75 52.5 118.5t139.5 43.5
q109 0 340 -87q80 -31 175 -32l88 1l1 -2l-43 -101q-47 -5 -133 -28t-124 -38q-146 -57 -232.5 -137t-86.5 -169q0 -109 79.5 -191.5t202.5 -123t266 -40.5q121 0 258 22l4 -10q-95 -88 -145 -119q-90 -18 -183 -18q-108 0 -205.5 29t-176 84t-125 145t-46.5 203
q0 153 106 272t272 159z" />
    <glyph glyph-name="uniFB73" unicode="&#x684;" horiz-adv-x="939" arabic-form="final" 
d="M536 324l-2 3q-159 56 -291 56q-80 0 -114 -50l32 -84l-14 -79l-11 -3l-84 158v18q0 75 52.5 118.5t139.5 43.5q109 0 340 -87q80 -31 175 -32l88 1l1 -2l-43 -101q-47 -5 -133 -28t-124 -38q-146 -57 -232.5 -137t-86.5 -169q0 -109 79.5 -191.5t202.5 -123t266 -40.5
q121 0 258 22l4 -10q-95 -88 -145 -119q-90 -18 -183 -18q-108 0 -205.5 29t-176 84t-125 145t-46.5 203q0 153 106 272t272 159zM663 221l33 24l3 -1q23 -116 195 -116h51l21 -128h-55q-216 0 -242 165q-5 29 -6 56zM644 -42q-33 -59 -63 -90q-77 61 -133 102q24 42 64 92
q65 -43 132 -104zM695 -244q-37 -64 -62 -89q-53 43 -133 101q27 47 64 93q67 -46 131 -105z" />
    <glyph glyph-name="uniFB74" unicode="&#x684;" horiz-adv-x="935" arabic-form="initial" 
d="M7 128h60q121 0 243 44t262 137l1 4q-200 70 -330 70q-80 0 -114 -50l20 -50l-17 -90h-10l-70 132v18q0 75 52.5 118.5t139.5 43.5q109 0 340 -87q82 -31 175 -32l81 1l3 -2l-36 -105h-8q-102 0 -154 -37l-151 -109q-183 -134 -415 -134h-52q-43 0 -61.5 23.5t-18.5 49.5
q0 55 60 55zM528 -192q-32 -56 -63 -90q-79 63 -134 102q34 57 65 92q52 -35 132 -104zM579 -394q-37 -64 -62 -89q-66 53 -133 101q27 47 64 93q67 -46 131 -105z" />
    <glyph glyph-name="uniFB75" unicode="&#x684;" horiz-adv-x="915" arabic-form="medial" 
d="M572 309l1 4q-200 70 -330 70q-80 0 -114 -50l20 -50l-17 -90h-10l-70 132v18q0 75 52.5 118.5t139.5 43.5q110 0 339 -86q89 -33 176 -33h87l2 -2l-45 -103q-104 0 -158 -38l-151 -109q-187 -134 -421 -134h-46q-43 0 -61.5 23.5t-18.5 49.5q0 55 60 55h60q121 0 243 44
t262 137zM663 221l33 24l3 -1q23 -116 195 -116h27l21 -128h-31q-216 0 -242 165q-5 29 -6 56zM528 -192q-32 -56 -63 -90q-79 63 -134 102q34 57 65 92q52 -35 132 -104zM579 -394q-37 -64 -62 -89q-66 53 -133 101q27 47 64 93q67 -46 131 -105z" />
    <glyph glyph-name="uniFB76" unicode="&#x683;" horiz-adv-x="953" arabic-form="isolated" 
d="M637 -127q-35 -64 -61 -92q-68 55 -133 104q31 56 64 95q58 -41 130 -107zM827 -114q-28 -57 -61 -92q-76 63 -133 104q28 50 64 95q57 -39 130 -107zM536 324l-2 3q-159 56 -291 56q-80 0 -114 -50l32 -84l-14 -79l-11 -3l-84 158v18q0 75 52.5 118.5t139.5 43.5
q109 0 340 -87q80 -31 175 -32l88 1l1 -2l-43 -101q-47 -5 -133 -28t-124 -38q-146 -57 -232.5 -137t-86.5 -169q0 -109 79.5 -191.5t202.5 -123t266 -40.5q121 0 258 22l4 -10q-95 -88 -145 -119q-90 -18 -183 -18q-108 0 -205.5 29t-176 84t-125 145t-46.5 203
q0 153 106 272t272 159z" />
    <glyph glyph-name="uniFB77" unicode="&#x683;" horiz-adv-x="939" arabic-form="final" 
d="M536 324l-2 3q-159 56 -291 56q-80 0 -114 -50l32 -84l-14 -79l-11 -3l-84 158v18q0 75 52.5 118.5t139.5 43.5q109 0 340 -87q80 -31 175 -32l88 1l1 -2l-43 -101q-47 -5 -133 -28t-124 -38q-146 -57 -232.5 -137t-86.5 -169q0 -109 79.5 -191.5t202.5 -123t266 -40.5
q121 0 258 22l4 -10q-95 -88 -145 -119q-90 -18 -183 -18q-108 0 -205.5 29t-176 84t-125 145t-46.5 203q0 153 106 272t272 159zM663 221l33 24l3 -1q23 -116 195 -116h51l21 -128h-55q-216 0 -242 165q-5 29 -6 56zM760 -124q-32 -58 -62 -92q-70 58 -134 104q24 42 64 95
q58 -40 132 -107zM569 -137q-34 -61 -61 -92q-92 73 -134 104q31 56 64 95q51 -35 131 -107z" />
    <glyph glyph-name="uniFB78" unicode="&#x683;" horiz-adv-x="935" arabic-form="initial" 
d="M7 128h60q121 0 243 44t262 137l1 4q-200 70 -330 70q-80 0 -114 -50l20 -50l-17 -90h-10l-70 132v18q0 75 52.5 118.5t139.5 43.5q109 0 340 -87q82 -31 175 -32l81 1l3 -2l-36 -105h-8q-102 0 -154 -37l-151 -109q-183 -134 -415 -134h-52q-43 0 -61.5 23.5t-18.5 49.5
q0 55 60 55zM468 -257q-32 -58 -62 -92q-70 58 -134 104q24 42 64 95q58 -40 132 -107zM658 -244q-35 -64 -61 -92q-53 44 -133 104q28 50 64 95q64 -46 130 -107z" />
    <glyph glyph-name="uniFB79" unicode="&#x683;" horiz-adv-x="915" arabic-form="medial" 
d="M572 309l1 4q-200 70 -330 70q-80 0 -114 -50l20 -50l-17 -90h-10l-70 132v18q0 75 52.5 118.5t139.5 43.5q110 0 339 -86q89 -33 176 -33h87l2 -2l-45 -103q-104 0 -158 -38l-151 -109q-187 -134 -421 -134h-46q-43 0 -61.5 23.5t-18.5 49.5q0 55 60 55h60q121 0 243 44
t262 137zM663 221l33 24l3 -1q23 -116 195 -116h27l21 -128h-31q-216 0 -242 165q-5 29 -6 56zM468 -257q-32 -58 -62 -92q-70 58 -134 104q24 42 64 95q58 -40 132 -107zM658 -244q-35 -64 -61 -92q-53 44 -133 104q28 50 64 95q64 -46 130 -107z" />
    <glyph glyph-name="uniFB7A" unicode="&#x686;" horiz-adv-x="953" arabic-form="isolated" 
d="M797 -39q-34 -62 -63 -92q-76 63 -133 104q33 57 64 95q51 -35 132 -107zM605 -52q-35 -64 -61 -92q-53 44 -133 104q31 56 64 95q65 -46 130 -107zM777 -251q-34 -61 -62 -92q-82 66 -133 104q31 56 64 95q51 -35 131 -107zM536 324l-2 3q-159 56 -291 56
q-80 0 -114 -50l32 -84l-14 -79l-11 -3l-84 158v18q0 75 52.5 118.5t139.5 43.5q109 0 340 -87q80 -31 175 -32l88 1l1 -2l-43 -101q-47 -5 -133 -28t-124 -38q-146 -57 -232.5 -137t-86.5 -169q0 -109 79.5 -191.5t202.5 -123t266 -40.5q121 0 258 22l4 -10
q-95 -88 -145 -119q-90 -18 -183 -18q-108 0 -205.5 29t-176 84t-125 145t-46.5 203q0 153 106 272t272 159z" />
    <glyph glyph-name="uniFB7B" unicode="&#x686;" horiz-adv-x="939" arabic-form="final" 
d="M536 324l-2 3q-159 56 -291 56q-80 0 -114 -50l32 -84l-14 -79l-11 -3l-84 158v18q0 75 52.5 118.5t139.5 43.5q109 0 340 -87q80 -31 175 -32l88 1l1 -2l-43 -101q-47 -5 -133 -28t-124 -38q-146 -57 -232.5 -137t-86.5 -169q0 -109 79.5 -191.5t202.5 -123t266 -40.5
q121 0 258 22l4 -10q-95 -88 -145 -119q-90 -18 -183 -18q-108 0 -205.5 29t-176 84t-125 145t-46.5 203q0 153 106 272t272 159zM663 221l33 24l3 -1q23 -116 195 -116h51l21 -128h-55q-216 0 -242 165q-5 29 -6 56zM726 -62q-35 -62 -59 -86q-66 55 -125 98q25 45 60 89
q58 -39 124 -101zM707 -262q-35 -62 -58 -86q-56 47 -125 98q28 49 59 89q54 -36 124 -101zM537 -74q-33 -61 -57 -86q-49 40 -125 98q29 50 60 89q56 -38 122 -101z" />
    <glyph glyph-name="uniFB7C" unicode="&#x686;" horiz-adv-x="935" arabic-form="initial" 
d="M7 128h60q121 0 243 44t262 137l1 4q-200 70 -330 70q-80 0 -114 -50l20 -50l-17 -90h-10l-70 132v18q0 75 52.5 118.5t139.5 43.5q109 0 340 -87q82 -31 175 -32l81 1l3 -2l-36 -105h-8q-102 0 -154 -37l-151 -109q-183 -134 -415 -134h-52q-43 0 -61.5 23.5t-18.5 49.5
q0 55 60 55zM632 -411q-34 -61 -62 -92q-70 58 -134 104q35 57 64 95q58 -40 132 -107zM461 -212q-34 -62 -63 -92q-75 62 -132 104q31 56 64 95q51 -35 131 -107zM651 -199q-30 -57 -61 -92q-70 58 -134 104q24 42 64 95q60 -41 131 -107z" />
    <glyph glyph-name="uniFB7D" unicode="&#x686;" horiz-adv-x="915" arabic-form="medial" 
d="M572 309l1 4q-200 70 -330 70q-80 0 -114 -50l20 -50l-17 -90h-10l-70 132v18q0 75 52.5 118.5t139.5 43.5q110 0 339 -86q89 -33 176 -33h87l2 -2l-45 -103q-104 0 -158 -38l-151 -109q-187 -134 -421 -134h-46q-43 0 -61.5 23.5t-18.5 49.5q0 55 60 55h60q121 0 243 44
t262 137zM663 221l33 24l3 -1q23 -116 195 -116h27l21 -128h-31q-216 0 -242 165q-5 29 -6 56zM632 -411q-34 -61 -62 -92q-70 58 -134 104q35 57 64 95q58 -40 132 -107zM461 -212q-34 -62 -63 -92q-75 62 -132 104q31 56 64 95q51 -35 131 -107zM651 -199q-30 -57 -61 -92
q-70 58 -134 104q24 42 64 95q60 -41 131 -107z" />
    <glyph glyph-name="uniFB7E" unicode="&#x687;" horiz-adv-x="953" arabic-form="isolated" 
d="M630 -233q-35 -62 -59 -86q-66 55 -125 98q23 41 59 89q58 -39 125 -101zM813 -220q-27 -51 -57 -87q-64 52 -127 98q32 54 61 89q60 -43 123 -100zM588 -43q-32 -58 -58 -86q-89 71 -125 98q16 29 59 89q60 -40 124 -101zM772 -31q-34 -60 -58 -86q-62 53 -127 98
q35 56 62 89q62 -44 123 -101zM536 324l-2 3q-159 56 -291 56q-80 0 -114 -50l32 -84l-14 -79l-11 -3l-84 158v18q0 75 52.5 118.5t139.5 43.5q109 0 340 -87q80 -31 175 -32l88 1l1 -2l-43 -101q-47 -5 -133 -28t-124 -38q-146 -57 -232.5 -137t-86.5 -169
q0 -109 79.5 -191.5t202.5 -123t266 -40.5q121 0 258 22l4 -10q-95 -88 -145 -119q-90 -18 -183 -18q-108 0 -205.5 29t-176 84t-125 145t-46.5 203q0 153 106 272t272 159z" />
    <glyph glyph-name="uniFB7F" unicode="&#x687;" horiz-adv-x="939" arabic-form="final" 
d="M536 324l-2 3q-159 56 -291 56q-80 0 -114 -50l32 -84l-14 -79l-11 -3l-84 158v18q0 75 52.5 118.5t139.5 43.5q109 0 340 -87q80 -31 175 -32l88 1l1 -2l-43 -101q-47 -5 -133 -28t-124 -38q-146 -57 -232.5 -137t-86.5 -169q0 -109 79.5 -191.5t202.5 -123t266 -40.5
q121 0 258 22l4 -10q-95 -88 -145 -119q-90 -18 -183 -18q-108 0 -205.5 29t-176 84t-125 145t-46.5 203q0 153 106 272t272 159zM663 221l33 24l3 -1q23 -116 195 -116h51l21 -128h-55q-216 0 -242 165q-5 29 -6 56zM727 -45q-34 -61 -58 -85q-51 44 -123 97q25 46 61 88
q65 -47 120 -100zM768 -233q-28 -53 -57 -86q-88 71 -124 97q26 48 60 87q46 -32 121 -98zM541 -57q-34 -61 -56 -85q-52 43 -124 97q17 30 59 88q56 -38 121 -100zM582 -246q-33 -61 -57 -85q-38 33 -123 97q38 63 59 88q54 -37 121 -100z" />
    <glyph glyph-name="uniFB80" unicode="&#x687;" horiz-adv-x="935" arabic-form="initial" 
d="M7 128h60q121 0 243 44t262 137l1 4q-200 70 -330 70q-80 0 -114 -50l20 -50l-17 -90h-10l-70 132v18q0 75 52.5 118.5t139.5 43.5q109 0 340 -87q82 -31 175 -32l81 1l3 -2l-36 -105h-8q-102 0 -154 -37l-151 -109q-183 -134 -415 -134h-52q-43 0 -61.5 23.5t-18.5 49.5
q0 55 60 55zM640 -193q-34 -60 -59 -86q-66 55 -125 98q25 45 60 89q62 -43 124 -101zM681 -382q-28 -52 -58 -87q-71 58 -126 98q25 45 60 89q53 -37 124 -100zM456 -205q-31 -58 -57 -86q-72 58 -125 98q22 40 59 89q57 -38 123 -101zM498 -395q-35 -62 -58 -86
q-56 47 -125 98q27 49 59 89q58 -39 124 -101z" />
    <glyph glyph-name="uniFB81" unicode="&#x687;" horiz-adv-x="915" arabic-form="medial" 
d="M572 309l1 4q-200 70 -330 70q-80 0 -114 -50l20 -50l-17 -90h-10l-70 132v18q0 75 52.5 118.5t139.5 43.5q110 0 339 -86q89 -33 176 -33h87l2 -2l-45 -103q-104 0 -158 -38l-151 -109q-187 -134 -421 -134h-46q-43 0 -61.5 23.5t-18.5 49.5q0 55 60 55h60q121 0 243 44
t262 137zM663 221l33 24l3 -1q23 -116 195 -116h27l21 -128h-31q-216 0 -242 165q-5 29 -6 56zM640 -193q-34 -60 -59 -86q-66 55 -125 98q25 45 60 89q62 -43 124 -101zM681 -382q-28 -52 -58 -87q-71 58 -126 98q25 45 60 89q53 -37 124 -100zM456 -205q-31 -58 -57 -86
q-72 58 -125 98q22 40 59 89q57 -38 123 -101zM498 -395q-35 -62 -58 -86q-56 47 -125 98q27 49 59 89q58 -39 124 -101z" />
    <glyph glyph-name="uniFB82" unicode="&#x68d;" horiz-adv-x="689" arabic-form="isolated" 
d="M83 272h39q14 -73 55.5 -113.5t128.5 -40.5q106 0 211 65q17 9 17 23q0 31 -36 87.5t-88 103.5q-103 93 -228 151q-39 20 -39 44q0 35 34 107l8 1q157 -89 272 -207q71 -74 106 -144t35 -150q0 -56 -20 -118q-140 -93 -260 -93q-102 0 -165 70t-70 193v21zM402 -307
q-34 -62 -63 -92q-75 62 -132 104q31 56 64 95q51 -35 131 -107zM592 -294q-30 -57 -61 -92q-70 58 -134 104q24 42 64 95q60 -41 131 -107z" />
    <glyph glyph-name="uniFB83" unicode="&#x68d;" horiz-adv-x="770" arabic-form="final" 
d="M393 -307q-34 -62 -63 -92q-75 62 -132 104q31 56 64 95q51 -35 131 -107zM583 -294q-30 -57 -61 -92q-70 58 -134 104q24 42 64 95q60 -41 131 -107zM776 128l21 -128h-14q-153 0 -231 163h-5q-3 -61 -57 -96q-99 -67 -194 -67q-83 0 -135.5 48t-68.5 137q-6 39 -9 74
l39 3q27 -134 162 -134q77 0 155 50q53 33 53 70q0 53 -141 377q39 80 54 103l7 -4q74 -178 165 -445q25 -72 74.5 -111.5t107.5 -39.5h17z" />
    <glyph glyph-name="uniFB84" unicode="&#x68c;" horiz-adv-x="689" arabic-form="isolated" 
d="M83 272h39q14 -73 55.5 -113.5t128.5 -40.5q106 0 211 65q17 9 17 23q0 31 -36 87.5t-88 103.5q-103 93 -228 151q-39 20 -39 44q0 35 34 107l8 1q157 -89 272 -207q71 -74 106 -144t35 -150q0 -56 -20 -118q-140 -93 -260 -93q-102 0 -165 70t-70 193v21zM317 932
q-32 -59 -63 -92q-76 63 -133 104q28 50 64 95q51 -35 132 -107zM125 919q-35 -64 -61 -92q-92 75 -131 104q30 54 63 95q58 -42 129 -107z" />
    <glyph glyph-name="uniFB85" unicode="&#x68c;" horiz-adv-x="770" arabic-form="final" 
d="M488 932q-32 -59 -63 -92q-76 63 -133 104q28 50 64 95q52 -35 132 -107zM296 919q-35 -64 -61 -92q-68 55 -133 104q31 56 64 95q58 -41 130 -107zM776 128l21 -128h-14q-153 0 -231 163h-5q-3 -61 -57 -96q-99 -67 -194 -67q-83 0 -135.5 48t-68.5 137q-6 39 -9 74
l39 3q27 -134 162 -134q77 0 155 50q53 33 53 70q0 53 -141 377q39 80 54 103l7 -4q74 -178 165 -445q25 -72 74.5 -111.5t107.5 -39.5h17z" />
    <glyph glyph-name="uniFB86" unicode="&#x68e;" horiz-adv-x="689" arabic-form="isolated" 
d="M83 272h39q14 -73 55.5 -113.5t128.5 -40.5q106 0 211 65q17 9 17 23q0 31 -36 87.5t-88 103.5q-103 93 -228 151q-39 20 -39 44q0 35 34 107l8 1q157 -89 272 -207q71 -74 106 -144t35 -150q0 -56 -20 -118q-140 -93 -260 -93q-102 0 -165 70t-70 193v21zM323 892
q-34 -61 -62 -92q-70 58 -134 104q31 52 65 95q58 -40 131 -107zM152 1092q-35 -64 -62 -92q-72 60 -131 104q29 52 62 95q58 -40 131 -107zM131 879q-32 -60 -61 -92q-72 60 -131 104q30 54 63 95q60 -43 129 -107z" />
    <glyph glyph-name="uniFB87" unicode="&#x68e;" horiz-adv-x="770" arabic-form="final" 
d="M311 889q-34 -61 -61 -92q-59 49 -134 104q24 42 64 95q64 -45 131 -107zM332 1102q-34 -61 -62 -92q-70 58 -134 104q28 49 64 95q58 -40 132 -107zM502 902q-35 -64 -62 -92q-67 56 -133 104q33 57 64 95q58 -40 131 -107zM776 128l21 -128h-14q-153 0 -231 163h-5
q-3 -61 -57 -96q-99 -67 -194 -67q-83 0 -135.5 48t-68.5 137q-6 39 -9 74l39 3q27 -134 162 -134q77 0 155 50q53 33 53 70q0 53 -141 377q39 80 54 103l7 -4q74 -178 165 -445q25 -72 74.5 -111.5t107.5 -39.5h17z" />
    <glyph glyph-name="uniFB88" unicode="&#x688;" horiz-adv-x="689" arabic-form="isolated" 
d="M83 272h39q14 -73 55.5 -113.5t128.5 -40.5q106 0 211 65q17 9 17 23q0 31 -36 87.5t-88 103.5q-103 93 -228 151q-39 20 -39 44q0 35 34 107l8 1q157 -89 272 -207q71 -74 106 -144t35 -150q0 -56 -20 -118q-140 -93 -260 -93q-102 0 -165 70t-70 193v21zM48 827
l-105 77l4 6l103 -4q7 15 7 42q0 36 -11 94.5t-24 110t-13 52.5q-1 3 -1 7q0 5 1.5 10.5t3 9.5t6.5 11t7 10t8.5 11.5t8.5 11.5h6q18 -53 58 -111l-31 -31l17 -101v-11q0 -15 -3 -30l4 -2q58 116 131 116q50 0 84 -38t34 -88q0 -22 -7 -52q-13 -50 -55 -73q-61 -31 -158 -31
q-52 0 -75 3zM87 907q194 5 221 58q-27 61 -85 61q-80 0 -136 -119z" />
    <glyph glyph-name="uniFB89" unicode="&#x688;" horiz-adv-x="770" arabic-form="final" 
d="M776 128l21 -128h-14q-153 0 -231 163h-5q-3 -61 -57 -96q-99 -67 -194 -67q-83 0 -135.5 48t-68.5 137q-6 39 -9 74l39 3q27 -134 162 -134q77 0 155 50q53 33 53 70q0 53 -141 377q39 80 54 103l7 -4q74 -178 165 -445q25 -72 74.5 -111.5t107.5 -39.5h17zM187 837
l-105 77l4 6l103 -4q7 15 7 42q0 36 -11 94.5t-24 110t-13 52.5q-1 3 -1 7q0 5 1.5 10.5t3 9.5t6.5 11t7 10t8.5 11.5t8.5 11.5h6q18 -53 58 -111l-31 -31l17 -101v-11q0 -15 -3 -30l4 -2q58 116 131 116q50 0 84 -38t34 -88q0 -22 -7 -52q-13 -50 -55 -73q-61 -31 -158 -31
q-52 0 -75 3zM226 917q194 5 221 58q-27 61 -85 61q-80 0 -136 -119z" />
    <glyph glyph-name="uniFB8A" unicode="&#x698;" horiz-adv-x="631" arabic-form="isolated" 
d="M284 699q-34 -61 -61 -92q-59 49 -134 104q24 42 64 95q64 -45 131 -107zM305 912q-34 -61 -62 -92q-83 67 -134 104q33 57 64 95q58 -40 132 -107zM475 712q-35 -64 -62 -92q-67 56 -133 104q33 57 64 95q58 -40 131 -107zM366 517l6 -1l93 -135q65 -95 79 -190l18 -110
q3 -19 3 -40q0 -117 -86 -237q-67 -92 -149 -92q-107 0 -269 77l5 34q58 -18 114 -18q103 1 189 78.5t120 191.5q4 13 4 36q0 21 -24 61q-68 113 -154 220q35 89 51 125z" />
    <glyph glyph-name="uniFB8B" unicode="&#x698;" horiz-adv-x="656" arabic-form="final" 
d="M378 343l6 1q66 -114 122.5 -165t137.5 -51h18l21 -128h-21q-67 0 -107 32h-4q11 -38 11 -82q0 -63 -19 -108q-41 -100 -95.5 -149.5t-112.5 -49.5q-104 0 -262 78l9 34q51 -22 119 -22q101 0 193 94t92 203v3q-12 21 -35 45q-63 75 -109 149q16 60 36 116zM308 762
q-30 -58 -62 -92q-76 63 -133 104q28 50 64 95q54 -37 131 -107zM288 549q-34 -61 -62 -92q-67 56 -133 104q31 56 64 95q58 -40 131 -107zM478 562q-32 -60 -61 -92q-70 58 -134 104q28 49 64 95q60 -41 131 -107z" />
    <glyph glyph-name="uniFB8C" unicode="&#x691;" horiz-adv-x="631" arabic-form="isolated" 
d="M366 517l6 -1l93 -135q65 -95 79 -190l18 -110q3 -19 3 -40q0 -117 -86 -237q-67 -92 -149 -92q-107 0 -269 77l5 34q58 -18 114 -18q103 1 189 78.5t120 191.5q4 13 4 36q0 21 -24 61q-68 113 -154 220q35 89 51 125zM140 647l-105 77l4 6l103 -4q7 15 7 42
q0 36 -11 94.5t-24 110t-13 52.5q-1 3 -1 7q0 5 1.5 10.5t3 9.5t6.5 11t7 10t8.5 11.5t8.5 11.5h6q18 -53 58 -111l-31 -31l17 -101v-11q0 -15 -3 -30l4 -2q58 116 131 116q50 0 84 -38t34 -88q0 -22 -7 -52q-13 -50 -55 -73q-61 -31 -158 -31q-52 0 -75 3zM179 727
q194 5 221 58q-27 61 -85 61q-80 0 -136 -119z" />
    <glyph glyph-name="uniFB8D" unicode="&#x691;" horiz-adv-x="656" arabic-form="final" 
d="M378 343l6 1q66 -114 122.5 -165t137.5 -51h18l21 -128h-21q-67 0 -107 32h-4q11 -38 11 -82q0 -63 -19 -108q-41 -100 -95.5 -149.5t-112.5 -49.5q-104 0 -262 78l9 34q51 -22 119 -22q101 0 193 94t92 203v3q-12 21 -35 45q-63 75 -109 149q16 60 36 116zM152 507
l-105 77l4 6l103 -4q7 15 7 42q0 36 -11 94.5t-24 110t-13 52.5q-1 3 -1 7q0 5 1.5 10.5t3 9.5t6.5 11t7 10t8.5 11.5t8.5 11.5h6q18 -53 58 -111l-31 -31l17 -101v-11q0 -15 -3 -30l4 -2q58 116 131 116q50 0 84 -38t34 -88q0 -22 -7 -52q-13 -50 -55 -73q-61 -31 -158 -31
q-52 0 -75 3zM191 587q194 5 221 58q-27 61 -85 61q-80 0 -136 -119z" />
    <glyph glyph-name="uniFB8E" unicode="&#x6a9;" horiz-adv-x="1220" arabic-form="isolated" 
d="M955 227q-12 67 -95 157q-102 116 -345 283q-51 36 -51 103q0 19 13 54q13 31 66 60q126 70 507 200l7 -8q-15 -41 -55 -123q-78 -21 -154 -49q-140 -52 -308 -131v-3l173 -63l-16 -50q323 -230 323 -405q0 -117 -43 -162q-59 -49 -177 -75t-263 -26q-220 0 -343 96
t-123 291q0 56 13 113l42 -13q-3 -20 -3 -39q0 -154 102.5 -234.5t305.5 -80.5q130 0 249.5 25t174.5 80z" />
    <glyph glyph-name="uniFB8F" unicode="&#x6a9;" horiz-adv-x="1405" arabic-form="final" 
d="M1411 128l21 -128h-20q-84 0 -147.5 40t-138.5 122q-77 85 -105 111h-5q-6 -127 -52 -170q-61 -51 -175.5 -82.5t-251.5 -31.5q-220 0 -343 96t-123 291q0 56 13 113l42 -13q-3 -20 -3 -39q0 -154 102.5 -234.5t305.5 -80.5q124 0 246 31t174 91q-3 19 -26 59
q-62 101 -295 304q-57 50 -74 68q-16 48 -17 68v9q0 27 15 64q9 21 30 37q113 81 578 234l5 -6q-23 -65 -58 -123q-75 -19 -217 -74q-194 -76 -283 -127v-3q58 -34 166 -78l-21 -50q158 -125 430 -396q104 -102 210 -102h17z" />
    <glyph glyph-name="uniFB90" unicode="&#x6a9;" horiz-adv-x="641" arabic-form="initial" 
d="M470 1087l8 -8q-22 -57 -56 -123q-75 -20 -153 -49q-145 -54 -306 -131v-6l171 -63l-16 -50q116 -86 180 -146.5t102 -130.5t38 -148q0 -94 -37 -139q-90 -93 -334 -93h-40q-43 0 -61.5 23.5t-18.5 49.5q0 55 60 55h62q182 0 259 52q46 32 46 52q0 49 -93 152
q-101 114 -343 283q-51 35 -51 104q0 27 13 55q15 33 65 61q126 70 505 200z" />
    </font>
</defs>
</svg>
